<?xml version="1.0" encoding="UTF-8"?><svg xmlns="http://www.w3.org/2000/svg" xmlns:xlink="http://www.w3.org/1999/xlink" height="330.0" preserveAspectRatio="xMidYMid meet" version="1.0" viewBox="33.1 47.5 359.1 330.0" width="359.1" zoomAndPan="magnify"><defs><clipPath id="a"><path d="M 0 0 L 425.199219 0 L 425.199219 425.199219 L 0 425.199219 Z M 0 0"/></clipPath></defs><g><g clip-path="url(#a)"/><g><path d="M 279.683594 100.011719 C 266.464844 100.011719 253.945312 102.976562 242.742188 108.273438 C 242.089844 105.523438 241.144531 102.855469 239.886719 100.277344 C 226.046875 71.929688 179.992188 65.949219 137.027344 86.925781 C 94.058594 107.902344 70.445312 147.890625 84.285156 176.238281 C 87.03125 181.863281 91.058594 186.59375 96.066406 190.417969 C 83.246094 205.515625 75.511719 225.0625 75.511719 246.414062 C 75.511719 294.230469 114.269531 332.992188 162.085938 332.992188 C 202.988281 332.992188 237.261719 304.628906 246.316406 266.496094 C 256.585938 270.789062 267.855469 273.164062 279.683594 273.164062 C 327.496094 273.164062 366.257812 234.402344 366.257812 186.585938 C 366.257812 138.773438 327.496094 100.011719 279.683594 100.011719" fill="#86c9f0"/></g><g><path d="M 287.214844 67.289062 C 287.214844 70.605469 284.53125 73.285156 281.222656 73.285156 C 277.910156 73.285156 275.226562 70.605469 275.226562 67.289062 C 275.226562 63.980469 277.910156 61.296875 281.222656 61.296875 C 284.53125 61.296875 287.214844 63.980469 287.214844 67.289062" fill="#86c9f0"/></g><g><path d="M 240.078125 326.285156 C 240.078125 327.9375 238.734375 329.28125 237.082031 329.28125 C 235.425781 329.28125 234.085938 327.9375 234.085938 326.285156 C 234.085938 324.628906 235.425781 323.285156 237.082031 323.285156 C 238.734375 323.285156 240.078125 324.628906 240.078125 326.285156" fill="#86c9f0"/></g><g><path d="M 353.28125 253.375 C 353.28125 255.03125 351.941406 256.371094 350.285156 256.371094 C 348.632812 256.371094 347.289062 255.03125 347.289062 253.375 C 347.289062 251.722656 348.632812 250.378906 350.285156 250.378906 C 351.941406 250.378906 353.28125 251.722656 353.28125 253.375" fill="#86c9f0"/></g><g><path d="M 86.515625 109.613281 C 86.515625 114.035156 82.929688 117.621094 78.507812 117.621094 C 74.085938 117.621094 70.496094 114.035156 70.496094 109.613281 C 70.496094 105.191406 74.085938 101.605469 78.507812 101.605469 C 82.929688 101.605469 86.515625 105.191406 86.515625 109.613281" fill="#86c9f0"/></g><g><path d="M 64.9375 218.3125 C 64.9375 219.96875 63.59375 221.308594 61.941406 221.308594 C 60.285156 221.308594 58.941406 219.96875 58.941406 218.3125 C 58.941406 216.652344 60.285156 215.3125 61.941406 215.3125 C 63.59375 215.3125 64.9375 216.652344 64.9375 218.3125" fill="#86c9f0"/></g><g><path d="M 359.605469 276.617188 C 359.605469 281.769531 355.433594 285.941406 350.285156 285.941406 C 345.136719 285.941406 340.964844 281.769531 340.964844 276.617188 C 340.964844 271.472656 345.136719 267.300781 350.285156 267.300781 C 355.433594 267.300781 359.605469 271.472656 359.605469 276.617188" fill="#86c9f0"/></g><g><path d="M 34.058594 364.902344 C 36.027344 364.902344 391.140625 364.902344 391.140625 364.902344 C 391.691406 364.902344 392.140625 364.457031 392.140625 363.902344 C 392.140625 363.351562 391.691406 362.902344 391.140625 362.902344 C 391.140625 362.902344 36.027344 362.902344 34.058594 362.902344 C 33.507812 362.902344 33.058594 363.351562 33.058594 363.902344 C 33.058594 364.457031 33.507812 364.902344 34.058594 364.902344" fill="#3d305e"/></g><g><path d="M 228.683594 76.429688 C 228.683594 91.859375 216.175781 104.367188 200.742188 104.367188 C 185.3125 104.367188 172.804688 91.859375 172.804688 76.429688 C 172.804688 61 185.3125 48.492188 200.742188 48.492188 C 216.175781 48.492188 228.683594 61 228.683594 76.429688" fill="#7cafe2"/></g><g><path d="M 228.683594 76.429688 L 227.683594 76.429688 C 227.683594 83.871094 224.671875 90.597656 219.792969 95.476562 C 214.914062 100.355469 208.1875 103.367188 200.742188 103.367188 C 193.300781 103.367188 186.574219 100.355469 181.695312 95.476562 C 176.816406 90.597656 173.804688 83.871094 173.804688 76.429688 C 173.804688 68.988281 176.816406 62.261719 181.695312 57.382812 C 186.574219 52.503906 193.300781 49.492188 200.742188 49.492188 C 208.1875 49.492188 214.914062 52.503906 219.792969 57.382812 C 224.671875 62.261719 227.683594 68.988281 227.683594 76.429688 L 229.683594 76.429688 C 229.683594 60.445312 216.726562 47.492188 200.742188 47.492188 C 184.761719 47.492188 171.804688 60.445312 171.804688 76.429688 C 171.804688 92.410156 184.761719 105.367188 200.742188 105.367188 C 216.726562 105.367188 229.683594 92.410156 229.683594 76.429688 L 228.683594 76.429688" fill="#3d305e"/></g><g><path d="M 222.230469 76.429688 C 222.230469 91.859375 209.722656 104.367188 194.289062 104.367188 C 178.859375 104.367188 166.355469 91.859375 166.355469 76.429688 C 166.355469 61 178.859375 48.492188 194.289062 48.492188 C 209.722656 48.492188 222.230469 61 222.230469 76.429688" fill="#7cafe2"/></g><g><path d="M 222.230469 76.429688 L 221.230469 76.429688 C 221.230469 83.871094 218.21875 90.597656 213.339844 95.476562 C 208.460938 100.355469 201.734375 103.367188 194.289062 103.367188 C 186.847656 103.367188 180.121094 100.355469 175.242188 95.476562 C 170.367188 90.597656 167.355469 83.871094 167.351562 76.429688 C 167.355469 68.988281 170.367188 62.261719 175.242188 57.382812 C 180.121094 52.503906 186.847656 49.492188 194.289062 49.492188 C 201.734375 49.492188 208.460938 52.503906 213.339844 57.382812 C 218.21875 62.261719 221.230469 68.988281 221.230469 76.429688 L 223.230469 76.429688 C 223.230469 60.445312 210.273438 47.492188 194.289062 47.492188 C 178.308594 47.492188 165.355469 60.445312 165.351562 76.429688 C 165.355469 92.410156 178.308594 105.367188 194.289062 105.367188 C 210.273438 105.367188 223.230469 92.410156 223.230469 76.429688 L 222.230469 76.429688" fill="#3d305e"/></g><g><path d="M 194.289062 103.367188 C 186.847656 103.367188 180.121094 100.355469 175.242188 95.476562 C 174.863281 95.097656 174.492188 94.703125 174.132812 94.296875 C 177.679688 95.933594 181.628906 96.847656 185.789062 96.847656 C 201.21875 96.847656 213.730469 84.339844 213.730469 68.90625 C 213.730469 63.53125 212.207031 58.507812 209.574219 54.242188 C 210.925781 55.175781 212.183594 56.226562 213.339844 57.382812 C 218.21875 62.261719 221.230469 68.988281 221.230469 76.429688 C 221.230469 83.871094 218.21875 90.597656 213.339844 95.476562 C 208.460938 100.355469 201.734375 103.367188 194.289062 103.367188" fill="#6c97c4"/></g><g><path d="M 194.289062 104.367188 C 185.132812 104.367188 177.003906 99.960938 171.90625 93.148438 C 172.628906 93.566406 173.371094 93.949219 174.132812 94.296875 C 174.492188 94.703125 174.863281 95.097656 175.242188 95.476562 C 180.121094 100.355469 186.847656 103.367188 194.289062 103.367188 C 201.734375 103.367188 208.460938 100.355469 213.339844 95.476562 C 218.21875 90.597656 221.230469 83.871094 221.230469 76.429688 C 221.230469 68.988281 218.21875 62.261719 213.339844 57.382812 C 212.183594 56.226562 210.925781 55.175781 209.574219 54.242188 C 209.140625 53.535156 208.671875 52.851562 208.175781 52.1875 C 216.570312 57.007812 222.230469 66.054688 222.230469 76.429688 C 222.230469 91.859375 209.722656 104.367188 194.289062 104.367188" fill="#342950"/></g><g><path d="M 182.230469 77.320312 C 177.023438 77.320312 172.804688 73.105469 172.804688 67.894531 C 172.804688 62.6875 177.023438 58.46875 182.230469 58.46875 C 187.4375 58.46875 191.660156 62.6875 191.660156 67.894531 C 191.660156 73.105469 187.4375 77.320312 182.230469 77.320312" fill="#bcd4f0"/></g><g><path d="M 190.914062 60.386719 C 189.046875 60.386719 187.53125 58.871094 187.53125 57.007812 C 187.53125 55.140625 189.046875 53.628906 190.914062 53.628906 C 192.777344 53.628906 194.289062 55.140625 194.289062 57.007812 C 194.289062 58.871094 192.777344 60.386719 190.914062 60.386719" fill="#bcd4f0"/></g><g><path d="M 185.789062 62.257812 L 210.339844 76.429688 L 185.789062 90.605469 Z M 185.789062 62.257812" fill="#fff"/></g><g><path d="M 185.789062 62.257812 L 185.289062 63.121094 L 208.339844 76.429688 L 186.789062 88.871094 L 186.789062 62.257812 L 185.789062 62.257812 L 185.289062 63.121094 L 185.789062 62.257812 L 184.789062 62.257812 L 184.789062 90.605469 C 184.789062 90.960938 184.980469 91.292969 185.289062 91.472656 C 185.601562 91.648438 185.980469 91.648438 186.289062 91.472656 L 210.839844 77.296875 C 211.148438 77.117188 211.339844 76.785156 211.339844 76.429688 C 211.339844 76.070312 211.148438 75.742188 210.839844 75.5625 L 186.289062 61.390625 C 185.980469 61.210938 185.601562 61.210938 185.289062 61.390625 C 184.980469 61.566406 184.789062 61.898438 184.789062 62.257812 L 185.789062 62.257812" fill="#3d305e"/></g><g><path d="M 128.671875 302.230469 C 128.671875 317.957031 115.925781 330.703125 100.195312 330.703125 C 84.472656 330.703125 71.726562 317.957031 71.726562 302.230469 C 71.726562 286.507812 84.472656 273.761719 100.195312 273.761719 C 115.925781 273.761719 128.671875 286.507812 128.671875 302.230469" fill="#f36496"/></g><g><path d="M 128.671875 302.230469 L 127.671875 302.230469 C 127.671875 309.820312 124.597656 316.683594 119.625 321.65625 C 114.648438 326.628906 107.789062 329.703125 100.195312 329.703125 C 92.609375 329.703125 85.746094 326.628906 80.773438 321.65625 C 75.800781 316.683594 72.726562 309.820312 72.726562 302.230469 C 72.726562 294.640625 75.800781 287.78125 80.773438 282.804688 C 85.746094 277.832031 92.609375 274.761719 100.195312 274.761719 C 107.789062 274.761719 114.648438 277.832031 119.625 282.804688 C 124.597656 287.78125 127.671875 294.640625 127.671875 302.230469 L 129.671875 302.230469 C 129.671875 285.953125 116.476562 272.761719 100.195312 272.757812 C 83.921875 272.761719 70.726562 285.953125 70.726562 302.230469 C 70.726562 318.511719 83.921875 331.703125 100.195312 331.703125 C 116.476562 331.703125 129.671875 318.511719 129.671875 302.230469 L 128.671875 302.230469" fill="#3d305e"/></g><g><path d="M 122.097656 302.230469 C 122.097656 317.957031 109.347656 330.703125 93.621094 330.703125 C 77.898438 330.703125 65.152344 317.957031 65.152344 302.230469 C 65.152344 286.507812 77.898438 273.761719 93.621094 273.761719 C 109.347656 273.761719 122.097656 286.507812 122.097656 302.230469" fill="#f36496"/></g><g><path d="M 122.097656 302.230469 L 121.09375 302.230469 C 121.09375 309.820312 118.023438 316.683594 113.050781 321.65625 C 108.074219 326.628906 101.210938 329.703125 93.621094 329.703125 C 86.035156 329.703125 79.171875 326.628906 74.199219 321.65625 C 69.226562 316.683594 66.152344 309.820312 66.152344 302.230469 C 66.152344 294.640625 69.226562 287.78125 74.199219 282.804688 C 79.171875 277.832031 86.035156 274.761719 93.621094 274.761719 C 101.210938 274.761719 108.074219 277.832031 113.050781 282.804688 C 118.023438 287.78125 121.09375 294.640625 121.09375 302.230469 L 123.097656 302.230469 C 123.09375 285.953125 109.898438 272.761719 93.621094 272.757812 C 77.34375 272.761719 64.152344 285.953125 64.152344 302.230469 C 64.152344 318.511719 77.34375 331.703125 93.621094 331.703125 C 109.898438 331.703125 123.09375 318.511719 123.097656 302.230469 L 122.097656 302.230469" fill="#3d305e"/></g><g><path d="M 93.621094 329.703125 C 86.035156 329.703125 79.171875 326.628906 74.199219 321.65625 C 73.796875 321.257812 73.410156 320.847656 73.039062 320.421875 C 76.664062 322.101562 80.699219 323.039062 84.957031 323.039062 C 100.683594 323.039062 113.429688 310.289062 113.429688 294.566406 C 113.429688 289.066406 111.871094 283.929688 109.167969 279.578125 C 110.558594 280.535156 111.859375 281.613281 113.050781 282.804688 C 118.023438 287.78125 121.09375 294.640625 121.09375 302.230469 C 121.09375 309.820312 118.023438 316.683594 113.050781 321.65625 C 108.074219 326.628906 101.210938 329.703125 93.621094 329.703125" fill="#d45781"/></g><g><path d="M 93.621094 330.703125 C 84.289062 330.703125 76.003906 326.214844 70.808594 319.269531 C 71.535156 319.6875 72.277344 320.070312 73.039062 320.421875 C 73.410156 320.847656 73.796875 321.257812 74.199219 321.65625 C 79.171875 326.628906 86.035156 329.703125 93.621094 329.703125 C 101.210938 329.703125 108.074219 326.628906 113.050781 321.65625 C 118.023438 316.683594 121.09375 309.820312 121.09375 302.230469 C 121.09375 294.640625 118.023438 287.78125 113.050781 282.804688 C 111.859375 281.613281 110.558594 280.535156 109.167969 279.578125 C 108.730469 278.871094 108.265625 278.1875 107.769531 277.527344 C 116.324219 282.4375 122.097656 291.65625 122.097656 302.230469 C 122.097656 317.957031 109.347656 330.703125 93.621094 330.703125" fill="#342950"/></g><g><path d="M 81.335938 303.140625 C 76.027344 303.140625 71.726562 298.84375 71.726562 293.535156 C 71.726562 288.226562 76.027344 283.929688 81.335938 283.929688 C 86.636719 283.929688 90.941406 288.226562 90.941406 293.535156 C 90.941406 298.84375 86.636719 303.140625 81.335938 303.140625" fill="#f9b0c5"/></g><g><path d="M 90.179688 285.878906 C 88.277344 285.878906 86.734375 284.339844 86.734375 282.433594 C 86.734375 280.53125 88.277344 278.992188 90.179688 278.992188 C 92.082031 278.992188 93.621094 280.53125 93.621094 282.433594 C 93.621094 284.339844 92.082031 285.878906 90.179688 285.878906" fill="#f9b0c5"/></g><g><path d="M 93.621094 302.480469 C 85.507812 302.480469 78.925781 309.0625 78.925781 317.175781 L 108.316406 317.175781 C 108.316406 309.0625 101.738281 302.480469 93.621094 302.480469" fill="#fff"/></g><g><path d="M 93.621094 302.480469 L 93.621094 301.480469 C 84.953125 301.480469 77.929688 308.507812 77.925781 317.175781 C 77.925781 317.441406 78.03125 317.695312 78.21875 317.882812 C 78.410156 318.070312 78.660156 318.175781 78.925781 318.175781 L 108.316406 318.175781 C 108.582031 318.175781 108.835938 318.070312 109.023438 317.882812 C 109.210938 317.695312 109.316406 317.441406 109.316406 317.175781 C 109.316406 308.507812 102.289062 301.480469 93.621094 301.480469 L 93.621094 303.480469 C 97.40625 303.480469 100.824219 305.011719 103.304688 307.492188 C 105.785156 309.972656 107.316406 313.390625 107.316406 317.175781 L 108.316406 317.175781 L 108.316406 316.175781 L 78.925781 316.175781 L 78.925781 317.175781 L 79.925781 317.175781 C 79.929688 313.390625 81.460938 309.972656 83.9375 307.492188 C 86.421875 305.011719 89.839844 303.480469 93.621094 303.480469 L 93.621094 302.480469" fill="#3d305e"/></g><g><path d="M 104.117188 294.085938 C 104.117188 299.882812 99.417969 304.578125 93.625 304.578125 C 87.828125 304.578125 83.128906 299.882812 83.128906 294.085938 C 83.128906 288.285156 87.828125 283.589844 93.625 283.589844 C 99.417969 283.589844 104.117188 288.285156 104.117188 294.085938" fill="#fff"/></g><g><path d="M 104.117188 294.085938 L 103.117188 294.085938 C 103.117188 296.710938 102.058594 299.078125 100.339844 300.800781 C 98.617188 302.519531 96.25 303.578125 93.625 303.578125 C 91 303.578125 88.628906 302.519531 86.90625 300.800781 C 85.1875 299.078125 84.128906 296.710938 84.128906 294.085938 C 84.128906 291.460938 85.1875 289.089844 86.910156 287.367188 C 88.628906 285.648438 91 284.589844 93.625 284.589844 C 96.25 284.589844 98.617188 285.648438 100.339844 287.367188 C 102.058594 289.089844 103.117188 291.460938 103.117188 294.085938 L 105.117188 294.085938 C 105.117188 287.734375 99.972656 282.589844 93.625 282.589844 C 87.273438 282.589844 82.128906 287.734375 82.125 294.085938 C 82.128906 300.433594 87.273438 305.578125 93.625 305.578125 C 99.972656 305.578125 105.117188 300.433594 105.117188 294.085938 L 104.117188 294.085938" fill="#3d305e"/></g><g><path d="M 260.144531 148.945312 C 260.144531 142.105469 254.597656 136.558594 247.753906 136.558594 L 142.289062 136.558594 C 135.449219 136.558594 129.902344 142.105469 129.902344 148.945312 L 129.902344 364.132812 C 129.902344 370.972656 135.449219 376.523438 142.289062 376.523438 L 247.753906 376.523438 C 254.597656 376.523438 260.144531 370.972656 260.144531 364.132812 L 260.144531 148.945312" fill="#3c71c1"/></g><g><path d="M 260.144531 148.945312 L 261.144531 148.945312 C 261.144531 141.550781 255.148438 135.558594 247.753906 135.554688 L 142.289062 135.554688 C 134.894531 135.558594 128.90625 141.550781 128.902344 148.945312 L 128.902344 364.132812 C 128.90625 371.523438 134.894531 377.523438 142.289062 377.523438 L 247.753906 377.523438 C 255.148438 377.523438 261.144531 371.523438 261.144531 364.132812 L 261.144531 148.945312 L 259.144531 148.945312 L 259.144531 364.132812 C 259.144531 367.277344 257.871094 370.121094 255.808594 372.1875 C 253.742188 374.25 250.902344 375.523438 247.753906 375.523438 L 142.289062 375.523438 C 139.144531 375.523438 136.304688 374.25 134.238281 372.1875 C 132.175781 370.121094 130.90625 367.277344 130.902344 364.132812 L 130.902344 148.945312 C 130.90625 145.796875 132.175781 142.957031 134.238281 140.890625 C 136.304688 138.828125 139.144531 137.558594 142.289062 137.558594 L 247.753906 137.558594 C 250.902344 137.558594 253.742188 138.828125 255.808594 140.894531 C 257.871094 142.957031 259.144531 145.796875 259.144531 148.945312 L 260.144531 148.945312" fill="#3d305e"/></g><g><path d="M 168.65625 369.527344 L 221.390625 369.527344 C 221.941406 369.527344 222.390625 369.082031 222.390625 368.527344 C 222.390625 367.976562 221.941406 367.527344 221.390625 367.527344 L 168.65625 367.527344 C 168.105469 367.527344 167.65625 367.976562 167.65625 368.527344 C 167.65625 369.082031 168.105469 369.527344 168.65625 369.527344" fill="#3d305e"/></g><g><path d="M 129.902344 359.09375 L 260.144531 359.09375 L 260.144531 154.054688 L 129.902344 154.054688 Z M 129.902344 359.09375" fill="#afd5f2"/></g><g><path d="M 260.144531 154.054688 L 259.144531 154.054688 L 259.144531 358.089844 L 130.902344 358.089844 L 130.902344 155.054688 L 260.144531 155.054688 L 260.144531 154.054688 L 259.144531 154.054688 L 260.144531 154.054688 L 260.144531 153.050781 L 129.902344 153.050781 C 129.640625 153.050781 129.382812 153.160156 129.195312 153.34375 C 129.011719 153.53125 128.902344 153.789062 128.902344 154.054688 L 128.902344 359.09375 C 128.902344 359.355469 129.011719 359.613281 129.195312 359.796875 C 129.382812 359.984375 129.640625 360.09375 129.902344 360.09375 L 260.144531 360.09375 C 260.40625 360.09375 260.664062 359.984375 260.851562 359.796875 C 261.039062 359.613281 261.144531 359.355469 261.144531 359.09375 L 261.144531 154.054688 C 261.144531 153.789062 261.039062 153.53125 260.851562 153.347656 C 260.664062 153.160156 260.40625 153.050781 260.144531 153.050781 L 260.144531 154.054688" fill="#3d305e"/></g><g><path d="M 247.753906 375.523438 L 142.289062 375.523438 C 139.144531 375.523438 136.304688 374.25 134.238281 372.1875 C 132.175781 370.121094 130.90625 367.277344 130.902344 364.132812 L 130.902344 362.480469 L 132.347656 360.09375 L 259.144531 360.09375 L 259.144531 364.132812 C 259.144531 367.277344 257.871094 370.121094 255.808594 372.1875 C 253.742188 374.25 250.902344 375.523438 247.753906 375.523438 M 168.65625 367.527344 C 168.105469 367.527344 167.65625 367.976562 167.65625 368.527344 C 167.65625 369.082031 168.105469 369.527344 168.65625 369.527344 L 221.390625 369.527344 C 221.941406 369.527344 222.390625 369.082031 222.390625 368.527344 C 222.390625 367.976562 221.941406 367.527344 221.390625 367.527344 L 168.65625 367.527344 M 259.144531 153.050781 L 257.660156 153.050781 L 259.144531 150.597656 L 259.144531 153.050781" fill="#3462a7"/></g><g><path d="M 247.753906 376.523438 L 142.289062 376.523438 C 135.449219 376.523438 129.902344 370.972656 129.902344 364.132812 L 130.902344 362.480469 L 130.902344 364.132812 C 130.90625 367.277344 132.175781 370.121094 134.238281 372.1875 C 136.304688 374.25 139.144531 375.523438 142.289062 375.523438 L 247.753906 375.523438 C 250.902344 375.523438 253.742188 374.25 255.808594 372.1875 C 257.871094 370.121094 259.144531 367.277344 259.144531 364.132812 L 259.144531 360.09375 L 260.144531 360.09375 L 260.144531 364.132812 C 260.144531 370.972656 254.597656 376.523438 247.753906 376.523438 M 260.144531 154.054688 L 260.144531 153.050781 L 259.144531 153.050781 L 259.144531 150.597656 L 260.144531 148.945312 L 260.144531 154.054688" fill="#342950"/></g><g><path d="M 221.390625 369.527344 L 168.65625 369.527344 C 168.105469 369.527344 167.65625 369.082031 167.65625 368.527344 C 167.65625 367.976562 168.105469 367.527344 168.65625 367.527344 L 221.390625 367.527344 C 221.941406 367.527344 222.390625 367.976562 222.390625 368.527344 C 222.390625 369.082031 221.941406 369.527344 221.390625 369.527344" fill="#342950"/></g><g><path d="M 259.144531 358.089844 L 133.558594 358.089844 L 208.359375 234.503906 C 208.359375 234.523438 208.359375 234.546875 208.359375 234.566406 L 208.359375 256.511719 C 208.359375 256.777344 208.464844 257.03125 208.652344 257.21875 C 208.839844 257.40625 209.09375 257.511719 209.359375 257.511719 L 243.78125 257.511719 C 243.925781 257.660156 244.117188 257.765625 244.328125 257.800781 L 250.710938 258.925781 C 250.769531 258.933594 250.824219 258.9375 250.882812 258.9375 C 251.023438 258.9375 251.164062 258.910156 251.292969 258.851562 L 254.28125 257.511719 L 259.144531 257.511719 L 259.144531 358.089844 M 208.839844 233.710938 L 256.449219 155.054688 L 259.144531 155.054688 L 259.144531 233.566406 L 209.359375 233.566406 C 209.175781 233.566406 208.996094 233.617188 208.839844 233.710938" fill="#99b9d2"/></g><g><path d="M 260.144531 360.09375 L 132.347656 360.09375 L 133.558594 358.089844 L 259.144531 358.089844 L 259.144531 257.511719 L 260.144531 257.511719 L 260.144531 360.09375 M 260.144531 233.566406 L 259.144531 233.566406 L 259.144531 155.054688 L 256.449219 155.054688 L 257.660156 153.050781 L 260.144531 153.050781 L 260.144531 154.054688 L 260.144531 153.050781 L 260.144531 233.566406" fill="#342950"/></g><g><path d="M 231.714844 148.945312 L 231.714844 147.945312 L 159.332031 147.945312 L 159.332031 145.460938 L 230.714844 145.460938 L 230.714844 148.945312 L 231.714844 148.945312 L 231.714844 147.945312 L 231.714844 148.945312 L 232.714844 148.945312 L 232.714844 144.460938 C 232.714844 144.195312 232.605469 143.9375 232.421875 143.753906 C 232.234375 143.566406 231.976562 143.460938 231.714844 143.460938 L 158.332031 143.460938 C 158.070312 143.460938 157.8125 143.566406 157.625 143.753906 C 157.4375 143.9375 157.332031 144.195312 157.332031 144.460938 L 157.332031 148.945312 C 157.332031 149.210938 157.4375 149.46875 157.625 149.652344 C 157.8125 149.839844 158.070312 149.945312 158.332031 149.945312 L 231.714844 149.945312 C 231.980469 149.945312 232.230469 149.84375 232.421875 149.652344 C 232.609375 149.464844 232.714844 149.214844 232.714844 148.945312 L 231.714844 148.945312" fill="#3d305e"/></g><g><path d="M 130.9375 320.164062 L 130.9375 309.539062 L 225.398438 155.417969 L 233.960938 155.417969 L 130.9375 320.164062" fill="#d7eaf9"/></g><g><path d="M 130.9375 288.988281 L 130.9375 250.394531 L 190.972656 155.417969 L 214.464844 155.417969 L 130.9375 288.988281" fill="#d7eaf9"/></g><g><path d="M 131.253906 238.710938 L 131.253906 229.433594 L 177.148438 155.054688 L 183.566406 155.054688 L 131.253906 238.710938" fill="#d7eaf9"/></g><g><path d="M 183.566406 155.054688 L 177.148438 155.054688 L 177.316406 154.78125 L 183.734375 154.78125 L 183.566406 155.054688" fill="#8b7899"/></g><g><path d="M 123.351562 196.132812 C 123.351562 201.488281 119.007812 205.835938 113.648438 205.835938 C 108.289062 205.835938 103.941406 201.488281 103.941406 196.132812 C 103.941406 190.769531 108.289062 186.425781 113.648438 186.425781 C 119.007812 186.425781 123.351562 190.769531 123.351562 196.132812" fill="#fbc6af"/></g><g><path d="M 123.351562 196.132812 L 122.351562 196.132812 C 122.351562 198.535156 121.378906 200.707031 119.800781 202.285156 C 118.222656 203.859375 116.054688 204.832031 113.648438 204.835938 C 111.242188 204.835938 109.070312 203.859375 107.492188 202.285156 C 105.914062 200.707031 104.945312 198.535156 104.941406 196.132812 C 104.945312 193.722656 105.914062 191.554688 107.492188 189.976562 C 109.070312 188.398438 111.242188 187.425781 113.648438 187.425781 C 116.054688 187.425781 118.222656 188.398438 119.800781 189.976562 C 121.378906 191.554688 122.351562 193.722656 122.351562 196.132812 L 124.351562 196.132812 C 124.351562 190.21875 119.558594 185.425781 113.648438 185.425781 C 107.734375 185.425781 102.945312 190.21875 102.941406 196.132812 C 102.945312 202.039062 107.734375 206.832031 113.648438 206.835938 C 119.558594 206.832031 124.351562 202.039062 124.351562 196.132812 L 123.351562 196.132812" fill="#3d305e"/></g><g><path d="M 121.644531 199.570312 L 105.648438 199.570312 C 105.359375 198.894531 105.148438 198.171875 105.035156 197.414062 L 122.257812 197.414062 C 122.144531 198.171875 121.9375 198.894531 121.644531 199.570312" fill="#dbac98"/></g><g><path d="M 122.714844 199.570312 L 121.644531 199.570312 C 121.9375 198.894531 122.144531 198.171875 122.257812 197.414062 L 123.265625 197.414062 C 123.160156 198.164062 122.972656 198.886719 122.714844 199.570312 M 105.648438 199.570312 L 104.585938 199.570312 C 104.324219 198.886719 104.136719 198.164062 104.03125 197.414062 L 105.035156 197.414062 C 105.148438 198.171875 105.359375 198.894531 105.648438 199.570312" fill="#342950"/></g><g><path d="M 139.554688 150.460938 C 145.171875 144.257812 148.59375 136.027344 148.59375 127.007812 C 148.59375 107.707031 132.945312 92.0625 113.648438 92.0625 C 94.347656 92.0625 78.703125 107.707031 78.703125 127.007812 C 78.703125 136.03125 82.125 144.257812 87.742188 150.460938 C 92.824219 158.148438 94.660156 165.351562 95.242188 170.515625 L 95.242188 178.402344 L 132.050781 178.402344 L 132.050781 170.515625 C 132.636719 165.351562 134.472656 158.148438 139.554688 150.460938" fill="#f78e3d"/></g><g><path d="M 139.554688 150.460938 L 140.292969 151.128906 C 146.070312 144.753906 149.59375 136.285156 149.59375 127.007812 C 149.59375 107.152344 133.496094 91.0625 113.648438 91.058594 C 93.792969 91.0625 77.703125 107.152344 77.703125 127.007812 C 77.703125 136.285156 81.222656 144.753906 87 151.132812 L 87.742188 150.460938 L 86.90625 151.011719 C 91.890625 158.550781 93.679688 165.589844 94.25 170.628906 L 95.242188 170.515625 L 94.242188 170.515625 L 94.242188 178.402344 C 94.242188 178.664062 94.351562 178.921875 94.535156 179.109375 C 94.722656 179.296875 94.980469 179.402344 95.242188 179.402344 L 132.050781 179.402344 C 132.316406 179.402344 132.570312 179.296875 132.757812 179.109375 C 132.945312 178.921875 133.050781 178.667969 133.050781 178.402344 L 133.050781 170.515625 L 132.050781 170.515625 L 133.042969 170.628906 C 133.613281 165.589844 135.40625 158.550781 140.386719 151.011719 L 139.554688 150.460938 L 140.292969 151.128906 L 139.554688 150.460938 L 138.71875 149.90625 C 133.539062 157.746094 131.65625 165.109375 131.058594 170.402344 L 131.050781 170.515625 L 131.050781 177.402344 L 96.242188 177.402344 L 96.242188 170.515625 L 96.238281 170.402344 C 95.640625 165.109375 93.753906 157.746094 88.578125 149.910156 L 88.484375 149.789062 C 83.027344 143.761719 79.703125 135.777344 79.703125 127.007812 C 79.703125 117.628906 83.5 109.148438 89.644531 103.003906 C 95.789062 96.859375 104.269531 93.0625 113.648438 93.0625 C 123.023438 93.0625 131.503906 96.859375 137.648438 103.003906 C 143.796875 109.148438 147.59375 117.628906 147.59375 127.007812 C 147.59375 135.773438 144.269531 143.761719 138.8125 149.789062 L 138.71875 149.90625 L 139.554688 150.460938" fill="#3d305e"/></g><g><path d="M 94.695312 196.414062 L 132.601562 196.414062 L 132.601562 178.402344 L 94.695312 178.402344 Z M 94.695312 196.414062" fill="#fbc6af"/></g><g><path d="M 132.601562 196.414062 L 132.601562 195.414062 L 95.695312 195.414062 L 95.695312 179.402344 L 131.601562 179.402344 L 131.601562 196.414062 L 132.601562 196.414062 L 132.601562 195.414062 L 132.601562 196.414062 L 133.601562 196.414062 L 133.601562 178.402344 C 133.601562 178.140625 133.496094 177.882812 133.308594 177.695312 C 133.121094 177.507812 132.863281 177.402344 132.601562 177.402344 L 94.695312 177.402344 C 94.429688 177.402344 94.171875 177.507812 93.984375 177.695312 C 93.800781 177.882812 93.691406 178.140625 93.691406 178.402344 L 93.691406 196.414062 C 93.691406 196.679688 93.800781 196.9375 93.984375 197.121094 C 94.171875 197.308594 94.429688 197.414062 94.695312 197.414062 L 132.601562 197.414062 C 132.863281 197.414062 133.121094 197.308594 133.308594 197.121094 C 133.496094 196.9375 133.601562 196.679688 133.601562 196.414062 L 132.601562 196.414062" fill="#3d305e"/></g><g><path d="M 132.601562 187.410156 L 132.386719 186.433594 L 95.691406 194.449219 L 95.691406 188.21875 L 131.601562 180.371094 L 131.601562 187.410156 L 132.601562 187.410156 L 132.386719 186.433594 L 132.601562 187.410156 L 133.601562 187.410156 L 133.601562 179.132812 C 133.601562 178.828125 133.464844 178.542969 133.230469 178.351562 C 132.992188 178.160156 132.683594 178.089844 132.386719 178.152344 L 94.480469 186.433594 C 94.019531 186.535156 93.695312 186.941406 93.695312 187.410156 L 93.695312 195.6875 C 93.695312 195.992188 93.828125 196.277344 94.066406 196.46875 C 94.300781 196.660156 94.609375 196.730469 94.90625 196.664062 L 132.816406 188.390625 C 133.273438 188.289062 133.601562 187.882812 133.601562 187.410156 L 132.601562 187.410156" fill="#3d305e"/></g><g><path d="M 112.28125 177.425781 L 99.398438 180.1875 C 98.859375 180.304688 98.515625 180.835938 98.628906 181.375 C 98.746094 181.914062 99.277344 182.257812 99.816406 182.144531 L 112.699219 179.378906 C 113.238281 179.265625 113.585938 178.730469 113.46875 178.191406 C 113.351562 177.652344 112.820312 177.308594 112.28125 177.425781" fill="#3d305e"/></g><g><path d="M 125.164062 192.675781 L 112.28125 195.4375 C 111.738281 195.554688 111.394531 196.085938 111.511719 196.625 C 111.628906 197.164062 112.160156 197.511719 112.699219 197.394531 L 125.582031 194.632812 C 126.121094 194.515625 126.46875 193.984375 126.351562 193.445312 C 126.234375 192.90625 125.703125 192.5625 125.164062 192.675781" fill="#3d305e"/></g><g><path d="M 131.050781 177.402344 L 96.242188 177.402344 L 96.242188 170.515625 L 96.238281 170.402344 C 96.074219 168.964844 95.820312 167.378906 95.425781 165.667969 C 116.324219 163.421875 132.601562 145.742188 132.601562 124.246094 C 132.601562 112.0625 127.367188 101.105469 119.035156 93.484375 C 126.25 94.636719 132.703125 98.058594 137.648438 103.003906 C 143.796875 109.148438 147.59375 117.628906 147.59375 127.007812 C 147.59375 135.773438 144.269531 143.761719 138.8125 149.789062 L 138.71875 149.90625 C 133.539062 157.746094 131.65625 165.109375 131.058594 170.402344 L 131.050781 170.515625 L 131.050781 177.402344" fill="#d77b34"/></g><g><path d="M 132.050781 177.402344 L 112.5 177.402344 C 112.496094 177.402344 112.492188 177.402344 112.492188 177.402344 C 112.488281 177.402344 112.484375 177.402344 112.480469 177.402344 L 95.242188 177.402344 L 95.242188 170.515625 C 95.082031 169.078125 94.816406 167.480469 94.417969 165.765625 C 94.757812 165.734375 95.089844 165.703125 95.425781 165.667969 C 95.820312 167.378906 96.074219 168.964844 96.238281 170.402344 L 96.242188 170.515625 L 96.242188 177.402344 L 131.050781 177.402344 L 131.050781 170.515625 L 131.058594 170.402344 C 131.65625 165.109375 133.539062 157.746094 138.71875 149.90625 L 138.8125 149.789062 C 144.269531 143.761719 147.59375 135.773438 147.59375 127.007812 C 147.59375 117.628906 143.796875 109.148438 137.648438 103.003906 C 132.703125 98.058594 126.25 94.636719 119.035156 93.484375 C 118.589844 93.078125 118.136719 92.683594 117.675781 92.296875 C 135.074219 94.296875 148.59375 109.066406 148.59375 127.007812 C 148.59375 136.027344 145.171875 144.257812 139.554688 150.460938 C 134.472656 158.148438 132.636719 165.351562 132.050781 170.515625 L 132.050781 177.402344" fill="#342950"/></g><g><path d="M 131.25 178.402344 L 113.488281 178.402344 C 113.488281 178.332031 113.484375 178.261719 113.46875 178.191406 C 113.367188 177.726562 112.957031 177.40625 112.5 177.402344 L 132.050781 177.402344 L 132.050781 178.226562 L 131.25 178.402344 M 107.722656 178.402344 L 95.242188 178.402344 L 95.242188 177.402344 L 112.480469 177.402344 C 112.414062 177.402344 112.347656 177.410156 112.28125 177.425781 L 107.722656 178.402344" fill="#342950"/></g><g><path d="M 132.050781 178.402344 L 131.25 178.402344 L 132.050781 178.226562 L 132.050781 178.402344" fill="#342950"/></g><g><path d="M 113.488281 178.402344 L 107.722656 178.402344 L 112.28125 177.425781 C 112.347656 177.410156 112.414062 177.402344 112.480469 177.402344 C 112.484375 177.402344 112.488281 177.402344 112.492188 177.402344 C 112.492188 177.402344 112.496094 177.402344 112.5 177.402344 C 112.957031 177.40625 113.367188 177.726562 113.46875 178.191406 C 113.484375 178.261719 113.488281 178.332031 113.488281 178.402344" fill="#342950"/></g><g><path d="M 95.371094 130.949219 C 89.640625 130.949219 84.992188 126.304688 84.992188 120.574219 C 84.992188 114.84375 89.640625 110.195312 95.371094 110.195312 C 101.105469 110.195312 105.753906 114.84375 105.753906 120.574219 C 105.753906 126.304688 101.105469 130.949219 95.371094 130.949219" fill="#fbc491"/></g><g><path d="M 104.929688 112.304688 C 102.871094 112.304688 101.210938 110.640625 101.210938 108.585938 C 101.210938 106.527344 102.871094 104.863281 104.929688 104.863281 C 106.980469 104.863281 108.648438 106.527344 108.648438 108.585938 C 108.648438 110.640625 106.980469 112.304688 104.929688 112.304688" fill="#fbc491"/></g><g><path d="M 354.074219 130.761719 C 354.074219 133.855469 351.566406 136.363281 348.476562 136.363281 L 279.039062 136.363281 C 275.945312 136.363281 273.441406 133.855469 273.441406 130.761719 L 273.441406 65.84375 C 273.441406 62.75 275.945312 60.242188 279.039062 60.242188 L 348.476562 60.242188 C 351.566406 60.242188 354.074219 62.75 354.074219 65.84375 L 354.074219 130.761719" fill="#fff"/></g><g><path d="M 354.074219 130.761719 L 353.074219 130.761719 C 353.074219 132.035156 352.5625 133.179688 351.726562 134.015625 C 350.894531 134.851562 349.75 135.363281 348.476562 135.363281 L 279.039062 135.363281 C 277.765625 135.363281 276.625 134.851562 275.789062 134.015625 C 274.953125 133.179688 274.441406 132.035156 274.441406 130.761719 L 274.441406 65.84375 C 274.441406 64.570312 274.953125 63.425781 275.789062 62.589844 C 276.621094 61.757812 277.765625 61.246094 279.039062 61.242188 L 348.476562 61.242188 C 349.75 61.246094 350.894531 61.757812 351.730469 62.589844 C 352.5625 63.425781 353.074219 64.570312 353.074219 65.84375 L 353.074219 130.761719 L 355.074219 130.761719 L 355.074219 65.84375 C 355.074219 62.195312 352.121094 59.246094 348.476562 59.242188 L 279.039062 59.242188 C 275.394531 59.246094 272.441406 62.199219 272.441406 65.84375 L 272.441406 130.761719 C 272.441406 134.40625 275.394531 137.363281 279.039062 137.363281 L 348.476562 137.363281 C 352.121094 137.363281 355.074219 134.40625 355.074219 130.761719 L 354.074219 130.761719" fill="#3d305e"/></g><g><path d="M 349.816406 130.761719 C 349.816406 133.855469 347.308594 136.363281 344.214844 136.363281 L 274.78125 136.363281 C 271.6875 136.363281 269.179688 133.855469 269.179688 130.761719 L 269.179688 65.84375 C 269.179688 62.75 271.6875 60.242188 274.78125 60.242188 L 344.214844 60.242188 C 347.308594 60.242188 349.816406 62.75 349.816406 65.84375 L 349.816406 130.761719" fill="#fff"/></g><g><path d="M 349.816406 130.761719 L 348.816406 130.761719 C 348.816406 132.035156 348.304688 133.179688 347.46875 134.015625 C 346.632812 134.851562 345.488281 135.363281 344.214844 135.363281 L 274.78125 135.363281 C 273.507812 135.363281 272.363281 134.851562 271.527344 134.015625 C 270.691406 133.179688 270.179688 132.035156 270.179688 130.761719 L 270.179688 65.84375 C 270.179688 64.570312 270.691406 63.425781 271.527344 62.589844 C 272.363281 61.757812 273.507812 61.246094 274.78125 61.242188 L 344.214844 61.242188 C 345.488281 61.246094 346.632812 61.757812 347.46875 62.589844 C 348.304688 63.425781 348.816406 64.570312 348.816406 65.84375 L 348.816406 130.761719 L 350.816406 130.761719 L 350.816406 65.84375 C 350.816406 62.195312 347.859375 59.246094 344.214844 59.242188 L 274.78125 59.242188 C 271.136719 59.246094 268.179688 62.195312 268.179688 65.84375 L 268.179688 130.761719 C 268.179688 134.40625 271.136719 137.363281 274.78125 137.363281 L 344.214844 137.363281 C 347.859375 137.363281 350.816406 134.40625 350.816406 130.761719 L 349.816406 130.761719" fill="#3d305e"/></g><g><path d="M 306.890625 89.675781 C 306.890625 92.765625 304.382812 95.273438 301.289062 95.273438 L 283.714844 95.273438 C 280.617188 95.273438 278.109375 92.765625 278.109375 89.675781 L 278.109375 72.097656 C 278.109375 69.003906 280.617188 66.496094 283.714844 66.496094 L 301.289062 66.496094 C 304.382812 66.496094 306.890625 69.003906 306.890625 72.097656 L 306.890625 89.675781" fill="#c42c9e"/></g><g><path d="M 306.890625 89.675781 L 305.886719 89.675781 C 305.886719 90.945312 305.375 92.089844 304.539062 92.925781 C 303.707031 93.761719 302.5625 94.273438 301.289062 94.273438 L 283.714844 94.273438 C 282.4375 94.273438 281.296875 93.761719 280.460938 92.925781 C 279.625 92.089844 279.113281 90.945312 279.109375 89.675781 L 279.109375 72.097656 C 279.113281 70.824219 279.625 69.679688 280.460938 68.84375 C 281.296875 68.007812 282.4375 67.496094 283.714844 67.496094 L 301.289062 67.496094 C 302.5625 67.496094 303.707031 68.007812 304.539062 68.84375 C 305.375 69.679688 305.886719 70.824219 305.890625 72.097656 L 305.886719 89.675781 L 307.890625 89.675781 L 307.890625 72.097656 C 307.886719 68.453125 304.9375 65.496094 301.289062 65.496094 L 283.714844 65.496094 C 280.066406 65.496094 277.113281 68.449219 277.109375 72.097656 L 277.109375 89.675781 C 277.113281 93.316406 280.066406 96.273438 283.714844 96.273438 L 301.289062 96.273438 C 304.9375 96.273438 307.886719 93.316406 307.890625 89.675781 L 306.890625 89.675781" fill="#3d305e"/></g><g><path d="M 303.585938 89.675781 C 303.585938 92.765625 301.078125 95.273438 297.984375 95.273438 L 280.40625 95.273438 C 277.316406 95.273438 274.808594 92.765625 274.808594 89.675781 L 274.808594 72.097656 C 274.808594 69.003906 277.316406 66.496094 280.40625 66.496094 L 297.984375 66.496094 C 301.078125 66.496094 303.585938 69.003906 303.585938 72.097656 L 303.585938 89.675781" fill="#c42c9e"/></g><g><path d="M 303.585938 89.675781 L 302.585938 89.675781 C 302.585938 90.945312 302.074219 92.089844 301.238281 92.925781 C 300.402344 93.761719 299.257812 94.273438 297.984375 94.273438 L 280.40625 94.273438 C 279.136719 94.273438 277.992188 93.761719 277.15625 92.925781 C 276.320312 92.089844 275.808594 90.945312 275.808594 89.675781 L 275.808594 72.097656 C 275.808594 70.824219 276.320312 69.679688 277.15625 68.84375 C 277.992188 68.007812 279.136719 67.496094 280.40625 67.496094 L 297.984375 67.496094 C 299.257812 67.496094 300.402344 68.007812 301.238281 68.84375 C 302.074219 69.679688 302.585938 70.824219 302.585938 72.097656 L 302.585938 89.675781 L 304.585938 89.675781 L 304.585938 72.097656 C 304.585938 68.453125 301.632812 65.496094 297.984375 65.496094 L 280.40625 65.496094 C 276.761719 65.496094 273.808594 68.449219 273.808594 72.097656 L 273.808594 89.675781 C 273.808594 93.316406 276.761719 96.273438 280.40625 96.273438 L 297.984375 96.273438 C 301.632812 96.273438 304.585938 93.316406 304.585938 89.675781 L 303.585938 89.675781" fill="#3d305e"/></g><g><path d="M 297.984375 94.273438 L 280.40625 94.273438 C 279.136719 94.273438 277.992188 93.761719 277.15625 92.925781 C 276.789062 92.558594 276.484375 92.132812 276.257812 91.660156 C 278.234375 92.449219 280.390625 92.886719 282.648438 92.886719 C 292.195312 92.886719 299.9375 85.144531 299.9375 75.597656 C 299.9375 72.671875 299.210938 69.914062 297.921875 67.496094 L 297.984375 67.496094 C 299.257812 67.496094 300.402344 68.007812 301.238281 68.84375 C 302.074219 69.679688 302.585938 70.824219 302.585938 72.097656 L 302.585938 89.675781 C 302.585938 90.945312 302.074219 92.089844 301.238281 92.925781 C 300.402344 93.761719 299.257812 94.273438 297.984375 94.273438" fill="#ab2687"/></g><g><path d="M 297.984375 95.273438 L 280.40625 95.273438 C 277.808594 95.273438 275.628906 93.5 275 91.101562 C 275.410156 91.304688 275.828125 91.488281 276.257812 91.660156 C 276.484375 92.132812 276.789062 92.558594 277.15625 92.925781 C 277.992188 93.761719 279.136719 94.273438 280.40625 94.273438 L 297.984375 94.273438 C 299.257812 94.273438 300.402344 93.761719 301.238281 92.925781 C 302.074219 92.089844 302.585938 90.945312 302.585938 89.675781 L 302.585938 72.097656 C 302.585938 70.824219 302.074219 69.679688 301.238281 68.84375 C 300.402344 68.007812 299.257812 67.496094 297.984375 67.496094 L 297.921875 67.496094 C 297.742188 67.15625 297.550781 66.820312 297.347656 66.496094 L 297.984375 66.496094 C 301.078125 66.496094 303.585938 69.003906 303.585938 72.097656 L 303.585938 89.675781 C 303.585938 92.765625 301.078125 95.273438 297.984375 95.273438" fill="#342950"/></g><g><path d="M 280.214844 78.226562 C 277.949219 78.226562 276.117188 76.390625 276.117188 74.121094 C 276.117188 71.859375 277.949219 70.023438 280.214844 70.023438 C 282.476562 70.023438 284.3125 71.859375 284.3125 74.121094 C 284.3125 76.390625 282.476562 78.226562 280.214844 78.226562" fill="#df90ce"/></g><g><path d="M 283.988281 70.855469 C 283.179688 70.855469 282.519531 70.195312 282.519531 69.390625 C 282.519531 68.574219 283.179688 67.917969 283.988281 67.917969 C 284.804688 67.917969 285.460938 68.574219 285.460938 69.390625 C 285.460938 70.195312 284.804688 70.855469 283.988281 70.855469" fill="#df90ce"/></g><g><path d="M 344.1875 89.675781 C 344.1875 92.765625 341.683594 95.273438 338.589844 95.273438 L 321.011719 95.273438 C 317.917969 95.273438 315.410156 92.765625 315.410156 89.675781 L 315.410156 72.097656 C 315.410156 69.003906 317.917969 66.496094 321.011719 66.496094 L 338.589844 66.496094 C 341.683594 66.496094 344.1875 69.003906 344.1875 72.097656 L 344.1875 89.675781" fill="#f36496"/></g><g><path d="M 344.1875 89.675781 L 343.1875 89.675781 C 343.1875 90.945312 342.675781 92.089844 341.839844 92.925781 C 341.003906 93.761719 339.863281 94.273438 338.589844 94.273438 L 321.011719 94.273438 C 319.738281 94.273438 318.59375 93.761719 317.757812 92.925781 C 316.925781 92.089844 316.410156 90.945312 316.410156 89.675781 L 316.410156 72.097656 C 316.414062 70.824219 316.925781 69.679688 317.757812 68.84375 C 318.59375 68.007812 319.738281 67.496094 321.011719 67.496094 L 338.589844 67.496094 C 339.863281 67.496094 341.003906 68.007812 341.839844 68.84375 C 342.675781 69.679688 343.1875 70.824219 343.1875 72.097656 L 343.1875 89.675781 L 345.1875 89.675781 L 345.1875 72.097656 C 345.1875 68.453125 342.234375 65.496094 338.589844 65.496094 L 321.011719 65.496094 C 317.363281 65.496094 314.410156 68.453125 314.410156 72.097656 L 314.410156 89.675781 C 314.414062 93.316406 317.363281 96.273438 321.011719 96.273438 L 338.589844 96.273438 C 342.234375 96.273438 345.1875 93.316406 345.1875 89.675781 L 344.1875 89.675781" fill="#3d305e"/></g><g><path d="M 340.886719 89.675781 C 340.886719 92.765625 338.378906 95.273438 335.28125 95.273438 L 317.707031 95.273438 C 314.613281 95.273438 312.105469 92.765625 312.105469 89.675781 L 312.105469 72.097656 C 312.105469 69.003906 314.613281 66.496094 317.707031 66.496094 L 335.28125 66.496094 C 338.378906 66.496094 340.886719 69.003906 340.886719 72.097656 L 340.886719 89.675781" fill="#f36496"/></g><g><path d="M 340.886719 89.675781 L 339.882812 89.675781 C 339.882812 90.945312 339.371094 92.089844 338.535156 92.925781 C 337.703125 93.761719 336.558594 94.273438 335.28125 94.273438 L 317.707031 94.273438 C 316.433594 94.273438 315.289062 93.761719 314.453125 92.925781 C 313.621094 92.089844 313.109375 90.945312 313.105469 89.675781 L 313.105469 72.097656 C 313.109375 70.824219 313.621094 69.679688 314.453125 68.84375 C 315.289062 68.007812 316.433594 67.496094 317.707031 67.496094 L 335.28125 67.496094 C 336.558594 67.496094 337.703125 68.007812 338.539062 68.84375 C 339.371094 69.679688 339.882812 70.824219 339.886719 72.097656 L 339.882812 89.675781 L 341.886719 89.675781 L 341.886719 72.097656 C 341.882812 68.453125 338.929688 65.496094 335.28125 65.496094 L 317.707031 65.496094 C 314.058594 65.496094 311.109375 68.453125 311.105469 72.097656 L 311.105469 89.675781 C 311.109375 93.316406 314.058594 96.273438 317.707031 96.273438 L 335.28125 96.273438 C 338.933594 96.273438 341.882812 93.316406 341.886719 89.675781 L 340.886719 89.675781" fill="#3d305e"/></g><g><path d="M 335.28125 94.273438 L 317.707031 94.273438 C 316.433594 94.273438 315.289062 93.761719 314.453125 92.925781 C 314.089844 92.558594 313.78125 92.132812 313.558594 91.660156 C 315.535156 92.449219 317.691406 92.886719 319.949219 92.886719 C 329.496094 92.886719 337.234375 85.144531 337.234375 75.597656 C 337.234375 72.671875 336.507812 69.914062 335.222656 67.496094 L 335.28125 67.496094 C 336.558594 67.496094 337.703125 68.007812 338.539062 68.84375 C 339.371094 69.679688 339.882812 70.824219 339.886719 72.097656 L 339.882812 89.675781 C 339.882812 90.945312 339.371094 92.089844 338.535156 92.925781 C 337.703125 93.761719 336.558594 94.273438 335.28125 94.273438" fill="#d45781"/></g><g><path d="M 335.28125 95.273438 L 317.707031 95.273438 C 315.105469 95.273438 312.929688 93.5 312.300781 91.101562 C 312.710938 91.304688 313.128906 91.488281 313.558594 91.660156 C 313.78125 92.132812 314.089844 92.558594 314.453125 92.925781 C 315.289062 93.761719 316.433594 94.273438 317.707031 94.273438 L 335.28125 94.273438 C 336.558594 94.273438 337.703125 93.761719 338.535156 92.925781 C 339.371094 92.089844 339.882812 90.945312 339.882812 89.675781 L 339.886719 72.097656 C 339.882812 70.824219 339.371094 69.679688 338.539062 68.84375 C 337.703125 68.007812 336.558594 67.496094 335.28125 67.496094 L 335.222656 67.496094 C 335.039062 67.15625 334.847656 66.820312 334.644531 66.496094 L 335.28125 66.496094 C 338.378906 66.496094 340.886719 69.003906 340.886719 72.097656 L 340.886719 89.675781 C 340.886719 92.765625 338.378906 95.273438 335.28125 95.273438" fill="#342950"/></g><g><path d="M 317.511719 78.226562 C 315.246094 78.226562 313.410156 76.390625 313.410156 74.121094 C 313.410156 71.859375 315.246094 70.023438 317.511719 70.023438 C 319.777344 70.023438 321.613281 71.859375 321.613281 74.121094 C 321.613281 76.390625 319.777344 78.226562 317.511719 78.226562" fill="#f9b0c5"/></g><g><path d="M 321.289062 70.855469 C 320.480469 70.855469 319.816406 70.195312 319.816406 69.390625 C 319.816406 68.574219 320.480469 67.917969 321.289062 67.917969 C 322.101562 67.917969 322.761719 68.574219 322.761719 69.390625 C 322.761719 70.195312 322.101562 70.855469 321.289062 70.855469" fill="#f9b0c5"/></g><g><path d="M 306.890625 124.507812 C 306.890625 127.601562 304.382812 130.105469 301.289062 130.105469 L 283.714844 130.105469 C 280.617188 130.105469 278.109375 127.601562 278.109375 124.507812 L 278.109375 106.929688 C 278.109375 103.835938 280.617188 101.328125 283.714844 101.328125 L 301.289062 101.328125 C 304.382812 101.328125 306.890625 103.835938 306.890625 106.929688 L 306.890625 124.507812" fill="#7cafe2"/></g><g><path d="M 306.890625 124.507812 L 305.890625 124.507812 C 305.886719 125.78125 305.375 126.921875 304.542969 127.757812 C 303.707031 128.59375 302.5625 129.105469 301.289062 129.105469 L 283.714844 129.105469 C 282.4375 129.105469 281.292969 128.59375 280.460938 127.757812 C 279.625 126.921875 279.113281 125.78125 279.109375 124.507812 L 279.109375 106.929688 C 279.113281 105.65625 279.625 104.511719 280.460938 103.675781 C 281.296875 102.84375 282.4375 102.328125 283.714844 102.328125 L 301.289062 102.328125 C 302.5625 102.328125 303.707031 102.839844 304.539062 103.675781 C 305.375 104.511719 305.886719 105.65625 305.890625 106.929688 L 305.886719 124.507812 L 307.890625 124.507812 L 307.890625 106.929688 C 307.886719 103.285156 304.9375 100.328125 301.289062 100.328125 L 283.714844 100.328125 C 280.066406 100.328125 277.113281 103.28125 277.109375 106.929688 L 277.109375 124.507812 C 277.113281 128.152344 280.066406 131.105469 283.714844 131.105469 L 301.289062 131.105469 C 304.933594 131.105469 307.886719 128.152344 307.886719 124.507812 L 306.890625 124.507812" fill="#3d305e"/></g><g><path d="M 303.585938 124.507812 C 303.585938 127.601562 301.078125 130.105469 297.984375 130.105469 L 280.40625 130.105469 C 277.316406 130.105469 274.808594 127.601562 274.808594 124.507812 L 274.808594 106.929688 C 274.808594 103.835938 277.316406 101.328125 280.40625 101.328125 L 297.984375 101.328125 C 301.078125 101.328125 303.585938 103.835938 303.585938 106.929688 L 303.585938 124.507812" fill="#7cafe2"/></g><g><path d="M 303.585938 124.507812 L 302.585938 124.507812 C 302.585938 125.78125 302.074219 126.921875 301.238281 127.757812 C 300.402344 128.59375 299.261719 129.105469 297.984375 129.105469 L 280.40625 129.105469 C 279.136719 129.105469 277.992188 128.59375 277.15625 127.757812 C 276.320312 126.921875 275.808594 125.78125 275.808594 124.507812 L 275.808594 106.929688 C 275.808594 105.65625 276.320312 104.511719 277.15625 103.675781 C 277.992188 102.839844 279.136719 102.328125 280.40625 102.328125 L 297.984375 102.328125 C 299.257812 102.328125 300.402344 102.84375 301.238281 103.675781 C 302.074219 104.511719 302.585938 105.65625 302.585938 106.929688 L 302.585938 124.507812 L 304.585938 124.507812 L 304.585938 106.929688 C 304.585938 103.285156 301.632812 100.328125 297.984375 100.328125 L 280.40625 100.328125 C 276.761719 100.328125 273.808594 103.28125 273.808594 106.929688 L 273.808594 124.507812 C 273.808594 128.152344 276.765625 131.105469 280.40625 131.105469 L 297.984375 131.105469 C 301.632812 131.105469 304.585938 128.152344 304.585938 124.507812 L 303.585938 124.507812" fill="#3d305e"/></g><g><path d="M 297.984375 129.105469 L 280.40625 129.105469 C 279.136719 129.105469 277.992188 128.59375 277.15625 127.757812 C 276.789062 127.390625 276.484375 126.964844 276.257812 126.492188 C 278.234375 127.28125 280.390625 127.71875 282.648438 127.71875 C 292.195312 127.71875 299.9375 119.976562 299.9375 110.429688 C 299.9375 107.503906 299.210938 104.746094 297.921875 102.328125 L 297.984375 102.328125 C 299.257812 102.328125 300.402344 102.84375 301.238281 103.675781 C 302.074219 104.511719 302.585938 105.65625 302.585938 106.929688 L 302.585938 124.507812 C 302.585938 125.78125 302.074219 126.921875 301.238281 127.757812 C 300.402344 128.59375 299.261719 129.105469 297.984375 129.105469" fill="#6c97c4"/></g><g><path d="M 297.984375 130.105469 L 280.40625 130.105469 C 277.808594 130.105469 275.628906 128.332031 275 125.929688 C 275.410156 126.132812 275.828125 126.320312 276.257812 126.492188 C 276.484375 126.964844 276.789062 127.390625 277.15625 127.757812 C 277.992188 128.59375 279.136719 129.105469 280.40625 129.105469 L 297.984375 129.105469 C 299.261719 129.105469 300.402344 128.59375 301.238281 127.757812 C 302.074219 126.921875 302.585938 125.78125 302.585938 124.507812 L 302.585938 106.929688 C 302.585938 105.65625 302.074219 104.511719 301.238281 103.675781 C 300.402344 102.84375 299.257812 102.328125 297.984375 102.328125 L 297.921875 102.328125 C 297.742188 101.988281 297.550781 101.652344 297.347656 101.328125 L 297.984375 101.328125 C 301.078125 101.328125 303.585938 103.835938 303.585938 106.929688 L 303.585938 124.507812 C 303.585938 127.601562 301.078125 130.105469 297.984375 130.105469" fill="#342950"/></g><g><path d="M 280.214844 113.058594 C 277.949219 113.058594 276.117188 111.222656 276.117188 108.957031 C 276.117188 106.691406 277.949219 104.855469 280.214844 104.855469 C 282.476562 104.855469 284.3125 106.691406 284.3125 108.957031 C 284.3125 111.222656 282.476562 113.058594 280.214844 113.058594" fill="#bcd4f0"/></g><g><path d="M 283.988281 105.6875 C 283.179688 105.6875 282.519531 105.027344 282.519531 104.21875 C 282.519531 103.40625 283.179688 102.75 283.988281 102.75 C 284.804688 102.75 285.460938 103.40625 285.460938 104.21875 C 285.460938 105.027344 284.804688 105.6875 283.988281 105.6875" fill="#bcd4f0"/></g><g><path d="M 344.1875 124.507812 C 344.1875 127.601562 341.683594 130.105469 338.589844 130.105469 L 321.011719 130.105469 C 317.917969 130.105469 315.410156 127.601562 315.410156 124.507812 L 315.410156 106.929688 C 315.410156 103.835938 317.917969 101.328125 321.011719 101.328125 L 338.589844 101.328125 C 341.683594 101.328125 344.1875 103.835938 344.1875 106.929688 L 344.1875 124.507812" fill="#3c71c1"/></g><g><path d="M 344.1875 124.507812 L 343.1875 124.507812 C 343.1875 125.78125 342.675781 126.921875 341.839844 127.757812 C 341.003906 128.59375 339.863281 129.105469 338.589844 129.105469 L 321.011719 129.105469 C 319.738281 129.105469 318.59375 128.59375 317.757812 127.757812 C 316.925781 126.921875 316.414062 125.78125 316.410156 124.507812 L 316.410156 106.929688 C 316.414062 105.65625 316.925781 104.511719 317.757812 103.675781 C 318.59375 102.839844 319.738281 102.328125 321.011719 102.328125 L 338.589844 102.328125 C 339.863281 102.328125 341.003906 102.839844 341.839844 103.675781 C 342.675781 104.511719 343.1875 105.65625 343.1875 106.929688 L 343.1875 124.507812 L 345.1875 124.507812 L 345.1875 106.929688 C 345.1875 103.285156 342.234375 100.328125 338.589844 100.328125 L 321.011719 100.328125 C 317.363281 100.328125 314.410156 103.285156 314.410156 106.929688 L 314.410156 124.507812 C 314.410156 128.152344 317.363281 131.105469 321.011719 131.105469 L 338.589844 131.105469 C 342.234375 131.105469 345.1875 128.152344 345.1875 124.507812 L 344.1875 124.507812" fill="#3d305e"/></g><g><path d="M 340.886719 124.507812 C 340.886719 127.601562 338.378906 130.105469 335.28125 130.105469 L 317.707031 130.105469 C 314.613281 130.105469 312.105469 127.601562 312.105469 124.507812 L 312.105469 106.929688 C 312.105469 103.835938 314.613281 101.328125 317.707031 101.328125 L 335.28125 101.328125 C 338.378906 101.328125 340.886719 103.835938 340.886719 106.929688 L 340.886719 124.507812" fill="#3c71c1"/></g><g><path d="M 340.886719 124.507812 L 339.886719 124.507812 C 339.882812 125.78125 339.371094 126.921875 338.539062 127.757812 C 337.703125 128.59375 336.558594 129.105469 335.28125 129.105469 L 317.707031 129.105469 C 316.433594 129.105469 315.289062 128.59375 314.453125 127.757812 C 313.621094 126.921875 313.109375 125.78125 313.105469 124.507812 L 313.105469 106.929688 C 313.109375 105.65625 313.621094 104.511719 314.453125 103.675781 C 315.289062 102.839844 316.433594 102.328125 317.707031 102.328125 L 335.28125 102.328125 C 336.558594 102.328125 337.703125 102.84375 338.539062 103.675781 C 339.371094 104.511719 339.882812 105.65625 339.886719 106.929688 L 339.882812 124.507812 L 341.886719 124.507812 L 341.886719 106.929688 C 341.882812 103.285156 338.929688 100.328125 335.28125 100.328125 L 317.707031 100.328125 C 314.058594 100.328125 311.109375 103.285156 311.105469 106.929688 L 311.105469 124.507812 C 311.109375 128.152344 314.0625 131.105469 317.707031 131.105469 L 335.28125 131.105469 C 338.929688 131.105469 341.882812 128.152344 341.886719 124.507812 L 340.886719 124.507812" fill="#3d305e"/></g><g><path d="M 335.28125 129.105469 L 317.707031 129.105469 C 316.433594 129.105469 315.289062 128.59375 314.453125 127.757812 C 314.085938 127.390625 313.78125 126.964844 313.554688 126.492188 C 315.53125 127.28125 317.691406 127.71875 319.949219 127.71875 C 329.496094 127.71875 337.234375 119.976562 337.234375 110.429688 C 337.234375 107.503906 336.507812 104.746094 335.222656 102.328125 L 335.28125 102.328125 C 336.558594 102.328125 337.703125 102.84375 338.539062 103.675781 C 339.371094 104.511719 339.882812 105.65625 339.886719 106.929688 L 339.882812 124.507812 L 339.886719 124.507812 C 339.882812 125.78125 339.371094 126.921875 338.539062 127.757812 C 337.703125 128.59375 336.558594 129.105469 335.28125 129.105469" fill="#3462a7"/></g><g><path d="M 335.28125 130.105469 L 317.707031 130.105469 C 315.105469 130.105469 312.929688 128.332031 312.300781 125.929688 C 312.710938 126.132812 313.128906 126.320312 313.554688 126.492188 C 313.78125 126.964844 314.085938 127.390625 314.453125 127.757812 C 315.289062 128.59375 316.433594 129.105469 317.707031 129.105469 L 335.28125 129.105469 C 336.558594 129.105469 337.703125 128.59375 338.539062 127.757812 C 339.371094 126.921875 339.882812 125.78125 339.886719 124.507812 L 339.882812 124.507812 L 339.886719 106.929688 C 339.882812 105.65625 339.371094 104.511719 338.539062 103.675781 C 337.703125 102.84375 336.558594 102.328125 335.28125 102.328125 L 335.222656 102.328125 C 335.039062 101.988281 334.847656 101.652344 334.644531 101.328125 L 335.28125 101.328125 C 338.378906 101.328125 340.886719 103.835938 340.886719 106.929688 L 340.886719 124.507812 C 340.886719 127.601562 338.378906 130.105469 335.28125 130.105469" fill="#342950"/></g><g><path d="M 317.511719 113.058594 C 315.246094 113.058594 313.410156 111.222656 313.410156 108.957031 C 313.410156 106.691406 315.246094 104.855469 317.511719 104.855469 C 319.777344 104.855469 321.613281 106.691406 321.613281 108.957031 C 321.613281 111.222656 319.777344 113.058594 317.511719 113.058594" fill="#97abde"/></g><g><path d="M 321.289062 105.6875 C 320.480469 105.6875 319.816406 105.027344 319.816406 104.21875 C 319.816406 103.40625 320.480469 102.75 321.289062 102.75 C 322.101562 102.75 322.761719 103.40625 322.761719 104.21875 C 322.761719 105.027344 322.101562 105.6875 321.289062 105.6875" fill="#97abde"/></g><g><path d="M 320.128906 210.925781 C 324.519531 195.269531 313.863281 198.566406 313.863281 198.566406 L 311.628906 202.066406 C 302.28125 230.511719 326.71875 223.289062 326.71875 223.289062 C 326.71875 223.289062 317.378906 218.894531 320.128906 210.925781" fill="#3d305e"/></g><g><path d="M 315.226562 202.066406 C 315.226562 205.898438 313.613281 209.007812 311.632812 209.007812 C 309.640625 209.007812 308.03125 205.898438 308.03125 202.066406 C 308.03125 198.238281 309.640625 195.128906 311.632812 195.128906 C 313.613281 195.128906 315.226562 198.238281 315.226562 202.066406" fill="#c42c9e"/></g><g><path d="M 315.226562 202.066406 L 314.226562 202.066406 C 314.230469 203.84375 313.84375 205.441406 313.285156 206.511719 C 313.007812 207.050781 312.691406 207.449219 312.398438 207.6875 C 312.101562 207.925781 311.859375 208.003906 311.632812 208.007812 C 311.398438 208.003906 311.15625 207.925781 310.859375 207.683594 C 310.417969 207.332031 309.929688 206.605469 309.589844 205.617188 C 309.242188 204.628906 309.03125 203.398438 309.03125 202.066406 C 309.027344 200.292969 309.414062 198.695312 309.972656 197.621094 C 310.25 197.085938 310.566406 196.6875 310.859375 196.449219 C 311.160156 196.210938 311.398438 196.132812 311.632812 196.128906 C 311.859375 196.132812 312.101562 196.210938 312.398438 196.449219 C 312.839844 196.800781 313.324219 197.53125 313.667969 198.519531 C 314.015625 199.507812 314.226562 200.738281 314.226562 202.066406 L 316.226562 202.066406 C 316.222656 200.011719 315.804688 198.140625 315.0625 196.703125 C 314.6875 195.984375 314.230469 195.367188 313.660156 194.898438 C 313.101562 194.4375 312.394531 194.128906 311.632812 194.128906 C 310.867188 194.128906 310.160156 194.4375 309.597656 194.898438 C 308.746094 195.601562 308.136719 196.632812 307.699219 197.859375 C 307.273438 199.089844 307.03125 200.527344 307.03125 202.066406 C 307.035156 204.125 307.453125 205.992188 308.195312 207.433594 C 308.570312 208.152344 309.027344 208.769531 309.597656 209.234375 C 310.160156 209.699219 310.867188 210.007812 311.632812 210.007812 C 312.394531 210.007812 313.097656 209.699219 313.660156 209.234375 C 314.511719 208.535156 315.121094 207.503906 315.554688 206.277344 C 315.984375 205.046875 316.226562 203.609375 316.226562 202.066406 L 315.226562 202.066406" fill="#3d305e"/></g><g><path d="M 305.523438 221.777344 C 303.859375 217.402344 298.96875 215.203125 294.597656 216.867188 C 293.652344 217.226562 292.820312 217.738281 292.097656 218.363281 L 292.09375 218.363281 C 291.738281 218.671875 275.816406 234.925781 271.9375 240.179688 L 244.503906 256.816406 L 250.886719 257.9375 L 274.871094 247.179688 C 275.21875 247.046875 300.414062 232.78125 300.617188 232.703125 C 304.988281 231.042969 307.1875 226.148438 305.523438 221.777344" fill="#c42c9e"/></g><g><path d="M 305.523438 221.777344 L 306.460938 221.421875 C 305.019531 217.640625 301.425781 215.3125 297.605469 215.3125 C 296.484375 215.3125 295.34375 215.511719 294.238281 215.933594 C 293.183594 216.335938 292.25 216.910156 291.445312 217.605469 L 292.097656 218.363281 L 292.097656 217.363281 L 292.09375 217.363281 C 291.855469 217.363281 291.617188 217.449219 291.4375 217.609375 L 291.316406 217.726562 C 290.980469 218.050781 289.808594 219.242188 288.15625 220.945312 C 285.683594 223.496094 282.148438 227.179688 278.875 230.710938 C 275.601562 234.246094 272.601562 237.597656 271.132812 239.585938 L 271.9375 240.179688 L 271.417969 239.324219 L 243.984375 255.960938 C 243.628906 256.175781 243.441406 256.589844 243.519531 257 C 243.597656 257.410156 243.917969 257.730469 244.328125 257.800781 L 250.710938 258.925781 C 250.90625 258.960938 251.113281 258.933594 251.292969 258.851562 L 275.28125 248.09375 L 274.871094 247.179688 L 275.234375 248.113281 C 275.328125 248.074219 275.328125 248.070312 275.363281 248.054688 C 275.460938 248.003906 275.613281 247.917969 275.855469 247.785156 C 277.660156 246.789062 283.917969 243.257812 289.761719 239.960938 C 292.679688 238.3125 295.492188 236.726562 297.589844 235.546875 C 298.636719 234.957031 299.503906 234.46875 300.113281 234.125 C 300.421875 233.953125 300.660156 233.820312 300.828125 233.726562 L 301.015625 233.621094 L 301.058594 233.597656 L 301.015625 233.515625 L 301.058594 233.601562 L 301.058594 233.597656 L 301.015625 233.515625 L 301.058594 233.601562 L 300.652344 232.792969 L 300.980469 233.636719 L 301.058594 233.601562 L 300.652344 232.792969 L 300.980469 233.636719 L 300.972656 233.636719 C 304.753906 232.199219 307.082031 228.605469 307.078125 224.785156 C 307.078125 223.664062 306.878906 222.527344 306.460938 221.421875 L 305.523438 221.777344 L 304.589844 222.132812 C 304.921875 223.007812 305.078125 223.902344 305.078125 224.785156 C 305.078125 227.796875 303.246094 230.636719 300.261719 231.769531 L 300.253906 231.769531 L 300.15625 231.816406 L 300 231.898438 C 298.992188 232.453125 292.683594 236.019531 286.566406 239.46875 C 283.507812 241.191406 280.503906 242.886719 278.246094 244.15625 C 277.113281 244.792969 276.171875 245.320312 275.5 245.695312 C 275.164062 245.882812 274.898438 246.03125 274.710938 246.132812 C 274.617188 246.183594 274.546875 246.222656 274.5 246.246094 L 274.449219 246.273438 L 274.472656 246.316406 L 274.449219 246.273438 L 274.472656 246.316406 L 274.449219 246.273438 L 274.8125 247.027344 L 274.511719 246.246094 L 274.449219 246.273438 L 274.8125 247.027344 L 274.511719 246.246094 L 274.464844 246.265625 L 250.757812 256.902344 L 247.292969 256.292969 L 272.457031 241.035156 C 272.570312 240.964844 272.664062 240.878906 272.742188 240.773438 C 273.667969 239.519531 275.382812 237.519531 277.414062 235.265625 C 280.46875 231.878906 284.253906 227.882812 287.304688 224.710938 C 288.828125 223.121094 290.171875 221.738281 291.148438 220.738281 C 291.636719 220.238281 292.035156 219.835938 292.316406 219.550781 C 292.457031 219.410156 292.570312 219.296875 292.648438 219.21875 L 292.742188 219.128906 L 292.761719 219.105469 L 292.328125 218.636719 L 292.75 219.117188 L 292.761719 219.105469 L 292.328125 218.636719 L 292.75 219.117188 L 292.09375 218.363281 L 292.09375 219.363281 L 292.097656 219.363281 C 292.335938 219.363281 292.566406 219.277344 292.746094 219.121094 C 293.390625 218.570312 294.121094 218.117188 294.949219 217.804688 C 295.828125 217.46875 296.722656 217.3125 297.605469 217.3125 C 300.617188 217.3125 303.453125 219.148438 304.589844 222.132812 L 305.523438 221.777344" fill="#3d305e"/></g><g><path d="M 263.339844 249.148438 L 263.324219 251.992188 L 267.058594 250.125 L 263.339844 249.148438" fill="#fff"/></g><g><path d="M 263.339844 249.148438 L 262.339844 249.144531 L 262.324219 251.988281 C 262.324219 252.335938 262.503906 252.65625 262.800781 252.84375 C 263.09375 253.023438 263.460938 253.042969 263.773438 252.886719 L 267.507812 251.019531 C 267.878906 250.832031 268.097656 250.4375 268.054688 250.023438 C 268.011719 249.605469 267.714844 249.261719 267.3125 249.15625 L 263.59375 248.179688 C 263.289062 248.101562 262.976562 248.164062 262.730469 248.355469 C 262.480469 248.542969 262.339844 248.835938 262.339844 249.144531 L 263.339844 249.148438 L 263.085938 250.117188 L 264.238281 250.417969 L 262.878906 251.097656 L 263.324219 251.992188 L 264.324219 251.996094 L 264.339844 249.152344 L 263.339844 249.148438 L 263.085938 250.117188 L 263.339844 249.148438" fill="#231f20"/></g><g><path d="M 307.953125 215.851562 L 307.695312 204.386719 L 297.703125 204.640625 L 295.070312 215.851562 L 307.953125 215.851562" fill="#fbc6af"/></g><g><path d="M 307.953125 215.851562 L 308.953125 215.828125 L 308.695312 204.363281 C 308.691406 204.09375 308.582031 203.84375 308.386719 203.660156 C 308.195312 203.476562 307.9375 203.378906 307.671875 203.386719 L 297.679688 203.640625 C 297.222656 203.648438 296.835938 203.964844 296.730469 204.410156 L 294.097656 215.621094 C 294.027344 215.921875 294.097656 216.230469 294.289062 216.472656 C 294.480469 216.710938 294.765625 216.847656 295.070312 216.847656 L 307.953125 216.847656 C 308.226562 216.847656 308.480469 216.742188 308.671875 216.550781 C 308.859375 216.355469 308.960938 216.097656 308.953125 215.828125 L 307.953125 215.851562 L 307.953125 214.851562 L 296.335938 214.851562 L 298.503906 205.617188 L 306.71875 205.410156 L 306.953125 215.871094 L 307.953125 215.851562 L 307.953125 214.851562 L 307.953125 215.851562" fill="#3d305e"/></g><g><path d="M 314.355469 191.695312 C 314.355469 201.894531 301.597656 211.394531 293.085938 211.394531 C 284.570312 211.394531 283.769531 196.871094 284.296875 186.683594 C 284.804688 176.789062 294.511719 175.019531 303.019531 175.136719 C 312.699219 175.261719 314.355469 181.492188 314.355469 191.695312" fill="#fbc6af"/></g><g><path d="M 314.355469 191.695312 L 313.355469 191.695312 C 313.359375 194.035156 312.625 196.371094 311.363281 198.582031 C 309.472656 201.890625 306.390625 204.878906 303.023438 207.007812 C 299.65625 209.144531 296 210.402344 293.085938 210.394531 C 291.515625 210.386719 290.347656 209.855469 289.324219 208.878906 C 287.792969 207.410156 286.699219 204.800781 286.054688 201.65625 C 285.402344 198.515625 285.171875 194.871094 285.171875 191.378906 C 285.171875 189.777344 285.21875 188.210938 285.296875 186.734375 C 285.414062 184.484375 286.023438 182.761719 286.96875 181.390625 C 288.382812 179.339844 290.625 178.019531 293.347656 177.210938 C 296.066406 176.402344 299.222656 176.128906 302.285156 176.128906 C 302.527344 176.128906 302.769531 176.132812 303.003906 176.136719 L 303.007812 176.136719 C 305.324219 176.164062 307.085938 176.5625 308.425781 177.234375 C 309.433594 177.742188 310.21875 178.402344 310.859375 179.234375 C 311.816406 180.484375 312.453125 182.15625 312.839844 184.257812 C 313.226562 186.351562 313.359375 188.855469 313.355469 191.695312 L 315.355469 191.695312 C 315.355469 189.117188 315.253906 186.769531 314.9375 184.671875 C 314.695312 183.097656 314.335938 181.660156 313.792969 180.375 C 312.984375 178.449219 311.734375 176.851562 309.941406 175.785156 C 308.148438 174.714844 305.871094 174.171875 303.035156 174.136719 C 302.785156 174.132812 302.535156 174.128906 302.285156 174.128906 C 298.042969 174.136719 293.542969 174.609375 289.90625 176.40625 C 288.09375 177.308594 286.492188 178.558594 285.320312 180.253906 C 284.148438 181.949219 283.425781 184.074219 283.296875 186.628906 C 283.21875 188.136719 283.171875 189.738281 283.171875 191.378906 C 283.175781 196.15625 283.578125 201.234375 284.957031 205.253906 C 285.652344 207.257812 286.597656 209.015625 287.929688 210.3125 C 289.261719 211.613281 291.023438 212.40625 293.085938 212.394531 C 295.398438 212.394531 297.910156 211.761719 300.402344 210.667969 C 304.136719 209.027344 307.828125 206.351562 310.632812 203.058594 C 313.429688 199.769531 315.351562 195.84375 315.355469 191.695312 L 314.355469 191.695312" fill="#3d305e"/></g><g><path d="M 339.71875 327.96875 L 325.054688 312.394531 C 324.757812 311.886719 324.414062 311.386719 324 310.921875 C 323.496094 310.355469 322.933594 309.894531 322.347656 309.488281 L 318.214844 278.382812 L 290.636719 283.867188 L 312.9375 316.355469 C 313.3125 317.359375 313.867188 318.34375 314.652344 319.230469 C 315.433594 320.105469 316.335938 320.769531 317.277344 321.261719 L 330.078125 336.527344 L 348.617188 352.78125 L 353.679688 348.28125 L 339.71875 327.96875" fill="#7cafe2"/></g><g><path d="M 339.71875 327.96875 L 340.445312 327.28125 L 325.78125 311.710938 L 325.054688 312.394531 L 325.917969 311.890625 C 325.59375 311.339844 325.21875 310.78125 324.746094 310.253906 C 324.175781 309.613281 323.546875 309.101562 322.917969 308.664062 L 322.347656 309.488281 L 323.339844 309.355469 L 319.207031 278.25 C 319.171875 277.976562 319.019531 277.730469 318.796875 277.570312 C 318.574219 277.410156 318.289062 277.347656 318.019531 277.402344 L 290.441406 282.886719 C 290.109375 282.953125 289.835938 283.175781 289.707031 283.488281 C 289.582031 283.804688 289.617188 284.15625 289.808594 284.433594 L 312.113281 316.921875 L 312.9375 316.355469 L 312 316.703125 C 312.414062 317.8125 313.03125 318.90625 313.90625 319.890625 C 314.773438 320.867188 315.773438 321.609375 316.820312 322.148438 L 317.277344 321.261719 L 316.511719 321.902344 L 329.3125 337.171875 L 329.421875 337.28125 L 347.957031 353.535156 C 348.335938 353.867188 348.90625 353.863281 349.28125 353.53125 L 354.34375 349.03125 C 354.71875 348.695312 354.785156 348.132812 354.503906 347.71875 L 340.539062 327.398438 L 340.445312 327.28125 L 339.71875 327.96875 L 338.894531 328.53125 L 352.351562 348.121094 L 348.613281 351.449219 L 330.796875 335.828125 L 318.046875 320.617188 C 317.960938 320.515625 317.855469 320.433594 317.738281 320.371094 C 316.894531 319.933594 316.09375 319.339844 315.402344 318.5625 C 314.707031 317.78125 314.210938 316.90625 313.875 316.007812 L 313.761719 315.789062 L 292.316406 284.550781 L 317.363281 279.570312 L 321.355469 309.621094 C 321.394531 309.898438 321.546875 310.148438 321.777344 310.308594 C 322.320312 310.6875 322.820312 311.097656 323.253906 311.585938 C 323.613281 311.988281 323.914062 312.429688 324.191406 312.898438 L 324.324219 313.078125 L 338.988281 328.652344 L 339.71875 327.96875 L 338.894531 328.53125 L 339.71875 327.96875" fill="#3d305e"/></g><g><path d="M 345.734375 369.144531 L 349.6875 354.566406 L 348.007812 351.832031 L 353.484375 347.085938 L 355.484375 347.796875 L 356.4375 350.683594 L 360.050781 354.75 L 345.734375 369.144531" fill="#3d305e"/></g><g><path d="M 319.96875 272.507812 C 319.96875 261.558594 311.890625 252.679688 301.921875 252.679688 C 291.953125 252.679688 283.871094 261.558594 283.871094 272.507812 C 283.871094 273.984375 284.03125 275.421875 284.3125 276.808594 L 279.460938 315.460938 C 279.066406 316.460938 278.835938 317.566406 278.835938 318.75 C 278.835938 319.921875 279.066406 321.019531 279.445312 322.015625 L 278.871094 341.933594 L 281.933594 366.394531 L 288.703125 366.394531 L 291.765625 341.933594 L 291.148438 320.550781 C 291.261719 319.96875 291.339844 319.371094 291.339844 318.75 C 291.339844 317.988281 291.222656 317.273438 291.054688 316.582031 L 308.328125 291.023438 C 315.128906 288.183594 319.96875 280.976562 319.96875 272.507812" fill="#7cafe2"/></g><g><path d="M 319.96875 272.507812 L 320.96875 272.507812 C 320.96875 266.785156 318.859375 261.589844 315.421875 257.8125 C 311.988281 254.039062 307.207031 251.675781 301.921875 251.679688 C 296.636719 251.675781 291.851562 254.039062 288.421875 257.8125 C 284.984375 261.589844 282.871094 266.785156 282.871094 272.507812 C 282.871094 274.054688 283.039062 275.558594 283.332031 277.007812 L 284.3125 276.808594 L 283.320312 276.683594 L 278.464844 315.335938 L 279.460938 315.460938 L 278.527344 315.097656 C 278.09375 316.203125 277.835938 317.4375 277.835938 318.75 C 277.835938 320.054688 278.09375 321.273438 278.511719 322.371094 L 279.445312 322.015625 L 278.449219 321.988281 L 277.871094 341.90625 L 277.882812 342.058594 L 280.941406 366.515625 C 281.003906 367.015625 281.429688 367.390625 281.933594 367.390625 L 288.703125 367.390625 C 289.207031 367.390625 289.632812 367.015625 289.695312 366.515625 L 292.757812 342.058594 L 292.765625 341.90625 L 292.148438 320.519531 L 291.148438 320.550781 L 292.128906 320.738281 C 292.25 320.117188 292.339844 319.453125 292.339844 318.75 C 292.339844 317.886719 292.207031 317.089844 292.027344 316.347656 L 291.054688 316.582031 L 291.882812 317.140625 L 309.15625 291.585938 L 308.328125 291.023438 L 308.714844 291.949219 C 315.914062 288.933594 320.96875 281.359375 320.96875 272.507812 L 318.96875 272.507812 C 318.96875 280.59375 314.34375 287.433594 307.945312 290.101562 C 307.765625 290.179688 307.609375 290.304688 307.5 290.464844 L 290.226562 316.023438 C 290.066406 316.257812 290.015625 316.542969 290.082031 316.816406 C 290.238281 317.457031 290.339844 318.09375 290.339844 318.75 C 290.339844 319.289062 290.273438 319.820312 290.167969 320.355469 L 290.148438 320.578125 L 290.761719 341.882812 L 287.820312 365.394531 L 282.816406 365.394531 L 279.875 341.886719 L 280.445312 322.042969 C 280.449219 321.910156 280.429688 321.78125 280.382812 321.65625 C 280.039062 320.765625 279.835938 319.789062 279.835938 318.75 C 279.835938 317.699219 280.042969 316.71875 280.390625 315.824219 L 280.449219 315.585938 L 285.304688 276.933594 C 285.316406 276.824219 285.3125 276.71875 285.292969 276.609375 C 285.023438 275.28125 284.871094 273.914062 284.871094 272.507812 C 284.871094 267.277344 286.804688 262.5625 289.898438 259.160156 C 293 255.757812 297.242188 253.679688 301.921875 253.675781 C 306.601562 253.679688 310.84375 255.757812 313.941406 259.160156 C 317.039062 262.5625 318.96875 267.277344 318.96875 272.507812 L 319.96875 272.507812" fill="#3d305e"/></g><g><path d="M 317.914062 236.6875 C 318.117188 235.527344 318.230469 234.335938 318.230469 233.113281 C 318.230469 222.867188 310.800781 214.5625 301.644531 214.5625 C 292.480469 214.5625 285.058594 222.867188 285.058594 233.113281 C 285.058594 236.710938 285.984375 240.054688 287.566406 242.894531 C 287.507812 245.757812 286.875 257.246094 280.613281 269.835938 C 282.128906 281.339844 301.644531 282.03125 301.644531 282.03125 C 301.644531 282.03125 321.152344 281.339844 322.671875 269.835938 C 317.214844 258.867188 317.464844 243.546875 317.914062 236.6875" fill="#c42c9e"/></g><g><path d="M 317.914062 236.6875 L 318.898438 236.859375 C 319.113281 235.648438 319.230469 234.394531 319.226562 233.113281 C 319.226562 227.75 317.285156 222.875 314.113281 219.328125 C 310.949219 215.785156 306.53125 213.558594 301.644531 213.5625 C 296.753906 213.558594 292.335938 215.785156 289.171875 219.328125 C 286 222.875 284.058594 227.75 284.058594 233.113281 C 284.058594 236.882812 285.03125 240.394531 286.695312 243.382812 L 287.566406 242.894531 L 286.566406 242.875 C 286.511719 245.644531 285.886719 256.996094 279.71875 269.386719 C 279.628906 269.566406 279.597656 269.765625 279.621094 269.964844 C 280.03125 273.125 281.71875 275.574219 283.902344 277.363281 C 287.1875 280.0625 291.59375 281.433594 295.183594 282.183594 C 298.777344 282.929688 301.570312 283.027344 301.605469 283.03125 L 301.679688 283.03125 C 301.730469 283.027344 306.667969 282.855469 311.890625 281.199219 C 314.503906 280.367188 317.191406 279.164062 319.382812 277.363281 C 321.566406 275.574219 323.25 273.125 323.660156 269.964844 C 323.6875 269.765625 323.652344 269.566406 323.566406 269.386719 C 319.601562 261.441406 318.691406 250.910156 318.699219 243.273438 C 318.699219 240.703125 318.800781 238.460938 318.910156 236.753906 L 317.914062 236.6875 L 318.898438 236.859375 L 317.914062 236.6875 L 316.914062 236.621094 C 316.800781 238.367188 316.699219 240.652344 316.699219 243.273438 C 316.707031 251.066406 317.574219 261.816406 321.773438 270.277344 L 322.671875 269.835938 L 321.679688 269.703125 C 321.332031 272.296875 320.007812 274.246094 318.109375 275.820312 C 315.265625 278.175781 311.121094 279.519531 307.691406 280.226562 C 305.980469 280.582031 304.449219 280.785156 303.351562 280.898438 C 302.800781 280.953125 302.363281 280.988281 302.058594 281.007812 C 301.910156 281.015625 301.792969 281.023438 301.71875 281.027344 L 301.605469 281.03125 L 301.644531 282.03125 L 301.679688 281.03125 C 301.679688 281.03125 301.613281 281.03125 301.476562 281.023438 C 300.457031 280.96875 295.675781 280.617188 291.078125 278.984375 C 288.78125 278.171875 286.535156 277.042969 284.824219 275.523438 C 283.113281 274 281.929688 272.136719 281.605469 269.703125 L 280.613281 269.835938 L 281.507812 270.277344 C 287.863281 257.496094 288.503906 245.867188 288.566406 242.917969 C 288.570312 242.738281 288.527344 242.566406 288.441406 242.410156 C 286.941406 239.714844 286.058594 236.535156 286.058594 233.113281 C 286.058594 228.234375 287.828125 223.832031 290.660156 220.660156 C 293.496094 217.492188 297.371094 215.5625 301.644531 215.5625 C 305.914062 215.5625 309.785156 217.492188 312.625 220.660156 C 315.457031 223.832031 317.230469 228.234375 317.226562 233.113281 C 317.226562 234.273438 317.121094 235.410156 316.929688 236.515625 L 316.914062 236.621094 L 317.914062 236.6875" fill="#3d305e"/></g><g><path d="M 301.640625 281.03125 C 301.609375 281.027344 301.554688 281.027344 301.476562 281.023438 C 300.457031 280.96875 295.675781 280.617188 291.078125 278.984375 C 288.78125 278.171875 286.535156 277.042969 284.824219 275.523438 C 283.183594 274.0625 282.027344 272.285156 281.648438 269.996094 C 281.738281 269.8125 281.828125 269.625 281.917969 269.441406 C 289.9375 267.113281 301.5625 265 307.664062 257.511719 L 317.828125 257.511719 C 318.570312 261.804688 319.761719 266.128906 321.636719 269.996094 C 321.230469 272.441406 319.9375 274.308594 318.109375 275.820312 C 315.265625 278.175781 311.121094 279.519531 307.691406 280.226562 C 305.980469 280.582031 304.449219 280.785156 303.351562 280.898438 C 302.800781 280.953125 302.363281 280.988281 302.058594 281.007812 C 301.910156 281.015625 301.792969 281.023438 301.71875 281.027344 L 301.640625 281.03125" fill="#ab2687"/></g><g><path d="M 301.644531 282.03125 C 301.644531 282.03125 282.703125 280.976562 280.613281 269.835938 C 281.035156 269.703125 281.472656 269.570312 281.917969 269.441406 C 281.828125 269.625 281.738281 269.8125 281.648438 269.996094 C 282.027344 272.285156 283.183594 274.0625 284.824219 275.523438 C 286.535156 277.042969 288.78125 278.171875 291.078125 278.984375 C 295.675781 280.617188 300.457031 280.96875 301.476562 281.023438 C 301.554688 281.027344 301.609375 281.027344 301.640625 281.03125 L 301.71875 281.027344 C 301.792969 281.023438 301.910156 281.015625 302.058594 281.007812 C 302.363281 280.988281 302.800781 280.953125 303.351562 280.898438 C 304.449219 280.785156 305.980469 280.582031 307.691406 280.226562 C 311.121094 279.519531 315.265625 278.175781 318.109375 275.820312 C 319.9375 274.308594 321.230469 272.441406 321.636719 269.996094 C 319.761719 266.128906 318.570312 261.804688 317.828125 257.511719 L 318.84375 257.511719 C 319.59375 261.785156 320.796875 266.066406 322.671875 269.835938 C 321.152344 281.339844 301.644531 282.03125 301.644531 282.03125" fill="#342950"/></g><g><path d="M 317.222656 233.566406 L 311.894531 233.566406 C 311.878906 227.757812 311.484375 222.261719 309.585938 218.011719 C 310.691406 218.75 311.710938 219.640625 312.625 220.660156 C 315.457031 223.832031 317.230469 228.234375 317.226562 233.113281 C 317.226562 233.265625 317.226562 233.414062 317.222656 233.566406" fill="#ab2687"/></g><g><path d="M 318.222656 233.566406 L 317.222656 233.566406 C 317.226562 233.414062 317.226562 233.265625 317.226562 233.113281 C 317.230469 228.234375 315.457031 223.832031 312.625 220.660156 C 311.710938 219.640625 310.691406 218.75 309.585938 218.011719 C 309.328125 217.4375 309.046875 216.882812 308.730469 216.355469 C 314.339844 219.335938 318.230469 225.710938 318.230469 233.113281 C 318.230469 233.265625 318.226562 233.414062 318.222656 233.566406" fill="#342950"/></g><g><path d="M 209.359375 256.511719 L 345.734375 256.511719 L 345.734375 234.566406 L 209.359375 234.566406 Z M 209.359375 256.511719" fill="#fff"/></g><g><path d="M 345.734375 256.511719 L 345.734375 255.511719 L 210.359375 255.511719 L 210.359375 235.566406 L 344.734375 235.566406 L 344.734375 256.511719 L 345.734375 256.511719 L 345.734375 255.511719 L 345.734375 256.511719 L 346.734375 256.511719 L 346.734375 234.566406 C 346.734375 234.300781 346.628906 234.046875 346.441406 233.859375 C 346.253906 233.671875 346 233.566406 345.734375 233.566406 L 209.359375 233.566406 C 209.097656 233.566406 208.839844 233.671875 208.652344 233.859375 C 208.464844 234.046875 208.359375 234.304688 208.359375 234.566406 L 208.359375 256.511719 C 208.359375 256.777344 208.464844 257.03125 208.652344 257.21875 C 208.839844 257.40625 209.09375 257.511719 209.359375 257.511719 L 345.734375 257.511719 C 346 257.511719 346.253906 257.40625 346.441406 257.21875 C 346.628906 257.03125 346.734375 256.777344 346.734375 256.511719 L 345.734375 256.511719" fill="#3d305e"/></g><g><path d="M 319.996094 256.511719 L 345.734375 256.511719 L 345.734375 234.566406 L 319.996094 234.566406 Z M 319.996094 256.511719" fill="#7cafe2"/></g><g><path d="M 319.996094 234.566406 L 318.996094 234.566406 L 318.996094 256.511719 C 318.996094 256.773438 319.101562 257.03125 319.289062 257.21875 C 319.476562 257.40625 319.734375 257.511719 319.996094 257.511719 L 345.734375 257.511719 C 346 257.511719 346.253906 257.40625 346.441406 257.21875 C 346.628906 257.03125 346.734375 256.777344 346.734375 256.511719 L 346.734375 234.566406 C 346.734375 234.304688 346.628906 234.046875 346.441406 233.859375 C 346.253906 233.671875 345.996094 233.566406 345.734375 233.566406 L 319.996094 233.566406 C 319.734375 233.566406 319.476562 233.671875 319.289062 233.859375 C 319.101562 234.046875 318.996094 234.304688 318.996094 234.566406 L 319.996094 234.566406 L 319.996094 235.566406 L 344.734375 235.566406 L 344.734375 255.511719 L 320.996094 255.511719 L 320.996094 234.566406 L 319.996094 234.566406 L 319.996094 235.566406 L 319.996094 234.566406" fill="#3d305e"/></g><g><path d="M 226.222656 245.800781 C 226.222656 247.421875 224.910156 248.738281 223.289062 248.738281 C 221.664062 248.738281 220.355469 247.421875 220.355469 245.800781 C 220.355469 244.183594 221.664062 242.867188 223.289062 242.867188 C 224.910156 242.867188 226.222656 244.183594 226.222656 245.800781" fill="#3d305e"/></g><g><path d="M 235.148438 245.800781 C 235.148438 247.421875 233.835938 248.738281 232.214844 248.738281 C 230.59375 248.738281 229.277344 247.421875 229.277344 245.800781 C 229.277344 244.183594 230.59375 242.867188 232.214844 242.867188 C 233.835938 242.867188 235.148438 244.183594 235.148438 245.800781" fill="#3d305e"/></g><g><path d="M 244.070312 242.867188 C 244.070312 244.488281 242.757812 245.800781 241.136719 245.800781 C 239.515625 245.800781 238.203125 244.488281 238.203125 242.867188 C 238.203125 241.246094 239.515625 239.933594 241.136719 239.933594 C 242.757812 239.933594 244.070312 241.246094 244.070312 242.867188" fill="#3d305e"/></g><g><path d="M 338.253906 246.671875 L 337.546875 245.964844 C 336.789062 246.71875 335.804688 247.09375 334.816406 247.09375 C 333.824219 247.09375 332.839844 246.71875 332.085938 245.964844 C 331.328125 245.210938 330.957031 244.226562 330.953125 243.234375 C 330.957031 242.242188 331.328125 241.257812 332.085938 240.503906 C 332.84375 239.746094 333.824219 239.371094 334.816406 239.371094 C 335.804688 239.371094 336.789062 239.746094 337.546875 240.503906 C 338.304688 241.257812 338.679688 242.242188 338.679688 243.234375 C 338.679688 244.226562 338.304688 245.207031 337.546875 245.964844 L 338.960938 247.378906 C 340.105469 246.238281 340.679688 244.730469 340.679688 243.234375 C 340.679688 241.738281 340.105469 240.230469 338.960938 239.089844 C 337.816406 237.945312 336.3125 237.371094 334.816406 237.371094 C 333.316406 237.371094 331.8125 237.945312 330.671875 239.089844 C 329.527344 240.230469 328.953125 241.738281 328.953125 243.234375 C 328.953125 244.730469 329.527344 246.238281 330.671875 247.378906 C 331.8125 248.519531 333.316406 249.097656 334.816406 249.09375 C 336.3125 249.097656 337.816406 248.523438 338.960938 247.378906 L 338.253906 246.671875" fill="#3d305e"/></g><g><path d="M 330.671875 245.964844 L 324.636719 252.003906 C 324.242188 252.390625 324.242188 253.023438 324.636719 253.414062 C 325.023438 253.804688 325.65625 253.804688 326.050781 253.414062 L 332.085938 247.378906 C 332.476562 246.988281 332.476562 246.355469 332.085938 245.964844 C 331.695312 245.574219 331.0625 245.574219 330.671875 245.964844" fill="#3d305e"/></g><g><path d="M 210.359375 255.511719 L 318.996094 255.511719 L 318.996094 252.265625 L 210.359375 252.265625 Z M 210.359375 255.511719" fill="#dedede"/></g><g><path d="M 318.996094 256.511719 L 209.359375 256.511719 L 209.359375 252.265625 L 210.359375 252.265625 L 210.359375 255.511719 L 318.996094 255.511719 L 318.996094 256.511719" fill="#342950"/></g><g><path d="M 344.734375 255.511719 L 320.996094 255.511719 L 320.996094 252.265625 L 324.445312 252.265625 C 324.261719 252.636719 324.324219 253.105469 324.636719 253.414062 C 324.828125 253.609375 325.085938 253.710938 325.34375 253.710938 C 325.597656 253.710938 325.855469 253.609375 326.050781 253.414062 L 327.199219 252.265625 L 344.734375 252.265625 L 344.734375 255.511719" fill="#6c97c4"/></g><g><path d="M 345.734375 256.511719 L 318.996094 256.511719 L 318.996094 252.265625 L 320.996094 252.265625 L 320.996094 255.511719 L 344.734375 255.511719 L 344.734375 252.265625 L 345.734375 252.265625 L 345.734375 256.511719" fill="#342950"/></g><g><path d="M 325.34375 253.710938 C 325.085938 253.710938 324.828125 253.609375 324.636719 253.414062 C 324.324219 253.105469 324.261719 252.636719 324.445312 252.265625 L 327.199219 252.265625 L 326.050781 253.414062 C 325.855469 253.609375 325.597656 253.710938 325.34375 253.710938" fill="#342950"/></g><g><path d="M 210.359375 238.816406 L 318.996094 238.816406 L 318.996094 235.566406 L 210.359375 235.566406 Z M 210.359375 238.816406" fill="#dedede"/></g><g><path d="M 210.359375 238.816406 L 209.359375 238.816406 L 209.359375 234.566406 L 318.996094 234.566406 L 318.996094 235.566406 L 210.359375 235.566406 L 210.359375 238.816406" fill="#342950"/></g><g><path d="M 344.734375 238.816406 L 338.671875 238.816406 C 337.570312 237.855469 336.191406 237.371094 334.820312 237.371094 C 334.816406 237.371094 334.816406 237.371094 334.816406 237.371094 C 334.8125 237.371094 334.8125 237.371094 334.808594 237.371094 C 333.4375 237.371094 332.058594 237.855469 330.960938 238.816406 L 320.996094 238.816406 L 320.996094 235.566406 L 344.734375 235.566406 L 344.734375 238.816406" fill="#6c97c4"/></g><g><path d="M 345.734375 238.816406 L 344.734375 238.816406 L 344.734375 235.566406 L 320.996094 235.566406 L 320.996094 238.816406 L 318.996094 238.816406 L 318.996094 234.566406 L 319.996094 234.566406 L 319.996094 235.566406 L 319.996094 234.566406 L 345.734375 234.566406 L 345.734375 238.816406" fill="#342950"/></g><g><path d="M 338.671875 238.816406 L 330.960938 238.816406 C 332.058594 237.855469 333.4375 237.371094 334.808594 237.371094 C 334.8125 237.371094 334.8125 237.371094 334.816406 237.371094 C 334.816406 237.371094 334.816406 237.371094 334.820312 237.371094 C 336.191406 237.371094 337.570312 237.855469 338.671875 238.816406" fill="#342950"/></g><g><path d="M 310.136719 226.035156 C 311.902344 221.472656 309.632812 216.34375 305.070312 214.578125 C 300.507812 212.8125 295.378906 215.085938 293.613281 219.644531 C 292.761719 221.847656 292.867188 224.175781 293.703125 226.199219 L 293.691406 226.203125 C 293.691406 226.203125 294.195312 242.199219 295.464844 251.007812 L 272.664062 253.800781 L 272.78125 258.960938 C 272.78125 258.960938 299.980469 258.800781 300.78125 258.566406 C 301.464844 258.472656 302.109375 258.105469 302.632812 257.40625 C 302.953125 257.054688 303.222656 256.644531 303.398438 256.171875 C 303.535156 255.808594 310.070312 226.203125 310.136719 226.035156" fill="#c42c9e"/></g><g><path d="M 310.136719 226.035156 L 311.070312 226.394531 C 311.519531 225.230469 311.734375 224.023438 311.734375 222.839844 C 311.734375 218.886719 309.339844 215.15625 305.429688 213.644531 C 304.265625 213.195312 303.0625 212.980469 301.878906 212.980469 C 297.921875 212.980469 294.191406 215.375 292.679688 219.28125 C 292.234375 220.4375 292.023438 221.625 292.023438 222.792969 C 292.023438 224.105469 292.289062 225.390625 292.777344 226.582031 L 293.703125 226.199219 L 293.539062 225.214844 L 293.527344 225.21875 C 293.03125 225.300781 292.675781 225.734375 292.691406 226.234375 C 292.691406 226.238281 292.816406 230.246094 293.105469 235.359375 C 293.390625 240.472656 293.832031 246.683594 294.476562 251.148438 L 295.464844 251.007812 L 295.34375 250.011719 L 272.542969 252.808594 C 272.035156 252.871094 271.65625 253.3125 271.664062 253.824219 L 271.78125 258.980469 C 271.796875 259.527344 272.242188 259.960938 272.789062 259.960938 C 272.789062 259.960938 279.589844 259.917969 286.492188 259.851562 C 289.941406 259.816406 293.417969 259.773438 296.085938 259.726562 C 297.421875 259.703125 298.550781 259.675781 299.378906 259.648438 C 299.796875 259.636719 300.132812 259.621094 300.390625 259.605469 C 300.519531 259.601562 300.628906 259.59375 300.726562 259.582031 L 300.863281 259.566406 C 300.914062 259.558594 300.960938 259.554688 301.058594 259.527344 L 300.78125 258.566406 L 300.917969 259.558594 C 301.871094 259.433594 302.78125 258.886719 303.429688 258.007812 L 302.632812 257.40625 L 303.371094 258.082031 C 303.765625 257.648438 304.105469 257.128906 304.335938 256.523438 L 304.332031 256.527344 L 304.363281 256.4375 L 304.414062 256.234375 C 304.71875 254.984375 306.371094 247.550781 307.964844 240.378906 C 308.761719 236.796875 309.539062 233.285156 310.121094 230.65625 C 310.414062 229.347656 310.65625 228.253906 310.832031 227.488281 C 310.917969 227.105469 310.984375 226.800781 311.03125 226.59375 C 311.054688 226.488281 311.074219 226.410156 311.085938 226.355469 L 311.101562 226.304688 L 310.355469 226.105469 L 311.09375 226.320312 L 311.101562 226.304688 L 310.355469 226.105469 L 311.09375 226.320312 L 310.171875 226.046875 L 311.066406 226.402344 L 311.09375 226.320312 L 310.171875 226.046875 L 311.066406 226.402344 L 311.070312 226.394531 L 310.136719 226.035156 L 309.207031 225.667969 L 309.175781 225.757812 L 309.152344 225.84375 C 309.070312 226.1875 308.625 228.1875 307.988281 231.046875 C 307.035156 235.328125 305.671875 241.488281 304.53125 246.609375 C 303.960938 249.171875 303.445312 251.472656 303.066406 253.152344 C 302.878906 253.988281 302.722656 254.671875 302.613281 255.152344 C 302.558594 255.390625 302.515625 255.578125 302.484375 255.710938 L 302.449219 255.855469 L 302.441406 255.882812 L 303.152344 256.078125 L 302.464844 255.816406 L 302.441406 255.882812 L 303.152344 256.078125 L 302.464844 255.816406 L 302.460938 255.820312 C 302.335938 256.160156 302.140625 256.460938 301.890625 256.734375 L 301.832031 256.808594 C 301.4375 257.320312 301.058594 257.511719 300.644531 257.574219 L 300.503906 257.605469 L 300.667969 258.171875 L 300.582031 257.585938 L 300.503906 257.605469 L 300.667969 258.171875 L 300.582031 257.585938 C 300.5625 257.589844 300.363281 257.609375 300.101562 257.621094 C 298.046875 257.71875 291.1875 257.804688 284.878906 257.863281 C 281.722656 257.894531 278.695312 257.917969 276.460938 257.933594 C 274.222656 257.949219 272.78125 257.960938 272.777344 257.960938 L 272.78125 258.960938 L 273.78125 258.9375 L 273.6875 254.683594 L 295.585938 251.996094 C 295.851562 251.964844 296.097656 251.824219 296.257812 251.613281 C 296.421875 251.402344 296.492188 251.128906 296.453125 250.863281 C 295.828125 246.523438 295.382812 240.332031 295.101562 235.246094 C 294.957031 232.703125 294.855469 230.433594 294.789062 228.800781 C 294.722656 227.164062 294.691406 226.175781 294.691406 226.171875 L 293.691406 226.203125 L 293.855469 227.1875 L 293.867188 227.1875 C 294.167969 227.136719 294.429688 226.953125 294.578125 226.6875 C 294.726562 226.421875 294.742188 226.101562 294.628906 225.820312 C 294.234375 224.863281 294.023438 223.839844 294.023438 222.792969 C 294.023438 221.867188 294.191406 220.925781 294.546875 220.003906 C 295.746094 216.890625 298.726562 214.980469 301.878906 214.980469 C 302.820312 214.980469 303.777344 215.148438 304.710938 215.511719 C 307.824219 216.714844 309.734375 219.6875 309.734375 222.839844 C 309.734375 223.78125 309.566406 224.738281 309.203125 225.675781 L 309.207031 225.667969 L 310.136719 226.035156" fill="#3d305e"/></g><g><path d="M 270.269531 250.789062 L 264.3125 250.371094 L 264.15625 251.859375 L 266.96875 252.628906 L 260.117188 254.09375 L 260.21875 258.414062 L 267.773438 259.492188 L 272.78125 258.960938 L 272.664062 253.800781 L 270.269531 250.789062" fill="#fbc6af"/></g><g><path d="M 270.269531 250.789062 L 270.335938 249.792969 L 264.378906 249.375 C 263.84375 249.335938 263.371094 249.730469 263.316406 250.269531 L 263.160156 251.757812 C 263.109375 252.246094 263.421875 252.699219 263.894531 252.824219 L 266.707031 253.59375 L 266.96875 252.628906 L 266.761719 251.648438 L 259.90625 253.113281 C 259.4375 253.214844 259.105469 253.636719 259.117188 254.113281 L 259.21875 258.4375 C 259.226562 258.925781 259.589844 259.335938 260.074219 259.402344 L 267.632812 260.484375 L 267.882812 260.488281 L 272.890625 259.953125 C 273.40625 259.898438 273.792969 259.453125 273.78125 258.9375 L 273.664062 253.777344 C 273.660156 253.558594 273.585938 253.347656 273.449219 253.179688 L 271.050781 250.164062 C 270.875 249.949219 270.613281 249.8125 270.335938 249.792969 L 270.269531 250.789062 L 269.484375 251.410156 L 271.675781 254.160156 L 271.761719 258.0625 L 267.792969 258.484375 L 261.195312 257.542969 L 261.136719 254.894531 L 267.179688 253.605469 C 267.628906 253.507812 267.957031 253.117188 267.96875 252.652344 C 267.980469 252.191406 267.675781 251.78125 267.230469 251.660156 L 265.238281 251.117188 L 265.304688 250.472656 L 264.3125 250.371094 L 264.238281 251.367188 L 270.199219 251.785156 L 270.269531 250.789062 L 269.484375 251.410156 L 270.269531 250.789062" fill="#3d305e"/></g><g><path d="M 250.15625 253.46875 L 247.882812 255.9375 L 246.929688 251.363281 L 242.3125 251.203125 L 241.039062 255.695312 L 241.90625 259.894531 L 247.355469 260.316406 L 250.164062 258.894531 L 251.734375 253.71875 L 250.15625 253.46875" fill="#fbc6af"/></g><g><path d="M 250.15625 253.46875 L 249.421875 252.789062 L 248.464844 253.828125 L 247.90625 251.160156 C 247.8125 250.710938 247.421875 250.382812 246.964844 250.367188 L 242.347656 250.203125 C 241.890625 250.1875 241.476562 250.488281 241.351562 250.929688 L 240.078125 255.421875 C 240.035156 255.574219 240.03125 255.742188 240.0625 255.898438 L 240.929688 260.097656 C 241.019531 260.535156 241.386719 260.859375 241.832031 260.894531 L 247.277344 261.316406 C 247.460938 261.328125 247.640625 261.292969 247.804688 261.210938 L 250.613281 259.789062 C 250.859375 259.664062 251.039062 259.449219 251.121094 259.1875 L 252.691406 254.007812 C 252.773438 253.730469 252.734375 253.433594 252.582031 253.1875 C 252.429688 252.941406 252.175781 252.777344 251.890625 252.730469 L 250.3125 252.480469 C 249.980469 252.429688 249.648438 252.546875 249.421875 252.789062 L 250.15625 253.46875 L 250 254.457031 L 250.445312 254.527344 L 249.332031 258.195312 L 247.152344 259.300781 L 242.734375 258.957031 L 242.070312 255.730469 L 243.0625 252.230469 L 246.109375 252.335938 L 246.902344 256.140625 C 246.980469 256.503906 247.257812 256.800781 247.617188 256.898438 C 247.976562 257 248.363281 256.886719 248.617188 256.613281 L 250.890625 254.144531 L 250.15625 253.46875 L 250 254.457031 L 250.15625 253.46875" fill="#3d305e"/></g><g><path d="M 299.519531 167.9375 C 288.421875 167.878906 278.4375 177.28125 283.636719 184.726562 C 290.382812 177.679688 288.796875 190.085938 299.398438 187.800781 L 303.25 198.273438 C 307.6875 193.695312 309.464844 198.015625 309.496094 198.273438 C 309.945312 201.773438 306.820312 205.445312 306.820312 205.445312 C 332.867188 179.730469 310.613281 167.988281 299.519531 167.9375" fill="#3d305e"/></g><g><path d="M 303.496094 186.691406 L 303.496094 197.015625 C 306.347656 197.015625 308.65625 194.703125 308.65625 191.855469 C 308.65625 189.003906 306.347656 186.691406 303.496094 186.691406" fill="#fbc6af"/></g><g><path d="M 303.496094 186.691406 L 302.496094 186.691406 L 302.496094 197.015625 C 302.496094 197.277344 302.605469 197.535156 302.789062 197.722656 C 302.976562 197.90625 303.234375 198.015625 303.496094 198.015625 C 306.898438 198.011719 309.65625 195.257812 309.65625 191.855469 C 309.65625 188.449219 306.898438 185.691406 303.496094 185.691406 C 303.234375 185.691406 302.976562 185.796875 302.789062 185.984375 C 302.605469 186.171875 302.496094 186.429688 302.496094 186.691406 L 303.496094 186.691406 L 303.496094 187.691406 C 304.648438 187.691406 305.683594 188.15625 306.4375 188.910156 C 307.195312 189.664062 307.65625 190.699219 307.65625 191.855469 C 307.65625 193.003906 307.195312 194.039062 306.4375 194.796875 C 305.683594 195.550781 304.648438 196.011719 303.496094 196.011719 L 303.496094 197.015625 L 304.496094 197.015625 L 304.496094 186.691406 L 303.496094 186.691406 L 303.496094 187.691406 L 303.496094 186.691406" fill="#3d305e"/></g><g><path d="M 268.90625 376.710938 L 281.550781 368.4375 L 282.105469 365.277344 L 289.359375 365.367188 L 290.382812 367.230469 L 289.175781 370.015625 L 289.175781 375.457031 L 268.90625 376.710938" fill="#3d305e"/></g></g></svg>