<?xml version="1.0" encoding="UTF-8"?><svg xmlns="http://www.w3.org/2000/svg" xmlns:xlink="http://www.w3.org/1999/xlink" height="1446.8" preserveAspectRatio="xMidYMid meet" version="1.0" viewBox="0.0 -4.7 1406.1 1446.8" width="1406.1" zoomAndPan="magnify"><defs><clipPath id="a"><path d="M 395 613 L 1061 613 L 1061 1442.070312 L 395 1442.070312 Z M 395 613"/></clipPath><clipPath id="b"><path d="M 1029 569 L 1406.078125 569 L 1406.078125 1225 L 1029 1225 Z M 1029 569"/></clipPath></defs><g><g><path d="M 1148.660156 704.269531 C 1143.300781 702.972656 1137.859375 701.699219 1132.359375 700.457031 C 1125.289062 654.0625 1111.511719 608.535156 1085.878906 585.90625 C 1084.78125 584.933594 1083.660156 584.007812 1082.511719 583.121094 C 1082.460938 583.082031 1082.421875 583.046875 1082.371094 583.007812 C 1082.351562 582.996094 1082.339844 582.988281 1082.320312 582.976562 C 1082.289062 582.945312 1082.25 582.917969 1082.210938 582.890625 C 1082.199219 582.878906 1082.191406 582.871094 1082.171875 582.859375 C 1082.128906 582.824219 1082.078125 582.789062 1082.03125 582.753906 C 1082.019531 582.742188 1082 582.730469 1081.988281 582.71875 C 1081.949219 582.691406 1081.921875 582.667969 1081.890625 582.640625 C 1081.871094 582.628906 1081.851562 582.613281 1081.828125 582.601562 C 1081.800781 582.570312 1081.761719 582.539062 1081.71875 582.511719 C 1081.699219 582.496094 1081.679688 582.484375 1081.660156 582.46875 C 1081.628906 582.441406 1081.589844 582.414062 1081.550781 582.386719 C 1081.53125 582.371094 1081.511719 582.355469 1081.488281 582.339844 C 1081.460938 582.320312 1081.429688 582.296875 1081.398438 582.273438 C 1081.378906 582.257812 1081.371094 582.246094 1081.351562 582.230469 C 1081.300781 582.195312 1081.261719 582.164062 1081.21875 582.132812 C 1081.191406 582.117188 1081.171875 582.097656 1081.148438 582.082031 C 1081.128906 582.066406 1081.101562 582.042969 1081.070312 582.023438 C 1081.050781 582.007812 1081.03125 581.988281 1081 581.972656 C 1080.96875 581.949219 1080.949219 581.929688 1080.921875 581.910156 C 1080.878906 581.882812 1080.839844 581.851562 1080.808594 581.824219 C 1080.78125 581.804688 1080.761719 581.789062 1080.730469 581.769531 C 1080.710938 581.753906 1080.679688 581.730469 1080.648438 581.710938 C 1080.628906 581.695312 1080.609375 581.679688 1080.589844 581.664062 C 1080.550781 581.636719 1080.519531 581.613281 1080.488281 581.589844 C 1080.460938 581.566406 1080.421875 581.539062 1080.390625 581.515625 C 1080.359375 581.496094 1080.328125 581.472656 1080.308594 581.453125 C 1080.289062 581.4375 1080.269531 581.425781 1080.25 581.410156 C 1080.21875 581.390625 1080.191406 581.367188 1080.160156 581.347656 C 1080.148438 581.335938 1080.121094 581.320312 1080.109375 581.304688 C 1080.058594 581.269531 1080 581.230469 1079.949219 581.195312 C 1079.941406 581.183594 1079.921875 581.167969 1079.898438 581.15625 C 1079.871094 581.132812 1079.839844 581.113281 1079.808594 581.089844 C 1079.800781 581.078125 1079.78125 581.066406 1079.761719 581.054688 C 1079.660156 580.976562 1079.558594 580.90625 1079.449219 580.828125 C 1079.441406 580.820312 1079.429688 580.8125 1079.421875 580.800781 C 1079.378906 580.777344 1079.351562 580.753906 1079.308594 580.726562 C 1079.308594 580.722656 1079.300781 580.71875 1079.300781 580.714844 C 1079.230469 580.664062 1079.148438 580.609375 1079.078125 580.558594 C 1079.078125 580.554688 1079.070312 580.550781 1079.070312 580.550781 C 1079.03125 580.519531 1079 580.496094 1078.960938 580.46875 C 1078.949219 580.464844 1078.941406 580.457031 1078.929688 580.453125 C 1078.820312 580.371094 1078.710938 580.292969 1078.601562 580.210938 C 1078.589844 580.207031 1078.578125 580.199219 1078.578125 580.195312 C 1078.421875 580.085938 1078.261719 579.96875 1078.101562 579.859375 C 1078.101562 579.855469 1078.101562 579.855469 1078.089844 579.851562 C 1077.96875 579.765625 1077.859375 579.683594 1077.730469 579.597656 L 1077.730469 579.59375 C 1075.148438 577.785156 1072.488281 576.039062 1069.71875 574.347656 C 1069.71875 574.34375 1069.710938 574.34375 1069.710938 574.339844 C 1069.578125 574.261719 1069.449219 574.183594 1069.328125 574.105469 C 1069.320312 574.105469 1069.320312 574.101562 1069.320312 574.101562 C 1069.28125 574.074219 1069.230469 574.046875 1069.191406 574.023438 C 1069.191406 574.019531 1069.179688 574.019531 1069.179688 574.015625 C 1069.050781 573.9375 1068.929688 573.863281 1068.800781 573.789062 C 1068.800781 573.785156 1068.78125 573.777344 1068.78125 573.773438 C 1068.648438 573.699219 1068.53125 573.625 1068.410156 573.550781 C 1068.398438 573.546875 1068.390625 573.542969 1068.378906 573.535156 C 1068.351562 573.511719 1068.300781 573.488281 1068.269531 573.464844 C 1068.261719 573.460938 1068.25 573.453125 1068.238281 573.449219 C 1068.121094 573.378906 1068 573.304688 1067.878906 573.234375 C 1067.871094 573.226562 1067.851562 573.21875 1067.839844 573.210938 C 1067.800781 573.1875 1067.761719 573.164062 1067.71875 573.144531 C 1067.71875 573.140625 1067.71875 573.140625 1067.71875 573.140625 C 1067.640625 573.09375 1067.570312 573.050781 1067.488281 573.003906 C 1067.46875 572.996094 1067.460938 572.984375 1067.441406 572.976562 C 1067.410156 572.957031 1067.371094 572.933594 1067.339844 572.914062 C 1067.320312 572.90625 1067.300781 572.890625 1067.28125 572.878906 C 1067.230469 572.847656 1067.171875 572.816406 1067.121094 572.785156 C 1067.089844 572.769531 1067.070312 572.757812 1067.050781 572.742188 C 1067.011719 572.722656 1066.980469 572.707031 1066.949219 572.6875 C 1066.929688 572.675781 1066.910156 572.660156 1066.890625 572.648438 C 1066.859375 572.632812 1066.820312 572.609375 1066.789062 572.59375 C 1066.769531 572.578125 1066.738281 572.5625 1066.710938 572.546875 C 1066.660156 572.519531 1066.621094 572.492188 1066.570312 572.464844 C 1066.539062 572.449219 1066.519531 572.433594 1066.488281 572.417969 C 1066.460938 572.398438 1066.429688 572.386719 1066.398438 572.367188 C 1066.378906 572.351562 1066.351562 572.335938 1066.320312 572.316406 C 1066.289062 572.300781 1066.261719 572.28125 1066.21875 572.261719 C 1066.179688 572.238281 1066.140625 572.214844 1066.101562 572.1875 C 1066.070312 572.175781 1066.039062 572.15625 1066.019531 572.144531 C 1065.988281 572.125 1065.960938 572.109375 1065.929688 572.089844 C 1065.898438 572.074219 1065.878906 572.0625 1065.851562 572.046875 C 1065.800781 572.019531 1065.75 571.988281 1065.699219 571.960938 C 1065.679688 571.949219 1065.671875 571.941406 1065.648438 571.929688 C 1065.609375 571.90625 1065.570312 571.882812 1065.53125 571.863281 C 1065.511719 571.847656 1065.488281 571.839844 1065.46875 571.824219 C 1065.429688 571.800781 1065.390625 571.78125 1065.351562 571.757812 C 1065.328125 571.746094 1065.308594 571.738281 1065.300781 571.726562 C 1065.25 571.699219 1065.191406 571.664062 1065.140625 571.636719 C 1065.121094 571.625 1065.101562 571.617188 1065.078125 571.605469 C 1065.039062 571.582031 1065 571.558594 1064.960938 571.535156 C 1064.941406 571.527344 1064.921875 571.515625 1064.910156 571.507812 C 1064.851562 571.472656 1064.800781 571.441406 1064.738281 571.410156 C 1064.730469 571.402344 1064.71875 571.402344 1064.710938 571.394531 C 1064.660156 571.367188 1064.609375 571.339844 1064.570312 571.3125 C 1064.550781 571.304688 1064.539062 571.296875 1064.519531 571.285156 C 1064.46875 571.257812 1064.410156 571.226562 1064.359375 571.195312 C 1064.359375 571.195312 1064.351562 571.191406 1064.351562 571.1875 C 1064.289062 571.15625 1064.230469 571.121094 1064.171875 571.089844 C 1064.160156 571.082031 1064.148438 571.078125 1064.140625 571.070312 C 1064.089844 571.039062 1064.03125 571.011719 1063.980469 570.980469 C 1063.96875 570.976562 1063.96875 570.972656 1063.960938 570.96875 C 1063.839844 570.898438 1063.710938 570.832031 1063.589844 570.765625 C 1063.578125 570.757812 1063.578125 570.757812 1063.570312 570.753906 C 1025.960938 549.746094 974 537.480469 927.027344 521.691406 L 927.027344 269.609375 C 1104.238281 283.738281 1250.789062 322.359375 1328.910156 373.46875 L 1328.910156 636.851562 C 1311.300781 646.898438 1291.339844 656.476562 1269.28125 665.507812 C 1234.421875 645.769531 1189.378906 628.246094 1135.050781 613.3125 C 1134.820312 613.246094 1134.589844 613.21875 1134.359375 613.21875 C 1133.21875 613.21875 1132.179688 613.972656 1131.859375 615.125 C 1131.480469 616.507812 1132.289062 617.933594 1133.671875 618.3125 C 1185.738281 632.625 1229.140625 649.296875 1263.109375 668 C 1255.738281 670.933594 1248.121094 673.8125 1240.308594 676.625 C 1210.578125 662.84375 1175.378906 650.332031 1135.050781 639.246094 C 1134.820312 639.183594 1134.589844 639.152344 1134.359375 639.152344 C 1133.21875 639.152344 1132.179688 639.90625 1131.859375 641.058594 C 1131.480469 642.441406 1132.289062 643.867188 1133.671875 644.246094 C 1171.558594 654.664062 1204.871094 666.328125 1233.28125 679.117188 C 1207.269531 688.207031 1178.96875 696.617188 1148.660156 704.269531" fill="#fafafa"/></g><g><path d="M 1285 499.144531 C 1284.511719 499.144531 1284.019531 499.007812 1283.578125 498.722656 C 1247.300781 474.984375 1196.871094 454.140625 1133.671875 436.769531 C 1132.289062 436.390625 1131.480469 434.960938 1131.859375 433.578125 C 1132.238281 432.199219 1133.671875 431.390625 1135.050781 431.769531 C 1198.761719 449.28125 1249.691406 470.347656 1286.421875 494.382812 C 1287.621094 495.164062 1287.960938 496.773438 1287.171875 497.972656 C 1286.679688 498.730469 1285.851562 499.144531 1285 499.144531" fill="#a6b3dd"/></g><g><path d="M 1285 525.078125 C 1284.511719 525.078125 1284.019531 524.941406 1283.578125 524.65625 C 1247.300781 500.921875 1196.871094 480.074219 1133.671875 462.703125 C 1132.289062 462.324219 1131.480469 460.894531 1131.859375 459.515625 C 1132.238281 458.132812 1133.671875 457.324219 1135.050781 457.703125 C 1198.761719 475.21875 1249.691406 496.285156 1286.421875 520.316406 C 1287.621094 521.101562 1287.960938 522.707031 1287.171875 523.90625 C 1286.679688 524.667969 1285.851562 525.078125 1285 525.078125" fill="#a6b3dd"/></g><g><path d="M 1285 551.015625 C 1284.511719 551.015625 1284.019531 550.878906 1283.578125 550.59375 C 1247.300781 526.855469 1196.871094 506.011719 1133.671875 488.636719 C 1132.289062 488.257812 1131.480469 486.828125 1131.859375 485.449219 C 1132.238281 484.066406 1133.671875 483.257812 1135.050781 483.636719 C 1198.761719 501.152344 1249.691406 522.21875 1286.421875 546.25 C 1287.621094 547.035156 1287.960938 548.644531 1287.171875 549.839844 C 1286.679688 550.601562 1285.851562 551.015625 1285 551.015625" fill="#a6b3dd"/></g><g><path d="M 1285 576.949219 C 1284.511719 576.949219 1284.019531 576.8125 1283.578125 576.527344 C 1247.300781 552.789062 1196.871094 531.945312 1133.671875 514.570312 C 1132.289062 514.191406 1131.480469 512.765625 1131.859375 511.382812 C 1132.238281 510.003906 1133.671875 509.191406 1135.050781 509.570312 C 1198.761719 527.085938 1249.691406 548.152344 1286.421875 572.1875 C 1287.621094 572.96875 1287.960938 574.578125 1287.171875 575.777344 C 1286.679688 576.535156 1285.851562 576.949219 1285 576.949219" fill="#a6b3dd"/></g><g><path d="M 1285 602.886719 C 1284.511719 602.886719 1284.019531 602.75 1283.578125 602.460938 C 1247.300781 578.726562 1196.871094 557.878906 1133.671875 540.507812 C 1132.289062 540.128906 1131.480469 538.699219 1131.859375 537.320312 C 1132.238281 535.9375 1133.671875 535.128906 1135.050781 535.507812 C 1198.761719 553.023438 1249.691406 574.089844 1286.421875 598.121094 C 1287.621094 598.90625 1287.960938 600.511719 1287.171875 601.710938 C 1286.679688 602.472656 1285.851562 602.886719 1285 602.886719" fill="#a6b3dd"/></g><g><path d="M 1285 628.820312 C 1284.511719 628.820312 1284.019531 628.683594 1283.578125 628.398438 C 1247.300781 604.660156 1196.859375 583.8125 1133.671875 566.441406 C 1132.289062 566.0625 1131.480469 564.636719 1131.859375 563.253906 C 1132.238281 561.871094 1133.671875 561.0625 1135.050781 561.441406 C 1198.761719 578.957031 1249.691406 600.023438 1286.421875 624.054688 C 1287.621094 624.839844 1287.960938 626.449219 1287.171875 627.644531 C 1286.679688 628.40625 1285.851562 628.820312 1285 628.820312" fill="#a6b3dd"/></g><g><path d="M 1285 654.753906 C 1284.511719 654.753906 1284.019531 654.617188 1283.578125 654.332031 C 1247.300781 630.59375 1196.859375 609.75 1133.671875 592.378906 C 1132.289062 592 1131.480469 590.570312 1131.859375 589.1875 C 1132.238281 587.808594 1133.671875 586.996094 1135.050781 587.378906 C 1198.761719 604.890625 1249.691406 625.957031 1286.421875 649.992188 C 1287.621094 650.773438 1287.960938 652.382812 1287.171875 653.582031 C 1286.679688 654.34375 1285.851562 654.753906 1285 654.753906" fill="#a6b3dd"/></g><g><path d="M 1285 680.691406 C 1284.511719 680.691406 1284.019531 680.554688 1283.578125 680.265625 C 1247.300781 656.527344 1196.859375 635.683594 1133.671875 618.3125 C 1132.289062 617.933594 1131.480469 616.507812 1131.859375 615.125 C 1132.238281 613.742188 1133.671875 612.933594 1135.050781 613.3125 C 1198.761719 630.824219 1249.691406 651.894531 1286.421875 675.925781 C 1287.621094 676.710938 1287.960938 678.316406 1287.171875 679.515625 C 1286.679688 680.277344 1285.851562 680.691406 1285 680.691406" fill="#a6b3dd"/></g><g><path d="M 1285 706.625 C 1284.511719 706.625 1284.019531 706.488281 1283.578125 706.203125 C 1247.300781 682.464844 1196.859375 661.621094 1133.671875 644.246094 C 1132.289062 643.867188 1131.480469 642.441406 1131.859375 641.058594 C 1132.238281 639.679688 1133.671875 638.867188 1135.050781 639.246094 C 1198.761719 656.761719 1249.691406 677.828125 1286.421875 701.859375 C 1287.621094 702.644531 1287.960938 704.253906 1287.171875 705.449219 C 1286.679688 706.210938 1285.851562 706.625 1285 706.625" fill="#a6b3dd"/></g><g><path d="M 969.714844 559.164062 C 1034.121094 563.460938 1081.511719 578.398438 1094.441406 582.84375 L 1094.441406 428.921875 C 1066.660156 420.429688 1008.898438 410.660156 969.714844 407.820312 Z M 1099.621094 590.289062 L 1096.101562 588.941406 C 1095.578125 588.742188 1042.988281 568.90625 966.960938 564.1875 L 964.523438 564.035156 L 964.523438 402.269531 L 967.289062 402.449219 C 1008.371094 405.148438 1069.371094 415.46875 1097.820312 424.539062 L 1099.621094 425.121094 L 1099.621094 590.289062" fill="#a6b3dd"/></g><g><path d="M 1256.769531 405.488281 C 1256.460938 405.488281 1256.140625 405.441406 1255.828125 405.320312 C 1188.28125 379.140625 1099.421875 359.578125 998.886719 348.761719 C 997.464844 348.609375 996.433594 347.328125 996.589844 345.898438 C 996.738281 344.480469 998.039062 343.449219 999.441406 343.601562 C 1100.421875 354.46875 1189.730469 374.140625 1257.710938 400.480469 C 1259.039062 401 1259.710938 402.5 1259.191406 403.839844 C 1258.789062 404.859375 1257.808594 405.488281 1256.769531 405.488281" fill="#a6b3dd"/></g><g><path d="M 1239.488281 425.03125 C 1239.179688 425.03125 1238.859375 424.96875 1238.550781 424.851562 C 1180.089844 402.199219 1103.191406 385.269531 1016.171875 375.910156 C 1014.75 375.75 1013.71875 374.480469 1013.871094 373.050781 C 1014.019531 371.628906 1015.320312 370.601562 1016.730469 370.75 C 1104.191406 380.160156 1181.539062 397.199219 1240.429688 420.019531 C 1241.761719 420.53125 1242.421875 422.039062 1241.910156 423.371094 C 1241.511719 424.398438 1240.53125 425.03125 1239.488281 425.03125" fill="#a6b3dd"/></g><g><path d="M 215.015625 692.683594 C 166.210938 678.261719 123.789062 661.699219 89.222656 643.460938 L 89.222656 375.949219 C 166.367188 330.921875 302.113281 297.46875 463.980469 285.910156 L 463.980469 576.265625 C 434.644531 594.808594 405.164062 620.441406 383.484375 660.273438 C 321.289062 667.941406 264.378906 678.984375 215.015625 692.683594" fill="#fafafa"/></g><g><path d="M 336.828125 470.828125 C 335.570312 470.828125 334.464844 469.90625 334.269531 468.621094 C 334.054688 467.203125 335.027344 465.882812 336.445312 465.667969 C 363.613281 461.550781 392.023438 458.101562 420.882812 455.410156 C 422.3125 455.28125 423.574219 456.328125 423.707031 457.753906 C 423.839844 459.179688 422.789062 460.441406 421.363281 460.574219 C 392.601562 463.257812 364.292969 466.695312 337.222656 470.796875 C 337.089844 470.816406 336.960938 470.828125 336.828125 470.828125" fill="#a6b3dd"/></g><g><path d="M 336.828125 496.761719 C 335.570312 496.761719 334.464844 495.839844 334.269531 494.554688 C 334.054688 493.140625 335.027344 491.816406 336.445312 491.601562 C 363.613281 487.484375 392.023438 484.035156 420.882812 481.347656 C 422.3125 481.214844 423.574219 482.261719 423.707031 483.6875 C 423.839844 485.113281 422.789062 486.378906 421.363281 486.511719 C 392.601562 489.191406 364.292969 492.628906 337.222656 496.730469 C 337.089844 496.75 336.960938 496.761719 336.828125 496.761719" fill="#a6b3dd"/></g><g><path d="M 336.828125 522.695312 C 335.570312 522.695312 334.464844 521.773438 334.269531 520.492188 C 334.054688 519.074219 335.027344 517.753906 336.445312 517.539062 C 363.613281 513.421875 392.023438 509.96875 420.882812 507.28125 C 422.3125 507.144531 423.574219 508.195312 423.707031 509.621094 C 423.839844 511.050781 422.789062 512.3125 421.363281 512.445312 C 392.601562 515.125 364.292969 518.5625 337.222656 522.667969 C 337.089844 522.6875 336.960938 522.695312 336.828125 522.695312" fill="#a6b3dd"/></g><g><path d="M 336.828125 548.632812 C 335.570312 548.632812 334.464844 547.710938 334.269531 546.425781 C 334.054688 545.011719 335.027344 543.6875 336.445312 543.472656 C 363.613281 539.355469 392.023438 535.90625 420.882812 533.214844 C 422.3125 533.085938 423.574219 534.132812 423.707031 535.558594 C 423.839844 536.984375 422.789062 538.246094 421.363281 538.378906 C 392.601562 541.0625 364.292969 544.5 337.222656 548.601562 C 337.089844 548.621094 336.960938 548.632812 336.828125 548.632812" fill="#a6b3dd"/></g><g><path d="M 336.828125 574.566406 C 335.570312 574.566406 334.464844 573.644531 334.269531 572.359375 C 334.054688 570.945312 335.027344 569.621094 336.445312 569.40625 C 363.613281 565.289062 392.023438 561.839844 420.882812 559.152344 C 422.3125 559.019531 423.574219 560.066406 423.707031 561.492188 C 423.839844 562.917969 422.789062 564.183594 421.363281 564.316406 C 392.601562 566.996094 364.292969 570.433594 337.222656 574.535156 C 337.089844 574.554688 336.960938 574.566406 336.828125 574.566406" fill="#a6b3dd"/></g><g><path d="M 149.019531 415.179688 C 147.976562 415.179688 146.996094 414.550781 146.597656 413.519531 C 146.082031 412.179688 146.742188 410.679688 148.078125 410.160156 C 216.054688 383.820312 305.363281 364.160156 406.347656 353.289062 C 407.765625 353.140625 409.050781 354.160156 409.203125 355.589844 C 409.355469 357.011719 408.324219 358.289062 406.902344 358.441406 C 306.363281 369.261719 217.511719 388.820312 149.953125 415 C 149.648438 415.121094 149.328125 415.179688 149.019531 415.179688" fill="#a6b3dd"/></g><g><path d="M 166.300781 434.710938 C 165.261719 434.710938 164.28125 434.078125 163.882812 433.058594 C 163.363281 431.71875 164.027344 430.21875 165.363281 429.699219 C 224.25 406.878906 301.605469 389.851562 389.0625 380.429688 C 390.480469 380.28125 391.765625 381.308594 391.917969 382.730469 C 392.074219 384.160156 391.042969 385.441406 389.617188 385.589844 C 302.605469 394.960938 225.707031 411.878906 167.238281 434.539062 C 166.929688 434.660156 166.613281 434.710938 166.300781 434.710938" fill="#a6b3dd"/></g><g><path d="M 301.125 541.59375 C 300.46875 587.574219 266.089844 623.328125 224.976562 624.199219 C 183.84375 624.964844 146.558594 593.304688 140.953125 550.824219 C 135.355469 508.425781 168.621094 468.042969 216.027344 463.742188 C 263.421875 459.402344 301.808594 495.683594 301.125 541.59375" fill="#f4f5f9"/></g><g><path d="M 289.402344 499.265625 C 274.804688 475.574219 247.035156 461.007812 216.027344 463.742188 C 217.699219 490.390625 219.28125 517.085938 220.769531 543.828125 C 242.910156 528.753906 265.796875 513.878906 289.402344 499.265625" fill="#a6b3dd"/></g><g><path d="M 299.628906 557.167969 C 300.574219 552.125 301.105469 546.921875 301.125 541.59375 C 301.191406 526.160156 297.066406 511.726562 289.59375 499.585938 C 265.925781 514.085938 242.976562 528.855469 220.769531 543.828125 C 247.28125 547.351562 273.578125 551.804688 299.628906 557.167969" fill="#bac6e2"/></g><g><path d="M 282.222656 595.136719 C 290.679688 584.597656 296.867188 571.683594 299.589844 557.371094 C 273.558594 551.9375 247.273438 547.417969 220.769531 543.828125 C 242.035156 560.035156 262.523438 577.15625 282.222656 595.136719" fill="#dde2f2"/></g><g clip-path="url(#a)"><path d="M 1032.03125 1126.820312 C 1039.019531 1023.230469 1078.351562 923.605469 1051.820312 859.105469 C 1051.820312 859.105469 920.113281 597.386719 598.984375 614.207031 C 451.945312 621.910156 384.601562 714.449219 397.28125 797.925781 C 408.695312 873.058594 501.734375 955.953125 501.734375 955.953125 C 502.636719 1010.28125 502.679688 1065.960938 501.734375 1122.941406 C 499.941406 1230.859375 489.296875 1442.070312 489.296875 1442.070312 L 1040.179688 1441.988281 C 1040.179688 1441.988281 1023.851562 1248.261719 1032.03125 1126.820312" fill="#a6b3dd"/></g><g><path d="M 483.914062 830.9375 C 468.910156 850.386719 444.3125 881.027344 452.019531 892.003906 C 453.261719 893.773438 458.777344 888.933594 465.128906 884.089844 C 473.328125 877.839844 482.921875 871.585938 486.5 879.578125 C 496.726562 902.417969 518.800781 934.644531 529.199219 941.730469 C 547.238281 954.019531 561.398438 961.839844 585.84375 961.839844 C 608.34375 961.839844 640.335938 995 662.191406 1020.898438 C 671.503906 1005.769531 689.824219 983.652344 699.136719 968.519531 C 683.296875 944.277344 643.765625 891.398438 572.265625 862.601562 C 540.148438 849.664062 506.144531 832.214844 483.914062 830.9375" fill="#7994d1"/></g><g><path d="M 781.023438 281.101562 C 783.925781 321.589844 790.449219 416.648438 831.449219 465.765625 C 904.621094 553.433594 1000.710938 535.109375 1069.511719 584.800781 C 1145.128906 639.414062 1129.980469 854.371094 1119.929688 923.691406 C 1098.660156 1070.371094 1037.300781 1200.96875 981.289062 1221.96875 C 890.265625 1210.769531 816.398438 1145.121094 776.835938 1107.140625 C 687.535156 1021.429688 625.191406 945.425781 593.800781 908.308594 C 571.878906 882.386719 536.765625 874.746094 525.453125 867.566406 C 525.453125 867.566406 510.089844 871.0625 503.851562 860.175781 C 503.851562 860.175781 486.132812 862.742188 486.738281 846.597656 C 486.738281 846.597656 468.644531 846.9375 474.101562 833.230469 C 478.84375 821.332031 503.851562 792.105469 501.847656 790.164062 C 501.847656 790.164062 485.898438 795.292969 477.59375 808.011719 C 462.269531 831.484375 441.898438 864.269531 433.753906 858.183594 C 422.3125 849.640625 460.003906 797.648438 467.433594 788.941406 C 482.09375 771.769531 508.175781 753.613281 522.214844 749.695312 C 522.214844 749.695312 560.238281 749.695312 593.800781 808.011719 C 614.304688 843.640625 645.539062 859.976562 660.601562 869.078125 C 780.007812 941.214844 936.476562 1062.328125 936.476562 1062.328125 C 936.476562 1062.328125 928.074219 925.09375 951.882812 827.066406 C 977.089844 670.921875 812.777344 603.957031 712.417969 610.007812 C 585.566406 617.652344 238.980469 707.910156 502.121094 956.179688 C 511.4375 1015.800781 510.304688 1074.640625 512.234375 1148.148438 C 515.238281 1262.621094 502.039062 1441.988281 502.039062 1441.988281 L 401.160156 1441.210938 C 401.160156 1441.210938 421.394531 1290.328125 416.664062 1192.261719 C 410.574219 1066.039062 400.332031 1051.011719 380.6875 909.742188 C 359.953125 760.609375 372.300781 668.859375 425.339844 614.207031 C 472.351562 565.765625 506.199219 559.152344 565.378906 521.78125 C 648.511719 469.28125 596.867188 412.839844 589.726562 368.050781 C 645.273438 350.78125 725.476562 298.371094 781.023438 281.101562" fill="#ffb6b6"/></g><g><path d="M 771.71875 283.828125 C 766.039062 299.601562 759.964844 319.558594 748.023438 341.140625 C 723.242188 385.929688 672.210938 423.320312 630.808594 445.300781 C 642.445312 460.433594 694.070312 461.734375 741.039062 445.898438 C 759.097656 439.808594 786.433594 435.449219 804.902344 417.160156 C 791.152344 368.75 783.058594 309.480469 781.023438 281.101562 C 775.417969 282.839844 777.890625 281.460938 771.71875 283.828125" fill="#f7a1a1"/></g><g><path d="M 601.023438 92.539062 C 573.410156 102.761719 551.660156 122.328125 542.601562 135.660156 C 534.46875 165.761719 527.582031 236.421875 546.730469 313.589844 C 563.53125 381.300781 597.226562 442.992188 615.476562 445.148438 C 663.136719 450.777344 738.296875 404.789062 762.449219 350.96875 C 774.460938 324.199219 773.238281 295.800781 772.46875 261.808594 C 771.34375 211.960938 761.304688 171.660156 752.847656 145.210938 C 710.515625 95.199219 649.613281 74.539062 601.023438 92.539062" fill="#ffc7c7"/></g><g><path d="M 1125.921875 865.398438 C 1126.808594 852.746094 1127.519531 839.113281 1127.929688 824.886719 C 1107.230469 838.050781 1078.050781 851.601562 1041.351562 855.617188 C 1000.019531 860.136719 966.71875 850.648438 948.21875 843.695312 C 943.984375 864.878906 942.089844 876.542969 940.078125 898.683594 C 1030.871094 907.992188 1097.21875 881.222656 1125.921875 865.398438" fill="#f7a1a1"/></g><g><path d="M 502.121094 956.179688 C 495.75 948.136719 489.816406 940.289062 484.257812 932.613281 C 472.074219 932.710938 458.648438 932.042969 444.226562 930.109375 C 419.035156 926.730469 397.804688 920.449219 381.3125 914.210938 C 384.007812 933.394531 386.519531 950.214844 388.863281 965.289062 C 402.046875 970.398438 420.546875 975.703125 443.0625 976.667969 C 467.542969 977.71875 488.339844 973.269531 503.851562 968.148438 C 503.316406 964.160156 502.746094 960.171875 502.121094 956.179688" fill="#f7a1a1"/></g><g><path d="M 808.507812 86.5 C 823.839844 106.28125 828.136719 130.03125 823.476562 173.539062 C 820.183594 204.300781 805.542969 225.339844 799.6875 233.550781 C 790.171875 246.878906 779.925781 256.03125 772.46875 261.808594 C 761.1875 261.421875 764.261719 261.578125 752.976562 261.191406 C 752.589844 237.019531 761.804688 185.761719 749.019531 164.230469 C 725.089844 123.941406 653.871094 123.011719 621.027344 125.328125 C 588.628906 127.621094 568.253906 144.019531 551.875 165.128906 C 525.941406 198.558594 541.566406 220.328125 527.867188 220.289062 C 492.410156 220.191406 447.730469 173.351562 458.648438 113.699219 C 468.988281 57.199219 518.191406 16.890625 569.226562 16.53125 C 590.472656 16.390625 607.8125 27.121094 618.617188 35.789062 C 621.921875 29.339844 629.96875 15.929688 645.835938 7.53125 C 668.957031 -4.71875 701.660156 -2.628906 722.109375 18.320312 C 742.695312 39.421875 739.539062 68.050781 739.027344 72.089844 C 742.785156 66.199219 783.097656 53.710938 808.507812 86.5" fill="#4e62bd"/></g><g><path d="M 1082.511719 583.121094 C 1026.851562 540.0625 916.421875 530.660156 855.109375 488.964844 C 833.226562 551.070312 783.242188 584.15625 718.082031 593.621094 C 652.921875 603.089844 590.085938 583.628906 551.4375 530.316406 C 509.867188 555.851562 424.015625 576.820312 378.855469 669.238281 C 340.445312 747.847656 358.074219 917.945312 365.203125 936 C 379.277344 944.558594 405.898438 958.128906 441.871094 961.203125 C 466.980469 963.351562 487.820312 959.636719 501.734375 955.953125 C 501.734375 955.953125 500.292969 948.828125 492.242188 940.023438 C 468.066406 913.589844 415.378906 855.773438 412.023438 800.253906 C 407.085938 718.453125 491.128906 642.914062 683.007812 628.210938 C 772.320312 621.367188 934.429688 883.488281 934.429688 883.488281 C 958.371094 886.976562 996.96875 889.617188 1042.601562 879.285156 C 1090.371094 868.476562 1116.46875 853.949219 1136.738281 839.964844 C 1140.710938 825.925781 1147.601562 633.472656 1082.511719 583.121094" fill="#a6b3dd"/></g><g><path d="M 757.507812 267.101562 C 772.464844 208.488281 788.832031 203.820312 803.019531 207.449219 C 815.371094 210.601562 816.964844 242.828125 817.085938 261.878906 C 817.21875 283.128906 810.390625 301.75 796.066406 308.289062 C 778.925781 316.109375 757.863281 299.191406 756.71875 298.238281" fill="#ffc7c7"/></g><g><path d="M 692.761719 614.695312 C 609.242188 614.695312 553.113281 555.699219 543.289062 536.042969 C 543 535.46875 543.234375 534.769531 543.808594 534.480469 C 544.386719 534.195312 545.082031 534.429688 545.371094 535.003906 C 555.023438 554.308594 610.347656 612.367188 692.753906 612.367188 C 693.710938 612.367188 694.664062 612.359375 695.628906 612.347656 C 754.539062 611.480469 797.019531 586.285156 822.277344 565.304688 C 851.753906 540.816406 868.539062 513.671875 872.628906 501.398438 C 872.832031 500.789062 873.488281 500.460938 874.101562 500.664062 C 874.710938 500.867188 875.039062 501.527344 874.835938 502.136719 C 870.660156 514.660156 853.617188 542.296875 823.765625 567.09375 C 798.21875 588.316406 755.253906 613.800781 695.664062 614.675781 C 694.695312 614.6875 693.722656 614.695312 692.761719 614.695312" fill="#4e62bd"/></g><g><path d="M 933.097656 882.386719 C 933.003906 882.386719 932.910156 882.375 932.816406 882.355469 C 932.191406 882.199219 931.8125 881.566406 931.964844 880.941406 C 936.671875 861.984375 939.011719 842.5 938.914062 823.03125 C 938.796875 798.667969 934.902344 774.507812 927.332031 751.21875 C 927.132812 750.605469 927.46875 749.949219 928.082031 749.75 C 928.6875 749.554688 929.347656 749.886719 929.546875 750.5 C 937.1875 774.019531 941.125 798.414062 941.242188 823.019531 C 941.339844 842.683594 938.976562 862.359375 934.226562 881.503906 C 934.09375 882.03125 933.617188 882.386719 933.097656 882.386719" fill="#4e62bd"/></g><g><path d="M 808.078125 200.320312 C 807.875 200.289062 807.675781 200.199219 807.507812 200.058594 C 807.019531 199.640625 806.964844 198.910156 807.382812 198.421875 C 835.101562 166.078125 835.027344 103.25 807.238281 76.199219 C 780.871094 50.53125 740.996094 61.179688 727.898438 73.851562 C 727.4375 74.300781 726.699219 74.289062 726.253906 73.820312 C 725.804688 73.359375 725.816406 72.621094 726.28125 72.179688 C 739.929688 58.980469 781.453125 47.851562 808.859375 74.53125 C 822.710938 88.011719 830.585938 110.328125 830.464844 135.761719 C 830.351562 160.5 822.382812 184.488281 809.148438 199.929688 C 808.875 200.25 808.46875 200.390625 808.078125 200.320312" fill="#4e62bd"/></g><g><path d="M 986.636719 1100.050781 C 985.996094 1100.050781 985.472656 1099.53125 985.472656 1098.890625 C 985.472656 1087.789062 952.121094 1063.96875 936.585938 1063.96875 C 935.945312 1063.96875 935.425781 1063.449219 935.425781 1062.800781 C 935.425781 1062.160156 935.945312 1061.640625 936.585938 1061.640625 C 953.339844 1061.640625 987.804688 1086.699219 987.804688 1098.890625 C 987.804688 1099.53125 987.28125 1100.050781 986.636719 1100.050781" fill="#f28f8f"/></g><g><path d="M 801.402344 293.558594 C 801.128906 293.511719 800.867188 293.371094 800.679688 293.140625 C 800.277344 292.628906 800.359375 291.898438 800.859375 291.5 C 809.941406 284.238281 808.832031 249.828125 803.648438 230.171875 C 801.277344 221.171875 798.703125 217.679688 797.09375 217.429688 C 790.027344 216.289062 779.15625 225.761719 775.148438 236.539062 C 774.925781 237.140625 774.257812 237.449219 773.648438 237.230469 C 773.050781 237 772.742188 236.328125 772.964844 235.730469 C 777.390625 223.828125 789.296875 213.820312 797.460938 215.128906 C 800.667969 215.640625 803.507812 220.5 805.902344 229.578125 C 811.175781 249.601562 812.4375 285.230469 802.316406 293.320312 C 802.050781 293.53125 801.71875 293.609375 801.402344 293.558594" fill="#f28f8f"/></g><g><path d="M 788.332031 288.761719 C 787.941406 288.691406 787.550781 288.601562 787.15625 288.480469 C 783.617188 287.421875 781.15625 284.449219 781.023438 281.101562 C 780.804688 275.421875 783.046875 269.230469 784.84375 264.269531 C 786.097656 260.800781 787.660156 256.480469 786.773438 255.648438 C 786.707031 255.578125 785.03125 254.230469 772.976562 262.738281 C 772.453125 263.109375 771.726562 262.980469 771.355469 262.460938 C 770.984375 261.929688 771.109375 261.210938 771.636719 260.839844 C 783.734375 252.289062 786.882812 252.558594 788.367188 253.949219 C 790.371094 255.828125 788.972656 259.699219 787.03125 265.058594 C 785.300781 269.839844 783.148438 275.78125 783.351562 281.011719 C 783.441406 283.328125 785.28125 285.488281 787.824219 286.261719 C 790.515625 287.070312 793.136719 286.121094 794.851562 283.730469 C 795.226562 283.210938 795.953125 283.089844 796.476562 283.460938 C 796.996094 283.839844 797.117188 284.558594 796.742188 285.089844 C 794.703125 287.929688 791.558594 289.269531 788.332031 288.761719" fill="#f28f8f"/></g><g><path d="M 1029.660156 1179.160156 C 1013.808594 1200.960938 997.328125 1215.960938 981.289062 1221.96875 C 890.265625 1210.769531 816.398438 1145.121094 776.835938 1107.140625 C 710.164062 1043.148438 657.972656 988.855469 620.644531 952.042969 C 598.179688 959.128906 704.492188 1069.039062 765.484375 1126.820312 C 831.832031 1189.679688 928.441406 1266.5 975 1266.5 C 1002.488281 1266.5 1012.25 1251.371094 1030 1223.429688 C 1030.871094 1223.429688 1028.921875 1209.078125 1029.660156 1179.160156" fill="#7994d1"/></g><g><path d="M 529.453125 1368.929688 C 561.464844 1308.398438 505.9375 1284.320312 529.453125 1200.148438 C 551.570312 1121 518.660156 1111.859375 506.714844 993.597656 C 509.921875 1146.441406 489.332031 1441.839844 489.332031 1441.839844 C 489.332031 1441.839844 531.382812 1441.988281 531.527344 1441.988281 C 531.527344 1441.988281 508.140625 1409.230469 529.453125 1368.929688" fill="#7994d1"/></g><g><path d="M 1029.519531 1185.289062 C 995.421875 1208.511719 985.3125 1230.078125 983.144531 1246.710938 C 979.867188 1271.859375 1005.511719 1279.589844 1002.929688 1290.941406 C 997.113281 1316.550781 923.476562 1316.738281 912.144531 1366.601562 C 906.324219 1392.210938 921.46875 1418.96875 937.171875 1441.601562 C 972.28125 1441.988281 1040.179688 1441.988281 1040.179688 1441.988281 C 1040.179688 1441.988281 1027.640625 1279.828125 1029.519531 1185.289062" fill="#7994d1"/></g><g><path d="M 1082.511719 583.121094 C 1042.78125 552.386719 975.152344 538.796875 917.398438 518.375 C 934.050781 533.230469 971.507812 546.898438 993.621094 557.640625 C 1034.359375 577.425781 1070.589844 586.175781 1086.738281 617.003906 C 1103.609375 649.203125 1073.941406 677.527344 1083.25 734.5625 C 1088.570312 767.152344 1119.328125 788.105469 1116.980469 852.3125 C 1124.328125 848.21875 1130.789062 844.066406 1136.738281 839.964844 C 1140.710938 825.925781 1147.601562 633.472656 1082.511719 583.121094" fill="#7994d1"/></g><g><path d="M 471.550781 855.074219 C 471.550781 855.074219 506.5 903.53125 502.121094 956.179688 C 502.121094 956.179688 512.125 952.042969 517.171875 935.734375 C 525.871094 907.609375 503.851562 908.382812 504.429688 875.664062 C 493.6875 870.410156 483.703125 863.914062 471.550781 855.074219" fill="#7994d1"/></g><g><path d="M 509.910156 213.890625 C 501.207031 212.5 489.078125 208.820312 475.851562 199.621094 C 459.746094 188.410156 449.492188 169.640625 446.976562 146.761719 C 444.664062 125.738281 449.074219 102.628906 459.082031 83.371094 C 483.90625 35.578125 535.242188 30.160156 541.011719 29.699219 L 541.199219 32.019531 C 535.558594 32.46875 485.394531 37.761719 461.148438 84.441406 C 442 121.300781 442.761719 173.75 477.179688 197.710938 C 498.484375 212.539062 516.730469 212.609375 521.816406 212.28125 L 521.964844 214.601562 C 519.871094 214.738281 515.632812 214.808594 509.910156 213.890625" fill="#4e62bd"/></g><g><path d="M 599.839844 337.179688 C 591.621094 335.871094 586.074219 332.171875 584.257812 328.71875 C 582.234375 324.878906 584.636719 320.839844 587.960938 315.238281 C 592.945312 306.859375 600.476562 294.179688 599.433594 272.148438 C 599.40625 271.511719 599.902344 270.96875 600.542969 270.941406 C 601.1875 270.910156 601.730469 271.398438 601.761719 272.039062 C 602.835938 294.761719 595.089844 307.808594 589.960938 316.429688 C 586.914062 321.558594 584.902344 324.949219 586.316406 327.628906 C 588.578125 331.929688 600.101562 338.191406 617.664062 333.941406 C 618.289062 333.78125 618.917969 334.171875 619.070312 334.789062 C 619.222656 335.421875 618.839844 336.050781 618.214844 336.199219 C 611.210938 337.898438 604.996094 338.011719 599.839844 337.179688" fill="#f28f8f"/></g><g><path d="M 677.316406 245.058594 C 678.109375 250.148438 673.828125 255.03125 667.753906 255.980469 C 661.683594 256.921875 656.117188 253.570312 655.324219 248.488281 C 654.535156 243.410156 658.816406 238.519531 664.890625 237.578125 C 670.960938 236.628906 676.527344 239.980469 677.316406 245.058594" fill="#282828"/></g><g><path d="M 571.390625 262.320312 C 572.136719 267.078125 568.359375 271.628906 562.960938 272.46875 C 557.5625 273.308594 552.582031 270.128906 551.839844 265.371094 C 551.097656 260.601562 554.875 256.058594 560.273438 255.21875 C 565.671875 254.378906 570.652344 257.558594 571.390625 262.320312" fill="#282828"/></g><g><path d="M 594.320312 367.25 C 594.320312 367.25 601.8125 369.929688 615.03125 368.878906 C 634.035156 367.359375 655.113281 357.730469 669.316406 347.089844 C 668.542969 349.058594 655.9375 379.789062 626.9375 384.128906 C 616.097656 385.75 606.082031 384.578125 601.414062 380.871094 C 593.34375 374.449219 594.320312 367.25 594.320312 367.25" fill="#fff"/></g><g><path d="M 668.949219 349.378906 L 668.957031 349.390625 Z M 669.6875 344.789062 L 669.59375 344.769531 C 669.105469 344.71875 668.632812 344.808594 668.230469 345.03125 C 668.132812 345.078125 668.035156 345.140625 667.945312 345.210938 L 667.941406 345.210938 L 667.917969 345.230469 C 652.398438 356.851562 631.566406 365.230469 614.84375 366.558594 C 608.050781 367.101562 602.863281 366.609375 599.710938 366.101562 C 596.726562 365.621094 595.109375 365.058594 595.09375 365.058594 C 594.964844 365.011719 594.828125 364.980469 594.691406 364.960938 C 594.148438 364.871094 593.582031 364.980469 593.105469 365.269531 C 592.511719 365.628906 592.105469 366.25 592.011719 366.941406 C 591.964844 367.289062 590.960938 375.53125 599.96875 382.691406 C 602.355469 384.589844 605.800781 385.910156 610.207031 386.609375 C 615.222656 387.421875 621.128906 387.359375 627.28125 386.429688 C 657.226562 381.960938 670.398438 350.640625 671.4375 348.058594 C 671.523438 347.871094 671.585938 347.671875 671.617188 347.460938 C 671.820312 346.191406 670.972656 345.011719 669.71875 344.789062 Z M 669.316406 347.089844 C 668.542969 349.058594 655.9375 379.789062 626.9375 384.128906 C 620.988281 385.019531 615.28125 385.070312 610.574219 384.308594 C 606.710938 383.699219 603.519531 382.539062 601.414062 380.871094 C 593.34375 374.449219 594.320312 367.25 594.320312 367.25 C 594.320312 367.25 596.058594 367.878906 599.34375 368.398438 C 602.871094 368.960938 608.183594 369.421875 615.03125 368.878906 C 634.035156 367.359375 655.113281 357.730469 669.316406 347.089844 M 669.316406 347.089844 L 669.324219 347.089844" fill="#f28f8f"/></g><g><path d="M 631.953125 216.699219 C 638.296875 210.941406 645.644531 206.390625 653.582031 203.398438 C 657.550781 201.910156 661.648438 200.800781 665.816406 200.148438 C 667.902344 199.859375 669.988281 199.578125 672.09375 199.53125 L 675.234375 199.378906 L 678.375 199.511719 C 682.558594 199.640625 686.6875 200.390625 690.714844 201.359375 C 694.722656 202.449219 698.625 203.839844 702.347656 205.609375 C 709.757812 209.179688 716.574219 213.898438 722.296875 219.679688 C 716.179688 214.320312 709.109375 210.160156 701.65625 207.210938 C 697.910156 205.761719 694.050781 204.679688 690.144531 203.921875 C 686.226562 203.269531 682.269531 202.839844 678.324219 203 L 675.371094 203.089844 L 672.441406 203.449219 C 670.484375 203.628906 668.5625 204.03125 666.648438 204.429688 C 662.832031 205.308594 659.132812 206.609375 655.59375 208.238281 C 648.527344 211.480469 642.132812 216.140625 636.835938 221.699219 C 635.503906 223.101562 633.292969 223.148438 631.894531 221.820312 C 630.496094 220.488281 630.441406 218.28125 631.769531 216.878906 L 631.953125 216.699219" fill="#282828"/></g><g><path d="M 537.835938 223.75 C 542.183594 221.148438 546.933594 219.25 551.824219 218.210938 C 556.722656 217.238281 561.726562 216.96875 566.589844 217.621094 C 571.445312 218.238281 576.121094 219.671875 580.46875 221.671875 C 584.785156 223.71875 588.839844 226.269531 592.367188 229.390625 C 588.488281 226.730469 584.210938 224.75 579.824219 223.289062 C 575.421875 221.890625 570.863281 221.121094 566.347656 221.101562 C 561.835938 221.058594 557.398438 221.890625 553.214844 223.261719 C 549.042969 224.710938 545.179688 226.851562 541.757812 229.53125 C 540.234375 230.710938 538.035156 230.441406 536.84375 228.921875 C 535.65625 227.398438 535.925781 225.199219 537.449219 224.011719 C 537.558594 223.921875 537.675781 223.839844 537.789062 223.769531 L 537.835938 223.75" fill="#282828"/></g><g><path d="M 542.113281 263.828125 C 541.980469 263.808594 541.851562 263.769531 541.726562 263.699219 C 541.167969 263.378906 540.96875 262.671875 541.28125 262.109375 L 541.351562 261.988281 C 543.289062 258.371094 550.664062 246.671875 564.035156 247.890625 C 569.546875 248.390625 573.921875 251.109375 578.152344 253.730469 C 581.105469 255.558594 583.894531 257.289062 586.765625 258.019531 C 587.390625 258.179688 587.765625 258.808594 587.609375 259.429688 C 587.449219 260.058594 586.8125 260.429688 586.191406 260.269531 C 582.972656 259.460938 580.035156 257.640625 576.925781 255.710938 C 572.925781 253.230469 568.789062 250.671875 563.824219 250.210938 C 551.875 249.121094 545.171875 259.789062 543.402344 263.089844 L 543.3125 263.25 C 543.066406 263.691406 542.582031 263.910156 542.113281 263.828125" fill="#f28f8f"/></g><g><path d="M 650.480469 245.980469 C 650.347656 245.960938 650.21875 245.910156 650.09375 245.839844 C 649.539062 245.53125 649.339844 244.839844 649.636719 244.28125 C 649.671875 244.210938 649.71875 244.078125 649.789062 243.910156 C 654.121094 233 662.199219 228.089844 672.515625 230.058594 C 680.078125 231.511719 684.726562 234.808594 688.121094 237.230469 C 690.757812 239.109375 692.664062 240.460938 694.660156 240.140625 C 695.296875 240.039062 695.894531 240.46875 695.996094 241.109375 C 696.097656 241.738281 695.664062 242.339844 695.03125 242.441406 C 692.09375 242.921875 689.742188 241.238281 686.773438 239.128906 C 683.375 236.710938 679.144531 233.699219 672.078125 232.339844 C 662.828125 230.578125 655.882812 234.871094 651.949219 244.769531 C 651.824219 245.089844 651.730469 245.308594 651.679688 245.398438 C 651.433594 245.828125 650.949219 246.050781 650.480469 245.980469" fill="#f28f8f"/></g><g><path d="M 661.890625 964.179688 C 661.890625 964.179688 606.019531 900.601562 592.050781 883.28125 C 581.925781 870.726562 572.496094 860.582031 552.355469 862.742188 C 545.882812 863.4375 540.066406 869.855469 535.359375 872.300781 C 547.511719 879.335938 572.414062 883.023438 593.800781 908.308594 C 625.191406 945.425781 687.535156 1021.429688 776.835938 1107.140625 C 816.398438 1145.121094 890.265625 1210.769531 981.289062 1221.96875 C 981.542969 1221.878906 981.800781 1221.761719 982.054688 1221.660156 C 965.988281 1210.109375 919.433594 1195.21875 876.0625 1168.449219 C 841.421875 1147.070312 747.019531 1061.640625 661.890625 964.179688" fill="#f7a1a1"/></g><g><path d="M 486.585938 847.871094 C 486.363281 847.871094 486.136719 847.800781 485.949219 847.648438 C 485.503906 847.300781 485.425781 846.652344 485.777344 846.207031 L 514.46875 809.714844 C 514.816406 809.269531 515.464844 809.191406 515.910156 809.542969 C 516.359375 809.894531 516.433594 810.539062 516.085938 810.988281 L 487.394531 847.476562 C 487.191406 847.734375 486.890625 847.871094 486.585938 847.871094" fill="#f28f8f"/></g><g><path d="M 502.835938 859.871094 C 502.617188 859.871094 502.394531 859.800781 502.210938 859.660156 C 501.757812 859.3125 501.675781 858.667969 502.019531 858.21875 L 528.957031 823.097656 C 529.304688 822.644531 529.949219 822.5625 530.398438 822.90625 C 530.847656 823.253906 530.933594 823.894531 530.589844 824.347656 L 503.652344 859.46875 C 503.449219 859.730469 503.144531 859.871094 502.835938 859.871094" fill="#f28f8f"/></g><g><path d="M 440.335938 849.046875 C 438.613281 852.777344 435.695312 855.097656 433.8125 854.230469 C 431.925781 853.363281 431.792969 849.636719 433.511719 845.902344 C 435.230469 842.171875 438.152344 839.851562 440.035156 840.71875 C 441.921875 841.585938 442.054688 845.316406 440.335938 849.046875" fill="#f28f8f"/></g><g><path d="M 533.835938 869.0625 C 527.257812 869.0625 523.027344 867.71875 521.246094 865.066406 C 520.023438 863.25 520.34375 861.308594 520.683594 860.535156 C 523.464844 854.210938 530.339844 846.535156 535.359375 840.933594 C 537.179688 838.902344 538.746094 837.148438 539.664062 835.960938 C 540.011719 835.507812 540.660156 835.425781 541.109375 835.773438 C 541.558594 836.117188 541.640625 836.765625 541.296875 837.214844 C 540.332031 838.464844 538.738281 840.242188 536.894531 842.304688 C 531.964844 847.804688 525.214844 855.339844 522.566406 861.363281 C 522.5625 861.375 522.085938 862.644531 522.960938 863.933594 C 523.800781 865.171875 526.511719 867.214844 535.148438 866.988281 C 537.835938 866.917969 545.511719 864.933594 547.6875 860.675781 C 548.777344 858.539062 548.34375 856.023438 546.402344 853.195312 C 546.082031 852.726562 546.203125 852.085938 546.671875 851.765625 C 547.140625 851.441406 547.777344 851.5625 548.101562 852.03125 C 550.5 855.527344 550.976562 858.75 549.519531 861.609375 C 546.769531 867.003906 537.9375 868.972656 535.203125 869.042969 C 534.738281 869.054688 534.28125 869.0625 533.835938 869.0625" fill="#f28f8f"/></g><g><path d="M 417.359375 1218.53125 C 203.773438 1189.101562 44.40625 1127.5 0 1053 L 0 569.230469 C 15.910156 595.925781 46.585938 620.964844 89.222656 643.460938 L 89.222656 742.527344 C 121.621094 723.613281 164.351562 706.746094 215.015625 692.683594 C 259.125 705.71875 308.445312 717.003906 361.871094 726.1875 C 347.152344 810.464844 359.515625 921.597656 365.203125 936 C 370.457031 939.195312 377.460938 943.089844 386.050781 946.878906 C 402.246094 1054.890625 411.15625 1078.058594 416.664062 1192.261719 C 417.070312 1200.671875 417.292969 1209.46875 417.359375 1218.53125" fill="#fafafa"/></g><g><path d="M 89.222656 742.527344 L 89.222656 643.460938 C 123.789062 661.699219 166.210938 678.261719 215.015625 692.683594 C 164.351562 706.746094 121.621094 723.613281 89.222656 742.527344" fill="#f8f8f8"/></g><g><path d="M 610.496094 1235.351562 C 581.035156 1234.160156 552.152344 1232.398438 523.925781 1230.109375 C 524.679688 1221 526.398438 1211.078125 529.453125 1200.148438 C 551.566406 1121.019531 518.671875 1111.859375 506.722656 993.652344 C 505.5625 981.101562 504.070312 968.65625 502.121094 956.179688 C 501.960938 955.972656 501.800781 955.769531 501.640625 955.566406 C 501.214844 953.972656 499.191406 947.625 492.242188 940.023438 C 468.066406 913.589844 415.378906 855.773438 412.023438 800.253906 C 410.683594 778.074219 415.882812 756.363281 428.003906 736.191406 C 485.433594 743.753906 546.644531 749.003906 610.496094 751.578125 L 610.496094 831.003906 C 604.546875 824.390625 598.847656 816.785156 593.800781 808.011719 C 560.238281 749.695312 522.214844 749.695312 522.214844 749.695312 C 508.175781 753.613281 482.09375 771.769531 467.433594 788.941406 C 460.003906 797.648438 422.3125 849.640625 433.753906 858.183594 C 434.425781 858.6875 435.179688 858.925781 436.007812 858.925781 C 445.226562 858.921875 463.535156 829.546875 477.59375 808.011719 C 485.898438 795.292969 501.847656 790.164062 501.847656 790.164062 C 503.851562 792.105469 478.84375 821.332031 474.101562 833.230469 C 472.3125 837.726562 473.054688 840.710938 474.863281 842.691406 C 460.910156 861.054688 445.738281 883.058594 452.019531 892.003906 C 452.199219 892.257812 452.46875 892.375 452.816406 892.375 C 454.871094 892.375 459.695312 888.234375 465.128906 884.089844 C 470.558594 879.949219 476.605469 875.808594 481.105469 875.808594 C 482.226562 875.808594 483.25 876.0625 484.148438 876.640625 C 493.667969 895.699219 504.695312 925.214844 502.121094 956.179688 C 502.121094 956.179688 512.125 952.042969 517.171875 935.734375 C 517.703125 934.011719 518.121094 932.394531 518.4375 930.871094 C 522.582031 935.917969 526.335938 939.777344 529.199219 941.730469 C 547.238281 954.019531 561.398438 961.839844 585.84375 961.839844 C 593.265625 961.839844 601.714844 965.445312 610.496094 971.207031 L 610.496094 1235.351562" fill="#dfe2ef"/></g><g><path d="M 610.496094 971.207031 C 601.714844 965.445312 593.265625 961.839844 585.84375 961.839844 C 561.398438 961.839844 547.238281 954.019531 529.199219 941.730469 C 526.335938 939.777344 522.582031 935.917969 518.4375 930.871094 C 523.253906 907.578125 503.886719 906.375 504.429688 875.664062 C 493.6875 870.410156 483.703125 863.914062 471.550781 855.074219 C 471.550781 855.074219 477.480469 863.292969 484.148438 876.640625 C 483.25 876.0625 482.226562 875.808594 481.105469 875.808594 C 476.605469 875.808594 470.558594 879.949219 465.128906 884.089844 C 459.695312 888.234375 454.871094 892.375 452.816406 892.375 C 452.46875 892.375 452.199219 892.257812 452.019531 892.003906 C 445.738281 883.058594 460.910156 861.054688 474.863281 842.691406 C 477.714844 845.816406 483.214844 846.445312 485.59375 846.566406 C 485.488281 846.953125 485.613281 847.386719 485.949219 847.648438 C 486.136719 847.800781 486.363281 847.871094 486.585938 847.871094 C 486.632812 847.871094 486.679688 847.867188 486.726562 847.859375 C 486.988281 858.949219 496.542969 860.324219 501.265625 860.324219 C 502.820312 860.324219 503.851562 860.175781 503.851562 860.175781 C 507.652344 866.804688 514.835938 868.101562 519.871094 868.101562 C 522.046875 868.101562 523.824219 867.859375 524.753906 867.703125 C 525.363281 867.949219 526.03125 868.164062 526.765625 868.347656 C 529.023438 869.605469 531.960938 870.894531 535.382812 872.316406 C 540.824219 875.460938 548.816406 877.9375 557.898438 881.980469 C 570.214844 887.941406 583.46875 896.09375 593.800781 908.308594 C 598.632812 914.027344 604.207031 920.667969 610.496094 928.125 L 610.496094 971.207031" fill="#d1d9ec"/></g><g><path d="M 501.496094 1228.171875 C 472.664062 1225.5 444.558594 1222.269531 417.359375 1218.53125 C 417.292969 1209.46875 417.070312 1200.671875 416.664062 1192.261719 C 411.15625 1078.058594 402.246094 1054.890625 386.050781 946.878906 C 387.015625 953.304688 387.953125 959.429688 388.863281 965.289062 C 402.046875 970.398438 420.546875 975.703125 443.0625 976.667969 C 445.503906 976.773438 447.910156 976.824219 450.277344 976.824219 C 471.640625 976.824219 489.886719 972.757812 503.851562 968.148438 C 503.316406 964.160156 502.746094 960.171875 502.121094 956.179688 C 504.070312 968.65625 505.5625 981.101562 506.722656 993.652344 C 506.71875 993.632812 506.71875 993.621094 506.714844 993.597656 C 508.054688 1057.53125 505.234375 1146.398438 501.496094 1228.171875 M 593.800781 908.308594 C 583.46875 896.09375 570.214844 887.941406 557.898438 881.980469 C 569.113281 886.972656 581.992188 894.347656 593.800781 908.308594 M 610.496094 905.136719 C 602.589844 895.933594 595.804688 887.9375 592.050781 883.28125 C 582.851562 871.871094 574.21875 862.453125 557.605469 862.453125 C 555.941406 862.453125 554.195312 862.546875 552.355469 862.742188 C 550.65625 862.925781 549.003906 863.503906 547.398438 864.300781 C 548.269531 863.515625 549 862.625 549.519531 861.609375 C 550.976562 858.75 550.5 855.527344 548.101562 852.03125 C 547.902344 851.738281 547.578125 851.582031 547.253906 851.582031 C 547.050781 851.582031 546.847656 851.640625 546.671875 851.765625 C 546.203125 852.085938 546.082031 852.726562 546.402344 853.195312 C 548.34375 856.023438 548.777344 858.539062 547.6875 860.675781 C 545.511719 864.933594 537.835938 866.917969 535.148438 866.988281 C 534.699219 867 534.265625 867.003906 533.851562 867.003906 C 526.238281 867.003906 523.757812 865.105469 522.960938 863.933594 C 522.085938 862.644531 522.5625 861.375 522.566406 861.363281 C 525.214844 855.339844 531.964844 847.804688 536.894531 842.304688 C 538.738281 840.242188 540.332031 838.464844 541.296875 837.214844 C 541.640625 836.765625 541.558594 836.117188 541.109375 835.773438 C 540.921875 835.628906 540.699219 835.558594 540.480469 835.558594 C 540.171875 835.558594 539.867188 835.695312 539.664062 835.960938 C 538.746094 837.148438 537.179688 838.902344 535.359375 840.933594 C 530.339844 846.535156 523.464844 854.210938 520.683594 860.535156 C 520.34375 861.308594 520.023438 863.25 521.246094 865.066406 C 521.988281 866.175781 523.160156 867.054688 524.753906 867.703125 C 523.824219 867.859375 522.046875 868.101562 519.871094 868.101562 C 514.835938 868.101562 507.652344 866.804688 503.851562 860.175781 C 503.851562 860.175781 502.820312 860.324219 501.265625 860.324219 C 496.542969 860.324219 486.988281 858.949219 486.726562 847.859375 C 486.980469 847.824219 487.222656 847.695312 487.394531 847.476562 L 516.085938 810.988281 C 516.433594 810.539062 516.359375 809.894531 515.910156 809.542969 C 515.722656 809.394531 515.5 809.320312 515.277344 809.320312 C 514.972656 809.320312 514.671875 809.457031 514.46875 809.714844 L 485.777344 846.207031 C 485.691406 846.316406 485.628906 846.441406 485.59375 846.566406 C 483.214844 846.445312 477.714844 845.816406 474.863281 842.691406 C 473.054688 840.710938 472.3125 837.726562 474.101562 833.230469 C 478.84375 821.332031 503.851562 792.105469 501.847656 790.164062 C 501.847656 790.164062 485.898438 795.292969 477.59375 808.011719 C 463.535156 829.546875 445.226562 858.921875 436.007812 858.925781 C 435.179688 858.925781 434.425781 858.6875 433.753906 858.183594 C 422.3125 849.640625 460.003906 797.648438 467.433594 788.941406 C 482.09375 771.769531 508.175781 753.613281 522.214844 749.695312 C 522.214844 749.695312 560.238281 749.695312 593.800781 808.011719 C 598.847656 816.785156 604.546875 824.390625 610.496094 831.003906 L 610.496094 905.136719 M 529.773438 822.691406 C 529.464844 822.691406 529.160156 822.832031 528.957031 823.097656 L 502.019531 858.21875 C 501.675781 858.667969 501.757812 859.3125 502.210938 859.660156 C 502.394531 859.800781 502.617188 859.871094 502.835938 859.871094 C 503.144531 859.871094 503.449219 859.730469 503.652344 859.46875 L 530.589844 824.347656 C 530.933594 823.894531 530.847656 823.253906 530.398438 822.90625 C 530.210938 822.761719 529.992188 822.691406 529.773438 822.691406 M 439.179688 840.535156 C 437.351562 840.535156 434.988281 842.699219 433.511719 845.902344 C 431.792969 849.636719 431.925781 853.363281 433.8125 854.230469 C 434.078125 854.351562 434.363281 854.410156 434.667969 854.410156 C 436.496094 854.410156 438.859375 852.246094 440.335938 849.046875 C 442.054688 845.316406 441.921875 841.585938 440.035156 840.71875 C 439.769531 840.597656 439.480469 840.535156 439.179688 840.535156 M 535.382812 872.316406 C 531.960938 870.894531 529.023438 869.605469 526.765625 868.347656 C 528.699219 868.820312 531.058594 869.0625 533.835938 869.0625 C 534.28125 869.0625 534.738281 869.054688 535.203125 869.042969 C 536.644531 869.007812 539.789062 868.4375 542.839844 867.117188 C 540.125 869.046875 537.613281 871.128906 535.359375 872.300781 C 535.367188 872.304688 535.375 872.3125 535.382812 872.316406" fill="#f9e3e3"/></g><g><path d="M 450.277344 976.824219 C 447.910156 976.824219 445.503906 976.773438 443.0625 976.667969 C 420.546875 975.703125 402.046875 970.398438 388.863281 965.289062 C 387.953125 959.429688 387.015625 953.304688 386.050781 946.878906 C 400.460938 953.230469 419.328125 959.277344 441.871094 961.203125 C 446.996094 961.644531 451.941406 961.839844 456.6875 961.839844 C 475.199219 961.839844 490.660156 958.886719 501.734375 955.953125 C 501.734375 955.953125 501.707031 955.820312 501.640625 955.566406 C 501.800781 955.769531 501.960938 955.972656 502.121094 956.179688 C 502.746094 960.171875 503.316406 964.160156 503.851562 968.148438 C 489.886719 972.757812 471.640625 976.824219 450.277344 976.824219" fill="#f7dddd"/></g><g><path d="M 456.6875 961.839844 C 451.941406 961.839844 446.996094 961.644531 441.871094 961.203125 C 419.328125 959.277344 400.460938 953.230469 386.050781 946.878906 C 377.460938 943.089844 370.457031 939.195312 365.203125 936 C 359.515625 921.597656 347.152344 810.464844 361.871094 726.1875 C 383.273438 729.867188 405.347656 733.210938 428.003906 736.191406 C 415.882812 756.363281 410.683594 778.074219 412.023438 800.253906 C 415.378906 855.773438 468.066406 913.589844 492.242188 940.023438 C 499.191406 947.625 501.214844 953.972656 501.640625 955.566406 C 501.707031 955.820312 501.734375 955.953125 501.734375 955.953125 C 490.660156 958.886719 475.199219 961.839844 456.6875 961.839844" fill="#dfe2ef"/></g><g><path d="M 523.925781 1230.109375 C 516.398438 1229.5 508.925781 1228.851562 501.496094 1228.171875 C 505.234375 1146.398438 508.054688 1057.53125 506.714844 993.597656 C 506.71875 993.621094 506.71875 993.632812 506.722656 993.652344 C 518.671875 1111.859375 551.566406 1121.019531 529.453125 1200.148438 C 526.398438 1211.078125 524.679688 1221 523.925781 1230.109375" fill="#d1d9ec"/></g><g><path d="M 502.121094 956.179688 C 504.695312 925.214844 493.667969 895.699219 484.148438 876.640625 C 477.480469 863.292969 471.550781 855.074219 471.550781 855.074219 C 483.703125 863.914062 493.6875 870.410156 504.429688 875.664062 C 503.886719 906.375 523.253906 907.578125 518.4375 930.871094 C 518.121094 932.394531 517.703125 934.011719 517.171875 935.734375 C 512.125 952.042969 502.121094 956.179688 502.121094 956.179688" fill="#d1d9ec"/></g><g><path d="M 610.496094 928.125 C 604.207031 920.667969 598.632812 914.027344 593.800781 908.308594 C 581.992188 894.347656 569.113281 886.972656 557.898438 881.980469 C 548.816406 877.9375 540.824219 875.460938 535.382812 872.316406 C 535.375 872.3125 535.367188 872.304688 535.359375 872.300781 C 537.613281 871.128906 540.125 869.046875 542.839844 867.117188 C 544.480469 866.40625 546.09375 865.480469 547.398438 864.300781 C 549.003906 863.503906 550.65625 862.925781 552.355469 862.742188 C 554.195312 862.546875 555.941406 862.453125 557.605469 862.453125 C 574.21875 862.453125 582.851562 871.871094 592.050781 883.28125 C 595.804688 887.9375 602.589844 895.933594 610.496094 905.136719 L 610.496094 928.125" fill="#f7dddd"/></g><g><path d="M 486.585938 847.871094 C 486.363281 847.871094 486.136719 847.800781 485.949219 847.648438 C 485.613281 847.386719 485.488281 846.953125 485.59375 846.566406 C 485.628906 846.441406 485.691406 846.316406 485.777344 846.207031 L 514.46875 809.714844 C 514.671875 809.457031 514.972656 809.320312 515.277344 809.320312 C 515.5 809.320312 515.722656 809.394531 515.910156 809.542969 C 516.359375 809.894531 516.433594 810.539062 516.085938 810.988281 L 487.394531 847.476562 C 487.222656 847.695312 486.980469 847.824219 486.726562 847.859375 C 486.679688 847.867188 486.632812 847.871094 486.585938 847.871094" fill="#f5d8d8"/></g><g><path d="M 502.835938 859.871094 C 502.617188 859.871094 502.394531 859.800781 502.210938 859.660156 C 501.757812 859.3125 501.675781 858.667969 502.019531 858.21875 L 528.957031 823.097656 C 529.160156 822.832031 529.464844 822.691406 529.773438 822.691406 C 529.992188 822.691406 530.210938 822.761719 530.398438 822.90625 C 530.847656 823.253906 530.933594 823.894531 530.589844 824.347656 L 503.652344 859.46875 C 503.449219 859.730469 503.144531 859.871094 502.835938 859.871094" fill="#f5d8d8"/></g><g><path d="M 434.667969 854.410156 C 434.363281 854.410156 434.078125 854.351562 433.8125 854.230469 C 431.925781 853.363281 431.792969 849.636719 433.511719 845.902344 C 434.988281 842.699219 437.351562 840.535156 439.179688 840.535156 C 439.480469 840.535156 439.769531 840.597656 440.035156 840.71875 C 441.921875 841.585938 442.054688 845.316406 440.335938 849.046875 C 438.859375 852.246094 436.496094 854.410156 434.667969 854.410156" fill="#f5d8d8"/></g><g><path d="M 533.835938 869.0625 C 531.058594 869.0625 528.699219 868.820312 526.765625 868.347656 C 526.03125 868.164062 525.363281 867.949219 524.753906 867.703125 C 523.160156 867.054688 521.988281 866.175781 521.246094 865.066406 C 520.023438 863.25 520.34375 861.308594 520.683594 860.535156 C 523.464844 854.210938 530.339844 846.535156 535.359375 840.933594 C 537.179688 838.902344 538.746094 837.148438 539.664062 835.960938 C 539.867188 835.695312 540.171875 835.558594 540.480469 835.558594 C 540.699219 835.558594 540.921875 835.628906 541.109375 835.773438 C 541.558594 836.117188 541.640625 836.765625 541.296875 837.214844 C 540.332031 838.464844 538.738281 840.242188 536.894531 842.304688 C 531.964844 847.804688 525.214844 855.339844 522.566406 861.363281 C 522.5625 861.375 522.085938 862.644531 522.960938 863.933594 C 523.757812 865.105469 526.238281 867.003906 533.851562 867.003906 C 534.265625 867.003906 534.699219 867 535.148438 866.988281 C 537.835938 866.917969 545.511719 864.933594 547.6875 860.675781 C 548.777344 858.539062 548.34375 856.023438 546.402344 853.195312 C 546.082031 852.726562 546.203125 852.085938 546.671875 851.765625 C 546.847656 851.640625 547.050781 851.582031 547.253906 851.582031 C 547.578125 851.582031 547.902344 851.738281 548.101562 852.03125 C 550.5 855.527344 550.976562 858.75 549.519531 861.609375 C 549 862.625 548.269531 863.515625 547.398438 864.300781 C 546.09375 865.480469 544.480469 866.40625 542.839844 867.117188 C 539.789062 868.4375 536.644531 869.007812 535.203125 869.042969 C 534.738281 869.054688 534.28125 869.0625 533.835938 869.0625" fill="#f5d8d8"/></g><g><path d="M 69.273438 1012.890625 C 85.855469 1022.890625 104.742188 1032.441406 125.679688 1041.488281 L 125.679688 894.871094 C 104.742188 885.824219 85.855469 876.273438 69.273438 866.273438 L 69.273438 1012.890625" fill="#4e62bd"/></g><g><path d="M 147.078125 1050.28125 C 164.671875 1057.148438 183.511719 1063.691406 203.484375 1069.859375 L 203.484375 871.378906 C 183.511719 865.207031 164.671875 858.671875 147.078125 851.796875 L 147.078125 1050.28125" fill="#4e62bd"/></g><g><path d="M 224.882812 1076.199219 C 242.882812 1081.328125 261.707031 1086.171875 281.289062 1090.699219 L 281.289062 814.40625 C 261.707031 809.878906 242.882812 805.039062 224.882812 799.914062 L 224.882812 1076.199219" fill="#4e62bd"/></g><g><path d="M 302.6875 1095.460938 C 320.910156 1099.359375 339.726562 1103 359.09375 1106.371094 L 359.09375 933.820312 C 339.726562 930.453125 320.910156 926.8125 302.6875 922.910156 L 302.6875 1095.460938" fill="#4e62bd"/></g><g><path d="M 380.492188 1109.941406 C 398.847656 1112.878906 417.675781 1115.570312 436.898438 1118 L 436.898438 906.550781 C 417.675781 904.113281 398.847656 901.429688 380.492188 898.492188 L 380.492188 1109.941406" fill="#4e62bd"/></g><g><path d="M 458.296875 1120.589844 C 476.753906 1122.71875 495.570312 1124.601562 514.703125 1126.238281 L 514.703125 875.882812 C 495.574219 874.242188 476.753906 872.363281 458.296875 870.242188 L 458.296875 1120.589844" fill="#4e62bd"/></g><g clip-path="url(#b)"><path d="M 1029.828125 1224.640625 C 1029.820312 1224.328125 1029.820312 1224.03125 1029.820312 1223.71875 C 1029.878906 1223.621094 1029.941406 1223.53125 1030 1223.429688 C 1030.511719 1223.429688 1030.058594 1218.550781 1029.738281 1208.539062 C 1029.730469 1198.480469 1029.800781 1188.511719 1029.96875 1178.730469 C 1069.339844 1124.351562 1104.789062 1028.101562 1119.929688 923.691406 C 1122.519531 905.832031 1125.449219 878.300781 1127.070312 846.339844 C 1130.261719 844.34375 1133.269531 842.347656 1136.160156 840.359375 C 1136.171875 840.351562 1136.179688 840.34375 1136.199219 840.335938 C 1136.230469 840.3125 1136.269531 840.285156 1136.308594 840.261719 C 1136.320312 840.253906 1136.320312 840.25 1136.328125 840.242188 C 1136.371094 840.21875 1136.410156 840.191406 1136.441406 840.164062 C 1136.460938 840.15625 1136.46875 840.148438 1136.480469 840.140625 C 1136.511719 840.117188 1136.550781 840.09375 1136.578125 840.070312 C 1136.589844 840.0625 1136.601562 840.058594 1136.609375 840.050781 C 1136.648438 840.023438 1136.691406 839.992188 1136.738281 839.964844 C 1137.820312 836.136719 1139.121094 819.066406 1139.121094 795.238281 C 1139.121094 770.910156 1137.769531 739.527344 1133.449219 708.003906 C 1138.570312 706.78125 1143.640625 705.535156 1148.660156 704.269531 C 1224.699219 722.6875 1286.769531 746.628906 1328.910156 774.199219 L 1328.910156 636.851562 C 1365.300781 616.097656 1391.710938 593.34375 1406.078125 569.230469 L 1406.078125 1065.28125 C 1364.570312 1134.921875 1222.621094 1193.28125 1029.828125 1224.640625" fill="#fbfbfb"/></g><g><path d="M 1328.910156 774.199219 C 1286.769531 746.628906 1224.699219 722.6875 1148.660156 704.269531 C 1178.96875 696.617188 1207.269531 688.207031 1233.28125 679.117188 C 1252.261719 687.65625 1269.058594 696.695312 1283.578125 706.203125 C 1284.019531 706.488281 1284.511719 706.625 1285 706.625 C 1285.851562 706.625 1286.679688 706.210938 1287.171875 705.449219 C 1287.960938 704.253906 1287.621094 702.644531 1286.421875 701.859375 C 1272.941406 693.039062 1257.550781 684.617188 1240.308594 676.625 C 1248.121094 673.8125 1255.738281 670.933594 1263.109375 668 C 1270.371094 671.996094 1277.199219 676.085938 1283.578125 680.265625 C 1284.019531 680.554688 1284.511719 680.691406 1285 680.691406 C 1285.851562 680.691406 1286.679688 680.277344 1287.171875 679.515625 C 1287.960938 678.316406 1287.621094 676.710938 1286.421875 675.925781 C 1281.019531 672.386719 1275.300781 668.914062 1269.28125 665.507812 C 1291.339844 656.476562 1311.300781 646.898438 1328.910156 636.851562 L 1328.910156 774.199219" fill="#f8f8f8"/></g><g><path d="M 1285 680.691406 C 1284.511719 680.691406 1284.019531 680.554688 1283.578125 680.265625 C 1277.199219 676.085938 1270.371094 671.996094 1263.109375 668 C 1265.191406 667.175781 1267.238281 666.34375 1269.28125 665.507812 C 1275.300781 668.914062 1281.019531 672.386719 1286.421875 675.925781 C 1287.621094 676.710938 1287.960938 678.316406 1287.171875 679.515625 C 1286.679688 680.277344 1285.851562 680.691406 1285 680.691406" fill="#cfd5ea"/></g><g><path d="M 1285 706.625 C 1284.511719 706.625 1284.019531 706.488281 1283.578125 706.203125 C 1269.058594 696.695312 1252.261719 687.65625 1233.28125 679.117188 C 1235.640625 678.292969 1237.988281 677.460938 1240.308594 676.625 C 1257.550781 684.617188 1272.941406 693.039062 1286.421875 701.859375 C 1287.621094 702.644531 1287.960938 704.253906 1287.171875 705.449219 C 1286.679688 706.210938 1285.851562 706.625 1285 706.625" fill="#cfd5ea"/></g><g><path d="M 795.582031 1247.621094 L 795.582031 1154.390625 C 831.628906 1186.320312 872.222656 1218.5 907.808594 1240.140625 C 871.527344 1243.550781 834.023438 1246.070312 795.582031 1247.621094 M 1029.449219 1224.699219 C 1029.449219 1224.558594 1029.449219 1224.429688 1029.449219 1224.300781 C 1029.570312 1224.109375 1029.699219 1223.910156 1029.820312 1223.71875 C 1029.820312 1224.03125 1029.820312 1224.328125 1029.828125 1224.640625 C 1029.710938 1224.648438 1029.570312 1224.679688 1029.449219 1224.699219 M 981.378906 1221.941406 C 981.386719 1221.941406 981.394531 1221.929688 981.402344 1221.929688 C 981.394531 1221.929688 981.386719 1221.941406 981.378906 1221.941406 M 981.46875 1221.898438 C 981.480469 1221.898438 981.484375 1221.898438 981.496094 1221.890625 C 981.488281 1221.898438 981.476562 1221.898438 981.46875 1221.898438 M 981.558594 1221.871094 C 981.570312 1221.871094 981.574219 1221.859375 981.585938 1221.859375 C 981.578125 1221.859375 981.566406 1221.871094 981.558594 1221.871094 M 981.652344 1221.839844 C 981.660156 1221.828125 981.667969 1221.828125 981.675781 1221.828125 C 981.667969 1221.828125 981.660156 1221.828125 981.652344 1221.839844 M 981.75 1221.800781 C 981.753906 1221.800781 981.761719 1221.789062 981.765625 1221.789062 C 981.757812 1221.789062 981.753906 1221.800781 981.75 1221.800781 M 981.851562 1221.761719 L 981.855469 1221.761719 C 981.851562 1221.761719 981.851562 1221.761719 981.851562 1221.761719 M 982.039062 1221.679688 C 982.042969 1221.679688 982.042969 1221.679688 982.046875 1221.679688 C 982.046875 1221.679688 982.042969 1221.679688 982.039062 1221.679688 M 982.132812 1221.648438 C 982.136719 1221.648438 982.136719 1221.648438 982.140625 1221.648438 C 982.136719 1221.648438 982.136719 1221.648438 982.132812 1221.648438 M 982.226562 1221.609375 C 982.226562 1221.609375 982.230469 1221.609375 982.234375 1221.609375 C 982.230469 1221.609375 982.230469 1221.609375 982.226562 1221.609375 M 982.320312 1221.570312 L 982.324219 1221.570312 C 982.324219 1221.570312 982.324219 1221.570312 982.320312 1221.570312 M 1029.738281 1208.539062 C 1029.511719 1201.390625 1029.351562 1191.628906 1029.660156 1179.160156 C 1029.761719 1179.019531 1029.871094 1178.871094 1029.96875 1178.730469 C 1029.800781 1188.511719 1029.730469 1198.480469 1029.738281 1208.539062 M 935.886719 1061.871094 C 929.292969 1056.78125 868.417969 1009.941406 795.582031 958.542969 L 795.582031 751.578125 C 810.226562 750.988281 824.730469 750.257812 839.085938 749.390625 C 885.089844 806.414062 922.867188 865.15625 932.210938 879.949219 C 932.128906 880.277344 932.046875 880.613281 931.964844 880.941406 C 931.8125 881.566406 932.191406 882.199219 932.816406 882.355469 C 932.910156 882.375 933.003906 882.386719 933.097656 882.386719 C 933.296875 882.386719 933.484375 882.335938 933.652344 882.242188 C 934.167969 883.0625 934.429688 883.488281 934.429688 883.488281 C 936.667969 883.8125 939.035156 884.132812 941.523438 884.433594 C 941.027344 888.773438 940.554688 893.433594 940.078125 898.683594 C 931.949219 976.523438 935.984375 1053.648438 936.4375 1061.648438 C 936.230469 1061.671875 936.042969 1061.75 935.886719 1061.871094" fill="#cfd5ea"/></g><g><path d="M 981.289062 1221.96875 C 981.542969 1221.878906 981.800781 1221.761719 982.054688 1221.660156 C 965.988281 1210.109375 919.433594 1195.21875 876.0625 1168.449219 C 859.902344 1158.480469 830.742188 1134.570312 795.582031 1102 L 795.582031 958.542969 C 868.417969 1009.941406 929.292969 1056.78125 935.886719 1061.871094 C 935.605469 1062.089844 935.425781 1062.421875 935.425781 1062.800781 C 935.425781 1063.449219 935.945312 1063.96875 936.585938 1063.96875 C 952.121094 1063.96875 985.472656 1087.789062 985.472656 1098.890625 C 985.472656 1099.53125 985.996094 1100.050781 986.636719 1100.050781 C 987.28125 1100.050781 987.804688 1099.53125 987.804688 1098.890625 C 987.804688 1086.699219 953.339844 1061.640625 936.585938 1061.640625 C 936.535156 1061.640625 936.488281 1061.640625 936.4375 1061.648438 C 935.984375 1053.648438 931.949219 976.523438 940.082031 898.683594 C 952.992188 900.007812 965.40625 900.601562 977.292969 900.601562 C 1048.980469 900.601562 1101.300781 878.972656 1125.921875 865.398438 C 1126.351562 859.261719 1126.738281 852.894531 1127.070312 846.339844 C 1125.449219 878.300781 1122.519531 905.832031 1119.929688 923.691406 C 1104.789062 1028.101562 1069.339844 1124.351562 1029.96875 1178.730469 C 1029.871094 1178.871094 1029.761719 1179.019531 1029.660156 1179.160156 C 1025.851562 1184.398438 1022.011719 1189.238281 1018.140625 1193.660156 C 1010.609375 1199.679688 1004.609375 1205.550781 999.859375 1211.21875 C 993.996094 1215.769531 988.132812 1219.261719 982.324219 1221.570312 L 982.320312 1221.570312 C 982.292969 1221.578125 982.265625 1221.601562 982.234375 1221.609375 C 982.230469 1221.609375 982.226562 1221.609375 982.226562 1221.609375 C 982.195312 1221.621094 982.167969 1221.628906 982.140625 1221.648438 C 982.136719 1221.648438 982.136719 1221.648438 982.132812 1221.648438 C 982.105469 1221.660156 982.074219 1221.671875 982.046875 1221.679688 C 982.042969 1221.679688 982.042969 1221.679688 982.039062 1221.679688 C 981.976562 1221.710938 981.917969 1221.730469 981.855469 1221.761719 L 981.851562 1221.761719 C 981.824219 1221.769531 981.792969 1221.78125 981.765625 1221.789062 C 981.761719 1221.789062 981.753906 1221.800781 981.75 1221.800781 C 981.726562 1221.808594 981.699219 1221.820312 981.675781 1221.828125 C 981.667969 1221.828125 981.660156 1221.828125 981.652344 1221.839844 C 981.628906 1221.839844 981.609375 1221.851562 981.585938 1221.859375 C 981.574219 1221.859375 981.570312 1221.871094 981.558594 1221.871094 C 981.539062 1221.878906 981.519531 1221.890625 981.496094 1221.890625 C 981.484375 1221.898438 981.480469 1221.898438 981.46875 1221.898438 C 981.445312 1221.910156 981.425781 1221.921875 981.402344 1221.929688 C 981.394531 1221.929688 981.386719 1221.941406 981.378906 1221.941406 C 981.347656 1221.949219 981.320312 1221.960938 981.289062 1221.96875" fill="#fbd7d7"/></g><g><path d="M 977.292969 900.601562 C 965.40625 900.601562 952.992188 900.007812 940.078125 898.683594 C 940.554688 893.433594 941.027344 888.773438 941.523438 884.433594 C 951.570312 885.652344 963.605469 886.585938 977.21875 886.585938 C 996.292969 886.585938 1018.460938 884.75 1042.601562 879.285156 C 1083.140625 870.113281 1108.070312 858.265625 1127.070312 846.339844 C 1126.738281 852.894531 1126.351562 859.261719 1125.921875 865.398438 C 1101.300781 878.972656 1048.980469 900.601562 977.292969 900.601562" fill="#f7cccc"/></g><g><path d="M 977.21875 886.585938 C 963.605469 886.585938 951.570312 885.652344 941.523438 884.433594 C 939.035156 884.132812 936.667969 883.8125 934.429688 883.488281 C 934.429688 883.488281 934.167969 883.0625 933.652344 882.242188 C 933.929688 882.09375 934.144531 881.832031 934.226562 881.503906 C 938.976562 862.359375 941.339844 842.683594 941.242188 823.019531 C 941.125 798.414062 937.1875 774.019531 929.546875 750.5 C 929.386719 750.007812 928.929688 749.695312 928.4375 749.695312 C 928.320312 749.695312 928.199219 749.714844 928.082031 749.75 C 927.46875 749.949219 927.132812 750.605469 927.332031 751.21875 C 934.902344 774.507812 938.796875 798.667969 938.914062 823.03125 C 939.007812 842.160156 936.753906 861.304688 932.210938 879.949219 C 922.867188 865.15625 885.089844 806.414062 839.085938 749.390625 C 926.644531 744.097656 1008.519531 733.730469 1081.589844 719.289062 C 1081.851562 724.144531 1082.378906 729.230469 1083.25 734.5625 C 1088.570312 767.152344 1119.328125 788.105469 1116.980469 852.3125 C 1124.089844 848.351562 1130.371094 844.335938 1136.160156 840.359375 C 1133.269531 842.347656 1130.261719 844.34375 1127.070312 846.339844 C 1108.070312 858.265625 1083.140625 870.113281 1042.601562 879.285156 C 1018.460938 884.75 996.292969 886.585938 977.21875 886.585938 M 1136.199219 840.335938 C 1136.230469 840.3125 1136.269531 840.285156 1136.308594 840.261719 C 1136.269531 840.285156 1136.230469 840.3125 1136.199219 840.335938 M 1136.328125 840.242188 C 1136.371094 840.21875 1136.410156 840.191406 1136.441406 840.164062 C 1136.410156 840.191406 1136.371094 840.21875 1136.328125 840.242188 M 1136.480469 840.140625 C 1136.511719 840.117188 1136.550781 840.09375 1136.578125 840.070312 C 1136.550781 840.09375 1136.511719 840.117188 1136.480469 840.140625 M 1136.609375 840.050781 C 1136.648438 840.023438 1136.699219 839.992188 1136.738281 839.964844 C 1136.691406 839.992188 1136.648438 840.023438 1136.609375 840.050781 M 1136.738281 839.964844 C 1137.820312 836.136719 1139.121094 819.066406 1139.121094 795.238281 C 1139.121094 819.066406 1137.820312 836.136719 1136.738281 839.964844" fill="#cfd5ea"/></g><g><path d="M 933.097656 882.386719 C 933.003906 882.386719 932.910156 882.375 932.816406 882.355469 C 932.191406 882.199219 931.8125 881.566406 931.964844 880.941406 C 932.046875 880.613281 932.128906 880.277344 932.210938 879.949219 C 936.753906 861.304688 939.007812 842.160156 938.914062 823.03125 C 938.796875 798.667969 934.902344 774.507812 927.332031 751.21875 C 927.132812 750.605469 927.46875 749.949219 928.082031 749.75 C 928.199219 749.714844 928.320312 749.695312 928.4375 749.695312 C 928.929688 749.695312 929.386719 750.007812 929.546875 750.5 C 937.1875 774.019531 941.125 798.414062 941.242188 823.019531 C 941.339844 842.683594 938.976562 862.359375 934.226562 881.503906 C 934.144531 881.832031 933.929688 882.09375 933.652344 882.242188 C 933.484375 882.335938 933.296875 882.386719 933.097656 882.386719" fill="#a3adda"/></g><g><path d="M 986.636719 1100.050781 C 985.996094 1100.050781 985.472656 1099.53125 985.472656 1098.890625 C 985.472656 1087.789062 952.121094 1063.96875 936.585938 1063.96875 C 935.945312 1063.96875 935.425781 1063.449219 935.425781 1062.800781 C 935.425781 1062.421875 935.605469 1062.089844 935.886719 1061.871094 C 936.042969 1061.75 936.230469 1061.671875 936.4375 1061.648438 C 936.488281 1061.640625 936.535156 1061.640625 936.585938 1061.640625 C 953.339844 1061.640625 987.804688 1086.699219 987.804688 1098.890625 C 987.804688 1099.53125 987.28125 1100.050781 986.636719 1100.050781" fill="#f5c3c3"/></g><g><path d="M 907.808594 1240.140625 C 872.222656 1218.5 831.628906 1186.320312 795.582031 1154.390625 L 795.582031 1124.640625 C 837.582031 1162.558594 903.109375 1212.351562 981.289062 1221.96875 C 981.320312 1221.960938 981.347656 1221.949219 981.378906 1221.941406 C 981.386719 1221.941406 981.394531 1221.929688 981.402344 1221.929688 C 981.425781 1221.921875 981.445312 1221.910156 981.46875 1221.898438 C 981.476562 1221.898438 981.488281 1221.898438 981.496094 1221.890625 C 981.519531 1221.890625 981.539062 1221.878906 981.558594 1221.871094 C 981.566406 1221.871094 981.578125 1221.859375 981.585938 1221.859375 C 981.609375 1221.851562 981.628906 1221.839844 981.652344 1221.839844 C 981.660156 1221.828125 981.667969 1221.828125 981.675781 1221.828125 C 981.699219 1221.820312 981.726562 1221.808594 981.75 1221.800781 C 981.753906 1221.800781 981.757812 1221.789062 981.765625 1221.789062 C 981.792969 1221.78125 981.824219 1221.769531 981.851562 1221.761719 C 981.851562 1221.761719 981.851562 1221.761719 981.855469 1221.761719 C 981.917969 1221.730469 981.976562 1221.710938 982.039062 1221.679688 C 982.042969 1221.679688 982.046875 1221.679688 982.046875 1221.679688 C 982.074219 1221.671875 982.105469 1221.660156 982.132812 1221.648438 C 982.136719 1221.648438 982.136719 1221.648438 982.140625 1221.648438 C 982.167969 1221.628906 982.195312 1221.621094 982.226562 1221.609375 C 982.230469 1221.609375 982.230469 1221.609375 982.234375 1221.609375 C 982.265625 1221.601562 982.292969 1221.578125 982.320312 1221.570312 C 982.324219 1221.570312 982.324219 1221.570312 982.324219 1221.570312 C 988.132812 1219.261719 993.996094 1215.769531 999.859375 1211.21875 C 994.058594 1218.148438 990.105469 1224.769531 987.46875 1230.96875 C 961.664062 1234.511719 935.082031 1237.578125 907.808594 1240.140625 M 1029.449219 1224.300781 C 1029.28125 1210.511719 1029.28125 1197.351562 1029.519531 1185.289062 C 1025.378906 1188.109375 1021.601562 1190.898438 1018.140625 1193.660156 C 1022.011719 1189.238281 1025.851562 1184.398438 1029.660156 1179.160156 C 1029.351562 1191.628906 1029.511719 1201.390625 1029.738281 1208.539062 C 1030.058594 1218.550781 1030.511719 1223.429688 1030 1223.429688 C 1029.941406 1223.53125 1029.878906 1223.621094 1029.820312 1223.71875 C 1029.699219 1223.910156 1029.570312 1224.109375 1029.449219 1224.300781" fill="#b8c6e4"/></g><g><path d="M 987.46875 1230.96875 C 990.105469 1224.769531 994.058594 1218.148438 999.859375 1211.21875 C 1004.609375 1205.550781 1010.609375 1199.679688 1018.140625 1193.660156 C 1021.601562 1190.898438 1025.378906 1188.109375 1029.519531 1185.289062 C 1029.28125 1197.351562 1029.28125 1210.511719 1029.449219 1224.300781 C 1029.449219 1224.429688 1029.449219 1224.558594 1029.449219 1224.699219 C 1015.699219 1226.929688 1001.71875 1229.019531 987.46875 1230.96875" fill="#b8c6e4"/></g><g><path d="M 1116.980469 852.3125 C 1119.328125 788.105469 1088.570312 767.152344 1083.25 734.5625 C 1082.378906 729.230469 1081.851562 724.144531 1081.589844 719.289062 C 1099.410156 715.765625 1116.71875 711.996094 1133.449219 708.003906 C 1137.769531 739.527344 1139.121094 770.910156 1139.121094 795.238281 C 1139.121094 819.066406 1137.820312 836.136719 1136.738281 839.964844 C 1136.699219 839.992188 1136.648438 840.023438 1136.609375 840.050781 C 1136.601562 840.058594 1136.589844 840.0625 1136.578125 840.070312 C 1136.550781 840.09375 1136.511719 840.117188 1136.480469 840.140625 C 1136.46875 840.148438 1136.460938 840.15625 1136.441406 840.164062 C 1136.410156 840.191406 1136.371094 840.21875 1136.328125 840.242188 C 1136.320312 840.25 1136.320312 840.253906 1136.308594 840.261719 C 1136.269531 840.285156 1136.230469 840.3125 1136.199219 840.335938 C 1136.179688 840.34375 1136.171875 840.351562 1136.160156 840.359375 C 1130.371094 844.335938 1124.089844 848.351562 1116.980469 852.3125" fill="#b8c6e4"/></g><g><path d="M 981.289062 1221.96875 C 903.109375 1212.351562 837.582031 1162.558594 795.582031 1124.640625 L 795.582031 1102 C 830.742188 1134.570312 859.902344 1158.480469 876.0625 1168.449219 C 919.433594 1195.21875 965.988281 1210.109375 982.054688 1221.660156 C 981.800781 1221.761719 981.542969 1221.878906 981.289062 1221.96875" fill="#f7cccc"/></g><g><path d="M 1299.460938 875.464844 C 1298.730469 875.464844 1298 875.152344 1297.480469 874.546875 C 1296.558594 873.453125 1296.691406 871.816406 1297.78125 870.890625 L 1333.671875 840.472656 C 1334.761719 839.546875 1336.398438 839.683594 1337.328125 840.773438 C 1338.25 841.867188 1338.121094 843.503906 1337.019531 844.429688 L 1301.140625 874.847656 C 1300.648438 875.261719 1300.050781 875.464844 1299.460938 875.464844" fill="#4e62bd"/></g><g><path d="M 1274.058594 879.578125 C 1273.660156 879.578125 1273.261719 879.488281 1272.878906 879.292969 L 1222.191406 853.277344 C 1220.921875 852.621094 1220.421875 851.058594 1221.070312 849.785156 C 1221.71875 848.515625 1223.289062 848.007812 1224.558594 848.664062 L 1275.25 874.679688 C 1276.519531 875.332031 1277.019531 876.894531 1276.371094 878.171875 C 1275.910156 879.066406 1275 879.578125 1274.058594 879.578125" fill="#4e62bd"/></g><g><path d="M 1137.351562 942.398438 C 1136.808594 942.398438 1136.261719 942.230469 1135.800781 941.878906 C 1134.648438 941.015625 1134.421875 939.390625 1135.28125 938.246094 L 1198.148438 854.804688 C 1199.011719 853.65625 1200.640625 853.429688 1201.78125 854.292969 C 1202.929688 855.152344 1203.160156 856.78125 1202.289062 857.925781 L 1139.429688 941.367188 C 1138.921875 942.042969 1138.140625 942.398438 1137.351562 942.398438" fill="#4e62bd"/></g><g><path d="M 1113.210938 949.859375 C 1112.929688 949.859375 1112.660156 949.8125 1112.378906 949.722656 L 1054.550781 930.121094 C 1053.191406 929.660156 1052.46875 928.1875 1052.929688 926.832031 C 1053.390625 925.472656 1054.859375 924.753906 1056.210938 925.207031 L 1114.039062 944.808594 C 1115.398438 945.265625 1116.128906 946.738281 1115.671875 948.097656 C 1115.300781 949.175781 1114.289062 949.859375 1113.210938 949.859375" fill="#4e62bd"/></g><g><path d="M 982.011719 986.539062 C 981.375 986.539062 980.734375 986.308594 980.234375 985.835938 C 979.191406 984.855469 979.140625 983.214844 980.121094 982.171875 L 1025.730469 933.625 C 1026.710938 932.582031 1028.351562 932.53125 1029.390625 933.511719 C 1030.441406 934.492188 1030.488281 936.132812 1029.511719 937.175781 L 983.902344 985.722656 C 983.390625 986.265625 982.703125 986.539062 982.011719 986.539062" fill="#4e62bd"/></g><g><path d="M 952.855469 989.226562 C 952.621094 989.226562 952.382812 989.191406 952.144531 989.125 L 897.816406 973.65625 C 896.441406 973.265625 895.640625 971.828125 896.035156 970.453125 C 896.425781 969.074219 897.859375 968.277344 899.238281 968.667969 L 953.566406 984.136719 C 954.941406 984.527344 955.742188 985.964844 955.347656 987.339844 C 955.023438 988.480469 953.984375 989.226562 952.855469 989.226562" fill="#4e62bd"/></g><g><path d="M 883.347656 954.789062 C 876.195312 954.789062 870.378906 960.605469 870.378906 967.757812 C 870.378906 974.90625 876.195312 980.722656 883.347656 980.722656 C 890.496094 980.722656 896.3125 974.90625 896.3125 967.757812 C 896.3125 960.605469 890.496094 954.789062 883.347656 954.789062 Z M 883.347656 985.910156 C 873.335938 985.910156 865.191406 977.765625 865.191406 967.757812 C 865.191406 957.746094 873.335938 949.601562 883.347656 949.601562 C 893.355469 949.601562 901.5 957.746094 901.5 967.757812 C 901.5 977.765625 893.355469 985.910156 883.347656 985.910156" fill="#4e62bd"/></g><g><path d="M 968.417969 978.550781 C 961.265625 978.550781 955.449219 984.367188 955.449219 991.515625 C 955.449219 998.664062 961.265625 1004.480469 968.417969 1004.480469 C 975.566406 1004.480469 981.386719 998.664062 981.386719 991.515625 C 981.386719 984.367188 975.566406 978.550781 968.417969 978.550781 Z M 968.417969 1009.671875 C 958.40625 1009.671875 950.261719 1001.53125 950.261719 991.515625 C 950.261719 981.507812 958.40625 973.363281 968.417969 973.363281 C 978.425781 973.363281 986.570312 981.507812 986.570312 991.515625 C 986.570312 1001.53125 978.425781 1009.671875 968.417969 1009.671875" fill="#4e62bd"/></g><g><path d="M 1039.820312 909.941406 C 1032.671875 909.941406 1026.851562 915.761719 1026.851562 922.910156 C 1026.851562 930.0625 1032.671875 935.878906 1039.820312 935.878906 C 1046.96875 935.878906 1052.789062 930.0625 1052.789062 922.910156 C 1052.789062 915.761719 1046.96875 909.941406 1039.820312 909.941406 Z M 1039.820312 941.0625 C 1029.808594 941.0625 1021.671875 932.921875 1021.671875 922.910156 C 1021.671875 912.898438 1029.808594 904.757812 1039.820312 904.757812 C 1049.828125 904.757812 1057.980469 912.898438 1057.980469 922.910156 C 1057.980469 932.921875 1049.828125 941.0625 1039.820312 941.0625" fill="#4e62bd"/></g><g><path d="M 1127.96875 939.226562 C 1120.820312 939.226562 1115 945.046875 1115 952.195312 C 1115 959.34375 1120.820312 965.160156 1127.96875 965.160156 C 1135.121094 965.160156 1140.941406 959.34375 1140.941406 952.195312 C 1140.941406 945.046875 1135.121094 939.226562 1127.96875 939.226562 Z M 1127.96875 970.351562 C 1117.960938 970.351562 1109.808594 962.203125 1109.808594 952.195312 C 1109.808594 942.183594 1117.960938 934.039062 1127.96875 934.039062 C 1137.980469 934.039062 1146.121094 942.183594 1146.121094 952.195312 C 1146.121094 962.203125 1137.980469 970.351562 1127.96875 970.351562" fill="#4e62bd"/></g><g><path d="M 1209.519531 830.9375 C 1202.371094 830.9375 1196.550781 836.753906 1196.550781 843.902344 C 1196.550781 851.054688 1202.371094 856.871094 1209.519531 856.871094 C 1216.671875 856.871094 1222.480469 851.054688 1222.480469 843.902344 C 1222.480469 836.753906 1216.671875 830.9375 1209.519531 830.9375 Z M 1209.519531 862.058594 C 1199.5 862.058594 1191.359375 853.914062 1191.359375 843.902344 C 1191.359375 833.894531 1199.5 825.75 1209.519531 825.75 C 1219.53125 825.75 1227.671875 833.894531 1227.671875 843.902344 C 1227.671875 853.914062 1219.53125 862.058594 1209.519531 862.058594" fill="#4e62bd"/></g><g><path d="M 1288.171875 870.585938 C 1281.019531 870.585938 1275.199219 876.402344 1275.199219 883.554688 C 1275.199219 890.703125 1281.019531 896.519531 1288.171875 896.519531 C 1295.320312 896.519531 1301.140625 890.703125 1301.140625 883.554688 C 1301.140625 876.402344 1295.320312 870.585938 1288.171875 870.585938 Z M 1288.171875 901.707031 C 1278.160156 901.707031 1270.011719 893.5625 1270.011719 883.554688 C 1270.011719 873.542969 1278.160156 865.398438 1288.171875 865.398438 C 1298.179688 865.398438 1306.320312 873.542969 1306.320312 883.554688 C 1306.320312 893.5625 1298.179688 901.707031 1288.171875 901.707031" fill="#4e62bd"/></g><g><path d="M 1352.339844 814.175781 C 1345.191406 814.175781 1339.371094 819.992188 1339.371094 827.144531 C 1339.371094 834.292969 1345.191406 840.109375 1352.339844 840.109375 C 1359.488281 840.109375 1365.308594 834.292969 1365.308594 827.144531 C 1365.308594 819.992188 1359.488281 814.175781 1352.339844 814.175781 Z M 1352.339844 845.296875 C 1342.328125 845.296875 1334.179688 837.152344 1334.179688 827.144531 C 1334.179688 817.132812 1342.328125 808.988281 1352.339844 808.988281 C 1362.351562 808.988281 1370.488281 817.132812 1370.488281 827.144531 C 1370.488281 837.152344 1362.351562 845.296875 1352.339844 845.296875" fill="#4e62bd"/></g><g><path d="M 883.347656 1137.910156 C 881.914062 1137.910156 880.753906 1136.75 880.753906 1135.308594 L 880.753906 1014.640625 C 880.753906 1013.210938 881.914062 1012.050781 883.347656 1012.050781 C 884.777344 1012.050781 885.9375 1013.210938 885.9375 1014.640625 L 885.9375 1135.308594 C 885.9375 1136.75 884.777344 1137.910156 883.347656 1137.910156" fill="#4e62bd"/></g><g><path d="M 969.714844 1130.128906 C 968.28125 1130.128906 967.121094 1128.96875 967.121094 1127.53125 L 967.121094 1036.300781 C 967.121094 1034.871094 968.28125 1033.710938 969.714844 1033.710938 C 971.144531 1033.710938 972.308594 1034.871094 972.308594 1036.300781 L 972.308594 1127.53125 C 972.308594 1128.96875 971.144531 1130.128906 969.714844 1130.128906" fill="#4e62bd"/></g><g><path d="M 1043.710938 1119.648438 C 1042.28125 1119.648438 1041.121094 1118.488281 1041.121094 1117.058594 L 1041.121094 966.835938 C 1041.121094 965.402344 1042.28125 964.242188 1043.710938 964.242188 C 1045.140625 964.242188 1046.308594 965.402344 1046.308594 966.835938 L 1046.308594 1117.058594 C 1046.308594 1118.488281 1045.140625 1119.648438 1043.710938 1119.648438" fill="#4e62bd"/></g><g><path d="M 1127.96875 1102.679688 C 1126.539062 1102.679688 1125.371094 1101.519531 1125.371094 1100.078125 L 1125.371094 987.367188 C 1125.371094 985.9375 1126.539062 984.773438 1127.96875 984.773438 C 1129.398438 984.773438 1130.558594 985.9375 1130.558594 987.367188 L 1130.558594 1100.078125 C 1130.558594 1101.519531 1129.398438 1102.679688 1127.96875 1102.679688" fill="#4e62bd"/></g><g><path d="M 1209.519531 1080.410156 C 1208.078125 1080.410156 1206.921875 1079.25 1206.921875 1077.820312 L 1206.921875 876.984375 C 1206.921875 875.554688 1208.078125 874.394531 1209.519531 874.394531 C 1210.949219 874.394531 1212.109375 875.554688 1212.109375 876.984375 L 1212.109375 1077.820312 C 1212.109375 1079.25 1210.949219 1080.410156 1209.519531 1080.410156" fill="#4e62bd"/></g><g><path d="M 1288.171875 1049.21875 C 1286.738281 1049.21875 1285.570312 1048.058594 1285.570312 1046.628906 L 1285.570312 916.796875 C 1285.570312 915.363281 1286.738281 914.203125 1288.171875 914.203125 C 1289.601562 914.203125 1290.761719 915.363281 1290.761719 916.796875 L 1290.761719 1046.628906 C 1290.761719 1048.058594 1289.601562 1049.21875 1288.171875 1049.21875" fill="#4e62bd"/></g><g><path d="M 1352.339844 1015.648438 C 1350.910156 1015.648438 1349.738281 1014.488281 1349.738281 1013.058594 L 1349.738281 863.976562 C 1349.738281 862.546875 1350.910156 861.386719 1352.339844 861.386719 C 1353.769531 861.386719 1354.929688 862.546875 1354.929688 863.976562 L 1354.929688 1013.058594 C 1354.929688 1014.488281 1353.769531 1015.648438 1352.339844 1015.648438" fill="#4e62bd"/></g></g></svg>