<?xml version="1.0" encoding="UTF-8"?><svg xmlns="http://www.w3.org/2000/svg" xmlns:xlink="http://www.w3.org/1999/xlink" height="397.9" preserveAspectRatio="xMidYMid meet" version="1.0" viewBox="29.2 27.3 359.0 397.9" width="359.0" zoomAndPan="magnify"><defs><clipPath id="a"><path d="M 0 0 L 425.199219 0 L 425.199219 425.199219 L 0 425.199219 Z M 0 0"/></clipPath><clipPath id="b"><path d="M 102 233 L 168 233 L 168 425.199219 L 102 425.199219 Z M 102 233"/></clipPath><clipPath id="c"><path d="M 254 230 L 323 230 L 323 425.199219 L 254 425.199219 Z M 254 230"/></clipPath></defs><g><g clip-path="url(#a)"/><g><path d="M 363.066406 224.699219 C 363.03125 225.691406 362.984375 226.679688 362.929688 227.664062 L 365.921875 227.832031 C 365.980469 226.828125 366.027344 225.820312 366.0625 224.8125 L 363.066406 224.699219 M 362.734375 230.625 C 362.660156 231.613281 362.574219 232.597656 362.484375 233.578125 L 365.46875 233.859375 C 365.5625 232.859375 365.648438 231.855469 365.726562 230.847656 L 362.734375 230.625 M 362.175781 236.527344 C 362.066406 237.511719 361.945312 238.492188 361.8125 239.472656 L 364.789062 239.867188 C 364.921875 238.871094 365.042969 237.871094 365.15625 236.867188 L 362.175781 236.527344 M 361.394531 242.410156 C 361.246094 243.386719 361.089844 244.363281 360.921875 245.335938 L 363.878906 245.84375 C 364.046875 244.851562 364.210938 243.859375 364.363281 242.859375 L 361.394531 242.410156 M 360.390625 248.253906 C 360.203125 249.226562 360.011719 250.195312 359.804688 251.160156 L 362.742188 251.78125 C 362.949219 250.796875 363.148438 249.808594 363.339844 248.820312 L 360.390625 248.253906 M 359.164062 254.058594 C 358.941406 255.023438 358.710938 255.984375 358.46875 256.941406 L 361.378906 257.671875 C 361.621094 256.695312 361.859375 255.71875 362.085938 254.734375 L 359.164062 254.058594 M 357.714844 259.808594 C 357.457031 260.765625 357.1875 261.714844 356.910156 262.664062 L 359.789062 263.507812 C 360.070312 262.539062 360.34375 261.570312 360.609375 260.597656 L 357.714844 259.808594 M 356.046875 265.5 C 355.75 266.449219 355.441406 267.394531 355.128906 268.332031 L 357.972656 269.285156 C 358.292969 268.328125 358.605469 267.367188 358.910156 266.398438 L 356.046875 265.5 M 354.15625 271.144531 C 353.820312 272.082031 353.480469 273.011719 353.128906 273.9375 L 355.933594 275 C 356.289062 274.054688 356.640625 273.105469 356.980469 272.152344 L 354.152344 271.144531 L 354.15625 271.144531 M 352.046875 276.710938 C 351.679688 277.632812 351.300781 278.550781 350.914062 279.460938 L 353.675781 280.632812 C 354.070312 279.699219 354.453125 278.765625 354.832031 277.828125 L 352.046875 276.710938 M 349.726562 282.1875 C 349.324219 283.09375 348.910156 283.996094 348.488281 284.890625 L 351.207031 286.167969 C 351.636719 285.253906 352.054688 284.335938 352.46875 283.410156 L 349.726562 282.1875 M 347.199219 287.570312 C 346.761719 288.460938 346.316406 289.34375 345.859375 290.222656 L 348.527344 291.601562 C 348.988281 290.707031 349.445312 289.804688 349.890625 288.898438 L 347.199219 287.570312 M 344.472656 292.851562 C 344 293.722656 343.519531 294.589844 343.03125 295.449219 L 345.640625 296.929688 C 346.140625 296.050781 346.628906 295.167969 347.109375 294.28125 L 344.472656 292.851562 M 341.542969 298.019531 C 341.035156 298.875 340.523438 299.722656 340.003906 300.5625 L 342.554688 302.140625 C 343.085938 301.28125 343.609375 300.417969 344.125 299.550781 L 341.542969 298.019531 M 338.417969 303.074219 C 337.882812 303.90625 337.339844 304.734375 336.785156 305.554688 L 339.277344 307.226562 C 339.839844 306.390625 340.394531 305.550781 340.941406 304.699219 L 338.417969 303.074219 M 335.105469 308.003906 C 334.539062 308.816406 333.964844 309.621094 333.378906 310.421875 L 335.804688 312.1875 C 336.398438 311.371094 336.984375 310.550781 337.5625 309.722656 L 335.105469 308.003906 M 331.609375 312.800781 C 331.011719 313.589844 330.40625 314.371094 329.792969 315.148438 L 332.148438 317.007812 C 332.773438 316.214844 333.390625 315.417969 334 314.613281 L 331.609375 312.800781 M 327.933594 317.464844 C 327.308594 318.226562 326.671875 318.988281 326.03125 319.738281 L 328.316406 321.683594 C 328.96875 320.917969 329.617188 320.144531 330.253906 319.363281 L 327.933594 317.464844 M 324.085938 321.980469 C 323.429688 322.722656 322.769531 323.453125 322.101562 324.183594 L 324.308594 326.214844 C 324.988281 325.472656 325.664062 324.722656 326.332031 323.96875 L 324.085938 321.980469 M 320.070312 326.347656 C 319.390625 327.0625 318.699219 327.769531 318.003906 328.472656 L 320.132812 330.585938 C 320.84375 329.871094 321.546875 329.148438 322.242188 328.417969 L 320.070312 326.347656 M 315.894531 330.558594 C 315.1875 331.246094 314.46875 331.929688 313.746094 332.601562 L 315.796875 334.792969 C 316.53125 334.105469 317.261719 333.410156 317.984375 332.710938 L 315.894531 330.558594 M 311.5625 334.605469 C 310.828125 335.269531 310.089844 335.921875 309.339844 336.570312 L 311.304688 338.835938 C 312.066406 338.175781 312.820312 337.511719 313.570312 336.835938 L 311.5625 334.605469 M 307.082031 338.488281 C 306.324219 339.121094 305.558594 339.746094 304.789062 340.363281 L 306.667969 342.703125 C 307.453125 342.074219 308.230469 341.4375 309.003906 340.792969 L 307.082031 338.488281 M 302.460938 342.195312 C 301.679688 342.796875 300.890625 343.394531 300.097656 343.984375 L 301.886719 346.394531 C 302.695312 345.792969 303.496094 345.1875 304.292969 344.570312 L 302.460938 342.195312 M 297.703125 345.726562 C 296.898438 346.296875 296.089844 346.863281 295.273438 347.417969 L 296.96875 349.894531 C 297.800781 349.328125 298.625 348.75 299.445312 348.167969 L 297.703125 345.726562 M 292.816406 349.070312 C 291.992188 349.609375 291.160156 350.144531 290.328125 350.671875 L 291.925781 353.210938 C 292.777344 352.671875 293.621094 352.128906 294.464844 351.578125 L 292.816406 349.070312 M 287.808594 352.226562 C 286.964844 352.734375 286.113281 353.238281 285.261719 353.730469 L 286.761719 356.328125 C 287.632812 355.824219 288.5 355.3125 289.359375 354.792969 L 287.808594 352.226562 M 282.683594 355.1875 C 281.824219 355.664062 280.957031 356.132812 280.082031 356.59375 L 281.484375 359.246094 C 282.375 358.777344 283.257812 358.296875 284.136719 357.8125 L 282.683594 355.1875 M 277.457031 357.949219 C 276.578125 358.394531 275.691406 358.832031 274.804688 359.257812 L 276.105469 361.960938 C 277.007812 361.527344 277.910156 361.082031 278.808594 360.628906 L 277.457031 357.949219 M 272.128906 360.511719 C 271.230469 360.921875 270.332031 361.324219 269.429688 361.71875 L 270.625 364.46875 C 271.546875 364.066406 272.464844 363.660156 273.375 363.242188 L 272.128906 360.511719 M 266.707031 362.867188 C 265.792969 363.246094 264.878906 363.613281 263.953125 363.972656 L 265.046875 366.765625 C 265.984375 366.402344 266.921875 366.027344 267.851562 365.640625 L 266.707031 362.867188 M 261.183594 365.023438 C 260.253906 365.363281 259.324219 365.695312 258.390625 366.019531 L 259.371094 368.855469 C 260.324219 368.523438 261.273438 368.1875 262.21875 367.839844 L 261.183594 365.023438 M 255.578125 366.964844 C 254.640625 367.269531 253.695312 367.566406 252.75 367.851562 L 253.621094 370.722656 C 254.585938 370.429688 255.546875 370.128906 256.503906 369.816406 L 255.578125 366.964844 M 249.902344 368.6875 C 248.953125 368.957031 248 369.21875 247.042969 369.46875 L 247.804688 372.371094 C 248.777344 372.113281 249.75 371.847656 250.71875 371.574219 L 249.902344 368.6875 M 244.164062 370.195312 C 243.207031 370.425781 242.242188 370.648438 241.277344 370.863281 L 241.929688 373.792969 C 242.914062 373.574219 243.894531 373.347656 244.871094 373.109375 L 244.167969 370.195312 L 244.164062 370.195312 M 238.375 371.476562 C 237.410156 371.671875 236.4375 371.859375 235.464844 372.035156 L 236 374.988281 C 236.992188 374.808594 237.984375 374.617188 238.96875 374.417969 L 238.378906 371.476562 L 238.375 371.476562 M 232.539062 372.539062 C 231.566406 372.699219 230.589844 372.847656 229.609375 372.988281 L 230.035156 375.957031 C 231.03125 375.8125 232.027344 375.660156 233.023438 375.5 L 232.539062 372.539062 M 226.671875 373.378906 C 225.691406 373.5 224.707031 373.609375 223.722656 373.714844 L 224.035156 376.699219 C 225.039062 376.59375 226.039062 376.480469 227.039062 376.355469 L 226.667969 373.378906 L 226.671875 373.378906 M 220.769531 373.992188 C 219.785156 374.078125 218.800781 374.152344 217.8125 374.21875 L 218.011719 377.210938 C 219.019531 377.144531 220.023438 377.066406 221.023438 376.980469 L 220.769531 373.992188 M 214.851562 374.382812 C 213.867188 374.429688 212.878906 374.46875 211.886719 374.496094 L 211.972656 377.496094 C 212.980469 377.464844 213.988281 377.429688 214.992188 377.382812 L 214.851562 374.382812 M 208.925781 374.554688 C 208.414062 374.558594 207.898438 374.558594 207.386719 374.558594 C 206.910156 374.558594 206.433594 374.558594 205.957031 374.554688 L 205.929688 377.554688 C 206.414062 377.558594 206.898438 377.558594 207.386719 377.558594 C 207.910156 377.558594 208.433594 377.558594 208.953125 377.550781 L 208.925781 374.554688 M 202.992188 374.5 C 202.003906 374.472656 201.011719 374.433594 200.027344 374.390625 L 199.890625 377.386719 C 200.894531 377.433594 201.898438 377.46875 202.910156 377.496094 L 202.992188 374.5 M 197.066406 374.222656 C 196.078125 374.160156 195.09375 374.085938 194.109375 374.003906 L 193.855469 376.992188 C 194.859375 377.074219 195.863281 377.152344 196.871094 377.21875 L 197.066406 374.222656 M 191.15625 373.726562 C 190.171875 373.621094 189.1875 373.511719 188.210938 373.390625 L 187.84375 376.367188 C 188.839844 376.492188 189.84375 376.605469 190.847656 376.710938 L 191.15625 373.726562 M 185.269531 373.003906 C 184.289062 372.863281 183.3125 372.714844 182.335938 372.558594 L 181.855469 375.519531 C 182.851562 375.679688 183.847656 375.832031 184.847656 375.972656 L 185.269531 373.003906 M 179.414062 372.054688 C 178.4375 371.878906 177.46875 371.691406 176.5 371.5 L 175.90625 374.441406 C 176.894531 374.636719 177.886719 374.828125 178.878906 375.007812 L 179.414062 372.054688 M 173.597656 370.886719 C 172.632812 370.671875 171.667969 370.449219 170.707031 370.21875 L 170.003906 373.136719 C 170.984375 373.371094 171.964844 373.597656 172.949219 373.816406 L 173.597656 370.886719 M 167.832031 369.496094 C 166.875 369.242188 165.921875 368.984375 164.972656 368.71875 L 164.15625 371.605469 C 165.125 371.878906 166.097656 372.140625 167.074219 372.398438 L 167.832031 369.496094 M 162.125 367.882812 C 161.171875 367.59375 160.226562 367.296875 159.28125 366.992188 L 158.355469 369.847656 C 159.320312 370.15625 160.285156 370.460938 161.253906 370.753906 L 162.125 367.882812 M 156.460938 366.046875 C 155.523438 365.722656 154.585938 365.390625 153.65625 365.046875 L 152.621094 367.863281 C 153.570312 368.210938 154.523438 368.550781 155.480469 368.882812 L 156.460938 366.046875 M 150.875 363.992188 C 149.949219 363.632812 149.027344 363.265625 148.113281 362.886719 L 146.972656 365.660156 C 147.902344 366.046875 148.84375 366.421875 149.785156 366.789062 L 150.871094 363.992188 L 150.875 363.992188 M 145.371094 361.730469 C 144.464844 361.335938 143.558594 360.929688 142.65625 360.519531 L 141.410156 363.246094 C 142.328125 363.664062 143.25 364.078125 144.179688 364.480469 L 145.371094 361.730469 M 139.964844 359.257812 C 139.070312 358.824219 138.183594 358.386719 137.296875 357.941406 L 135.945312 360.621094 C 136.847656 361.074219 137.753906 361.519531 138.664062 361.960938 L 139.964844 359.257812 M 134.65625 356.578125 C 133.78125 356.113281 132.910156 355.644531 132.042969 355.164062 L 130.589844 357.789062 C 131.472656 358.277344 132.363281 358.757812 133.253906 359.230469 L 134.65625 356.578125 M 129.457031 353.699219 C 128.601562 353.203125 127.75 352.699219 126.902344 352.1875 L 125.347656 354.753906 C 126.214844 355.277344 127.082031 355.789062 127.957031 356.296875 L 129.457031 353.699219 M 124.375 350.625 C 123.535156 350.097656 122.703125 349.5625 121.878906 349.015625 L 120.230469 351.523438 C 121.070312 352.078125 121.921875 352.625 122.773438 353.164062 L 124.375 350.625 M 119.414062 347.363281 C 118.597656 346.800781 117.785156 346.234375 116.980469 345.660156 L 115.238281 348.101562 C 116.058594 348.6875 116.882812 349.265625 117.71875 349.835938 L 119.410156 347.363281 L 119.414062 347.363281 M 114.578125 343.910156 C 113.785156 343.320312 112.996094 342.722656 112.214844 342.121094 L 110.378906 344.492188 C 111.179688 345.109375 111.980469 345.71875 112.789062 346.320312 L 114.578125 343.910156 M 109.882812 340.28125 C 109.113281 339.664062 108.347656 339.035156 107.585938 338.402344 L 105.664062 340.707031 C 106.4375 341.351562 107.21875 341.988281 108.003906 342.621094 L 109.882812 340.28125 M 105.328125 336.480469 C 104.582031 335.832031 103.839844 335.175781 103.105469 334.511719 L 101.097656 336.742188 C 101.847656 337.414062 102.601562 338.085938 103.363281 338.742188 L 105.328125 336.480469 M 100.921875 332.507812 C 100.199219 331.832031 99.484375 331.148438 98.777344 330.457031 L 96.683594 332.609375 C 97.40625 333.3125 98.136719 334.007812 98.871094 334.695312 L 100.921875 332.507812 M 96.667969 328.371094 C 95.972656 327.667969 95.285156 326.960938 94.601562 326.242188 L 92.433594 328.3125 C 93.128906 329.042969 93.828125 329.765625 94.539062 330.480469 L 96.671875 328.371094 L 96.667969 328.371094 M 92.578125 324.078125 C 91.910156 323.351562 91.25 322.617188 90.59375 321.875 L 88.347656 323.863281 C 89.015625 324.617188 89.6875 325.363281 90.367188 326.105469 L 92.578125 324.078125 M 88.652344 319.636719 C 88.015625 318.882812 87.382812 318.125 86.753906 317.359375 L 84.433594 319.261719 C 85.070312 320.039062 85.714844 320.8125 86.367188 321.578125 L 88.65625 319.636719 L 88.652344 319.636719 M 84.902344 315.050781 C 84.289062 314.273438 83.6875 313.492188 83.089844 312.703125 L 80.699219 314.515625 C 81.304688 315.316406 81.921875 316.113281 82.542969 316.90625 L 84.902344 315.050781 M 81.324219 310.324219 C 80.746094 309.527344 80.171875 308.722656 79.605469 307.914062 L 77.148438 309.632812 C 77.722656 310.457031 78.308594 311.277344 78.898438 312.089844 L 81.324219 310.324219 M 77.933594 305.472656 C 77.382812 304.652344 76.839844 303.828125 76.304688 302.996094 L 73.785156 304.621094 C 74.328125 305.46875 74.882812 306.308594 75.441406 307.144531 L 77.933594 305.472656 M 74.726562 300.492188 C 74.210938 299.65625 73.699219 298.8125 73.195312 297.960938 L 70.613281 299.488281 C 71.128906 300.355469 71.648438 301.214844 72.175781 302.070312 L 74.726562 300.492188 M 71.714844 295.398438 C 71.230469 294.542969 70.753906 293.679688 70.28125 292.8125 L 67.644531 294.238281 C 68.121094 295.125 68.609375 296.003906 69.105469 296.878906 L 71.714844 295.398438 M 68.898438 290.199219 C 68.449219 289.324219 68.003906 288.441406 67.566406 287.558594 L 64.875 288.886719 C 65.320312 289.785156 65.773438 290.683594 66.234375 291.574219 L 68.898438 290.199219 M 66.285156 284.894531 C 65.867188 284.003906 65.457031 283.105469 65.054688 282.207031 L 62.316406 283.429688 C 62.726562 284.347656 63.144531 285.261719 63.570312 286.167969 L 66.285156 284.894531 M 63.875 279.496094 C 63.492188 278.589844 63.117188 277.679688 62.75 276.765625 L 59.964844 277.882812 C 60.339844 278.816406 60.722656 279.742188 61.113281 280.667969 L 63.875 279.496094 M 61.671875 274.003906 C 61.320312 273.078125 60.980469 272.152344 60.648438 271.222656 L 57.824219 272.230469 C 58.160156 273.179688 58.511719 274.125 58.867188 275.066406 L 61.671875 274.003906 M 59.675781 268.417969 C 59.359375 267.484375 59.054688 266.542969 58.757812 265.597656 L 55.898438 266.5 C 56.199219 267.460938 56.511719 268.421875 56.832031 269.375 L 59.675781 268.417969 M 57.894531 262.761719 C 57.617188 261.8125 57.347656 260.863281 57.085938 259.90625 L 54.191406 260.699219 C 54.457031 261.671875 54.730469 262.640625 55.015625 263.605469 L 57.894531 262.761719 M 56.332031 257.039062 C 56.089844 256.082031 55.859375 255.121094 55.632812 254.15625 L 52.710938 254.835938 C 52.941406 255.820312 53.175781 256.800781 53.421875 257.773438 L 56.332031 257.039062 M 54.992188 251.261719 C 54.785156 250.296875 54.589844 249.328125 54.402344 248.355469 L 51.457031 248.921875 C 51.648438 249.914062 51.847656 250.902344 52.054688 251.886719 L 54.992188 251.261719 M 53.871094 245.4375 C 53.703125 244.464844 53.542969 243.492188 53.394531 242.511719 L 50.429688 242.964844 C 50.582031 243.964844 50.742188 244.957031 50.914062 245.949219 L 53.871094 245.4375 M 52.972656 239.574219 C 52.84375 238.597656 52.722656 237.617188 52.609375 236.632812 L 49.628906 236.972656 C 49.742188 237.976562 49.867188 238.976562 50 239.972656 L 52.972656 239.574219 M 52.300781 233.683594 C 52.207031 232.699219 52.125 231.714844 52.050781 230.726562 L 49.058594 230.953125 C 49.132812 231.960938 49.21875 232.964844 49.316406 233.96875 L 52.300781 233.683594 M 51.851562 227.769531 C 51.796875 226.78125 51.75 225.796875 51.710938 224.804688 L 48.714844 224.921875 C 48.753906 225.929688 48.800781 226.933594 48.859375 227.9375 L 51.851562 227.769531 M 51.628906 221.847656 C 51.609375 220.859375 51.597656 219.871094 51.597656 218.878906 L 48.597656 218.882812 C 48.597656 219.890625 48.609375 220.898438 48.628906 221.90625 L 51.628906 221.847656 M 51.621094 215.914062 C 51.640625 214.921875 51.667969 213.933594 51.703125 212.949219 L 48.707031 212.839844 C 48.667969 213.84375 48.640625 214.851562 48.625 215.859375 L 51.621094 215.914062 M 51.839844 209.984375 C 51.894531 208.996094 51.960938 208.011719 52.03125 207.027344 L 49.042969 206.804688 C 48.96875 207.804688 48.902344 208.8125 48.84375 209.820312 L 51.839844 209.984375 M 52.28125 204.070312 C 52.375 203.085938 52.476562 202.101562 52.585938 201.121094 L 49.605469 200.785156 C 49.492188 201.785156 49.390625 202.785156 49.292969 203.789062 L 52.28125 204.070312 M 52.945312 198.175781 C 53.074219 197.195312 53.214844 196.214844 53.363281 195.238281 L 50.398438 194.789062 C 50.246094 195.785156 50.105469 196.78125 49.972656 197.785156 L 52.945312 198.175781 M 53.835938 192.3125 C 54 191.335938 54.175781 190.363281 54.363281 189.394531 L 51.414062 188.832031 C 51.226562 189.820312 51.046875 190.8125 50.878906 191.804688 L 53.835938 192.3125 M 54.945312 186.484375 C 55.152344 185.515625 55.363281 184.550781 55.585938 183.589844 L 52.664062 182.914062 C 52.4375 183.894531 52.21875 184.878906 52.011719 185.867188 L 54.945312 186.484375 M 56.28125 180.707031 C 56.523438 179.746094 56.773438 178.789062 57.03125 177.835938 L 54.136719 177.050781 C 53.871094 178.023438 53.617188 178.996094 53.371094 179.976562 L 56.28125 180.707031 M 57.835938 174.980469 C 58.113281 174.03125 58.398438 173.085938 58.695312 172.144531 L 55.832031 171.246094 C 55.53125 172.207031 55.238281 173.171875 54.957031 174.140625 L 57.835938 174.980469 M 59.609375 169.3125 C 59.925781 168.371094 60.25 167.433594 60.582031 166.496094 L 57.757812 165.492188 C 57.417969 166.441406 57.085938 167.398438 56.765625 168.359375 L 59.609375 169.3125 M 61.609375 163.703125 C 61.960938 162.777344 62.320312 161.851562 62.6875 160.929688 L 59.902344 159.816406 C 59.527344 160.753906 59.160156 161.695312 58.800781 162.644531 L 61.609375 163.703125 M 63.816406 158.179688 C 64.203125 157.265625 64.597656 156.355469 65.003906 155.453125 L 62.261719 154.230469 C 61.851562 155.152344 61.449219 156.082031 61.054688 157.011719 L 63.820312 158.179688 L 63.816406 158.179688 M 66.238281 152.746094 C 66.660156 151.847656 67.085938 150.957031 67.523438 150.066406 L 64.832031 148.742188 C 64.386719 149.648438 63.949219 150.558594 63.519531 151.472656 L 66.238281 152.746094 M 68.863281 147.414062 C 69.316406 146.53125 69.78125 145.65625 70.25 144.785156 L 67.613281 143.359375 C 67.132812 144.246094 66.660156 145.140625 66.199219 146.035156 L 68.863281 147.414062 M 71.691406 142.183594 C 72.175781 141.320312 72.671875 140.464844 73.175781 139.613281 L 70.59375 138.085938 C 70.082031 138.953125 69.574219 139.828125 69.078125 140.707031 L 71.691406 142.183594 M 74.710938 137.070312 C 75.234375 136.226562 75.761719 135.390625 76.296875 134.558594 L 73.773438 132.933594 C 73.226562 133.78125 72.691406 134.636719 72.160156 135.496094 L 74.710938 137.070312 M 77.925781 132.074219 C 78.480469 131.253906 79.039062 130.4375 79.605469 129.625 L 77.148438 127.90625 C 76.570312 128.734375 76 129.566406 75.4375 130.402344 L 77.925781 132.074219 M 81.328125 127.210938 C 81.910156 126.40625 82.5 125.613281 83.097656 124.824219 L 80.707031 123.015625 C 80.097656 123.816406 79.496094 124.628906 78.902344 125.445312 L 81.328125 127.210938 M 84.914062 122.476562 C 85.523438 121.699219 86.144531 120.925781 86.769531 120.160156 L 84.449219 118.261719 C 83.808594 119.039062 83.179688 119.828125 82.554688 120.621094 L 84.914062 122.476562 M 88.671875 117.882812 C 89.3125 117.128906 89.960938 116.382812 90.613281 115.640625 L 88.367188 113.65625 C 87.699219 114.410156 87.039062 115.171875 86.386719 115.9375 L 88.671875 117.882812 M 92.601562 113.4375 C 93.269531 112.710938 93.945312 111.988281 94.628906 111.273438 L 92.457031 109.199219 C 91.761719 109.929688 91.074219 110.664062 90.390625 111.410156 L 92.601562 113.4375 M 96.695312 109.144531 C 97.390625 108.441406 98.09375 107.746094 98.800781 107.058594 L 96.710938 104.90625 C 95.988281 105.609375 95.273438 106.316406 94.5625 107.035156 L 96.695312 109.144531 M 100.945312 105.011719 C 101.667969 104.335938 102.394531 103.667969 103.128906 103.007812 L 101.121094 100.777344 C 100.371094 101.449219 99.632812 102.132812 98.894531 102.820312 L 100.945312 105.011719 M 105.351562 101.042969 C 106.097656 100.394531 106.847656 99.753906 107.605469 99.121094 L 105.683594 96.820312 C 104.910156 97.464844 104.144531 98.117188 103.382812 98.777344 L 105.351562 101.042969 M 109.898438 97.242188 C 110.667969 96.625 111.445312 96.015625 112.226562 95.410156 L 110.394531 93.035156 C 109.597656 93.652344 108.804688 94.273438 108.019531 94.90625 L 109.898438 97.242188 M 114.589844 93.621094 C 115.378906 93.03125 116.179688 92.453125 116.980469 91.878906 L 115.238281 89.4375 C 114.421875 90.019531 113.605469 90.613281 112.800781 91.214844 L 114.589844 93.621094 M 119.410156 90.179688 C 120.222656 89.621094 121.042969 89.074219 121.867188 88.53125 L 120.21875 86.023438 C 119.378906 86.578125 118.542969 87.136719 117.714844 87.707031 L 119.410156 90.179688 M 124.355469 86.925781 C 125.1875 86.398438 126.027344 85.882812 126.871094 85.371094 L 125.320312 82.804688 C 124.460938 83.324219 123.605469 83.851562 122.753906 84.390625 L 124.355469 86.925781 M 129.417969 83.863281 C 130.273438 83.371094 131.128906 82.882812 131.992188 82.40625 L 130.539062 79.78125 C 129.660156 80.269531 128.785156 80.765625 127.914062 81.269531 L 129.417969 83.863281 M 134.59375 80.996094 C 135.464844 80.535156 136.339844 80.082031 137.222656 79.636719 L 135.867188 76.960938 C 134.96875 77.414062 134.078125 77.875 133.191406 78.34375 L 134.59375 80.996094 M 139.871094 78.328125 C 140.757812 77.902344 141.652344 77.484375 142.546875 77.070312 L 141.296875 74.34375 C 140.382812 74.765625 139.476562 75.191406 138.570312 75.625 L 139.871094 78.328125 M 145.246094 75.867188 C 146.148438 75.472656 147.054688 75.089844 147.964844 74.710938 L 146.820312 71.941406 C 145.890625 72.324219 144.96875 72.714844 144.046875 73.117188 L 145.246094 75.867188 M 150.71875 73.605469 C 151.636719 73.246094 152.5625 72.898438 153.488281 72.554688 L 152.453125 69.738281 C 151.503906 70.089844 150.5625 70.445312 149.625 70.8125 L 150.71875 73.605469 M 156.28125 71.554688 C 157.214844 71.230469 158.152344 70.914062 159.09375 70.609375 L 158.164062 67.757812 C 157.203125 68.070312 156.25 68.390625 155.296875 68.722656 L 156.28125 71.554688 M 161.921875 69.71875 C 162.867188 69.429688 163.8125 69.152344 164.765625 68.882812 L 163.945312 65.996094 C 162.976562 66.269531 162.011719 66.554688 161.046875 66.847656 L 161.921875 69.71875 M 167.625 68.097656 C 168.582031 67.847656 169.539062 67.605469 170.5 67.371094 L 169.792969 64.457031 C 168.8125 64.695312 167.835938 64.941406 166.863281 65.199219 L 167.628906 68.097656 L 167.625 68.097656 M 173.390625 66.699219 C 174.355469 66.484375 175.320312 66.28125 176.289062 66.082031 L 175.695312 63.144531 C 174.707031 63.34375 173.722656 63.554688 172.738281 63.769531 L 173.390625 66.699219 M 179.203125 65.523438 C 180.175781 65.34375 181.148438 65.175781 182.125 65.015625 L 181.644531 62.058594 C 180.648438 62.21875 179.652344 62.390625 178.664062 62.570312 L 179.203125 65.523438 M 185.058594 64.566406 C 186.03125 64.429688 187.011719 64.296875 187.996094 64.175781 L 187.625 61.199219 C 186.625 61.320312 185.625 61.453125 184.628906 61.597656 L 185.054688 64.566406 L 185.058594 64.566406 M 190.941406 63.835938 C 191.925781 63.734375 192.90625 63.640625 193.894531 63.554688 L 193.636719 60.566406 C 192.632812 60.652344 191.628906 60.75 190.628906 60.855469 L 190.941406 63.835938 M 196.851562 63.328125 C 197.835938 63.265625 198.824219 63.207031 199.8125 63.160156 L 199.671875 60.164062 C 198.660156 60.210938 197.65625 60.269531 196.652344 60.335938 L 196.851562 63.328125 M 202.777344 63.046875 C 203.761719 63.019531 204.75 63 205.738281 62.988281 L 205.710938 59.988281 C 204.699219 60 203.695312 60.019531 202.691406 60.046875 L 202.777344 63.046875 M 208.707031 62.984375 C 209.699219 62.992188 210.6875 63.011719 211.671875 63.039062 L 211.753906 60.039062 C 210.75 60.011719 209.742188 59.992188 208.730469 59.984375 L 208.707031 62.984375 M 214.636719 63.144531 C 215.628906 63.191406 216.613281 63.246094 217.597656 63.308594 L 217.792969 60.316406 C 216.789062 60.25 215.78125 60.195312 214.773438 60.148438 L 214.636719 63.144531 M 220.558594 63.527344 C 221.542969 63.609375 222.527344 63.703125 223.511719 63.804688 L 223.816406 60.820312 C 222.816406 60.71875 221.8125 60.621094 220.808594 60.539062 L 220.558594 63.527344 M 226.457031 64.136719 C 227.441406 64.253906 228.421875 64.382812 229.398438 64.523438 L 229.816406 61.550781 C 228.820312 61.410156 227.820312 61.28125 226.820312 61.15625 L 226.457031 64.136719 M 232.328125 64.964844 C 233.308594 65.121094 234.28125 65.289062 235.253906 65.464844 L 235.785156 62.511719 C 234.796875 62.335938 233.804688 62.164062 232.808594 62.003906 L 232.328125 64.964844 M 238.167969 66.019531 C 239.136719 66.214844 240.105469 66.417969 241.070312 66.628906 L 241.714844 63.699219 C 240.730469 63.484375 239.746094 63.277344 238.757812 63.078125 L 238.167969 66.019531 M 243.960938 67.296875 C 244.921875 67.527344 245.878906 67.769531 246.835938 68.019531 L 247.59375 65.113281 C 246.617188 64.859375 245.640625 64.617188 244.660156 64.378906 L 243.960938 67.296875 M 249.699219 68.792969 C 250.652344 69.0625 251.601562 69.339844 252.546875 69.625 L 253.414062 66.753906 C 252.449219 66.460938 251.480469 66.179688 250.511719 65.90625 L 249.699219 68.792969 M 255.386719 70.515625 C 256.332031 70.820312 257.273438 71.136719 258.210938 71.457031 L 259.1875 68.621094 C 258.234375 68.292969 257.273438 67.972656 256.308594 67.660156 L 255.386719 70.515625 M 261.015625 72.453125 C 261.945312 72.796875 262.875 73.148438 263.796875 73.507812 L 264.886719 70.710938 C 263.941406 70.34375 262.996094 69.988281 262.046875 69.640625 L 261.015625 72.453125 M 266.5625 74.609375 C 267.480469 74.988281 268.390625 75.371094 269.300781 75.769531 L 270.492188 73.015625 C 269.566406 72.613281 268.636719 72.21875 267.699219 71.835938 L 266.5625 74.609375 M 272.019531 76.976562 C 272.921875 77.390625 273.816406 77.808594 274.710938 78.238281 L 276.007812 75.53125 C 275.097656 75.097656 274.183594 74.667969 273.265625 74.246094 L 272.019531 76.976562 M 277.378906 79.550781 C 278.265625 79.996094 279.144531 80.449219 280.019531 80.910156 L 281.421875 78.257812 C 280.527344 77.785156 279.628906 77.324219 278.726562 76.871094 L 277.378906 79.550781 M 282.632812 82.324219 C 283.5 82.804688 284.363281 83.289062 285.222656 83.785156 L 286.722656 81.1875 C 285.847656 80.683594 284.96875 80.1875 284.085938 79.699219 L 282.632812 82.324219 M 287.777344 85.296875 C 288.628906 85.808594 289.46875 86.328125 290.308594 86.855469 L 291.90625 84.316406 C 291.054688 83.78125 290.195312 83.25 289.328125 82.730469 L 287.777344 85.296875 M 292.804688 88.464844 C 293.632812 89.007812 294.453125 89.558594 295.273438 90.117188 L 296.964844 87.640625 C 296.132812 87.070312 295.296875 86.511719 294.453125 85.957031 L 292.804688 88.464844 M 297.707031 91.816406 C 298.511719 92.390625 299.3125 92.972656 300.105469 93.5625 L 301.894531 91.152344 C 301.085938 90.554688 300.269531 89.960938 299.445312 89.375 L 297.707031 91.816406 M 302.472656 95.355469 C 303.257812 95.960938 304.035156 96.570312 304.804688 97.1875 L 306.683594 94.851562 C 305.898438 94.21875 305.105469 93.59375 304.304688 92.980469 L 302.472656 95.355469 M 307.101562 99.066406 C 307.863281 99.703125 308.617188 100.34375 309.363281 100.988281 L 311.328125 98.722656 C 310.566406 98.0625 309.800781 97.410156 309.023438 96.765625 L 307.101562 99.066406 M 311.585938 102.953125 C 312.320312 103.617188 313.050781 104.285156 313.773438 104.960938 L 315.820312 102.769531 C 315.085938 102.078125 314.34375 101.398438 313.59375 100.726562 L 311.585938 102.953125 M 315.921875 107.007812 C 316.628906 107.695312 317.332031 108.390625 318.027344 109.09375 L 320.15625 106.980469 C 319.449219 106.265625 318.734375 105.554688 318.011719 104.855469 L 315.921875 107.007812 M 320.09375 111.21875 C 320.777344 111.933594 321.453125 112.652344 322.121094 113.382812 L 324.332031 111.351562 C 323.648438 110.609375 322.960938 109.875 322.265625 109.144531 L 320.09375 111.21875 M 324.105469 115.582031 C 324.761719 116.324219 325.410156 117.070312 326.050781 117.820312 L 328.335938 115.875 C 327.679688 115.109375 327.019531 114.347656 326.355469 113.59375 L 324.105469 115.582031 M 327.949219 120.097656 C 328.574219 120.859375 329.195312 121.628906 329.804688 122.40625 L 332.160156 120.546875 C 331.539062 119.757812 330.90625 118.972656 330.269531 118.195312 L 327.949219 120.097656 M 331.617188 124.75 C 332.214844 125.535156 332.804688 126.328125 333.386719 127.125 L 335.808594 125.359375 C 335.21875 124.546875 334.617188 123.738281 334.007812 122.9375 L 331.617188 124.75 M 335.105469 129.535156 C 335.671875 130.34375 336.230469 131.160156 336.78125 131.976562 L 339.269531 130.304688 C 338.710938 129.46875 338.140625 128.640625 337.5625 127.816406 L 335.105469 129.535156 M 338.410156 134.449219 C 338.945312 135.28125 339.472656 136.113281 339.988281 136.953125 L 342.539062 135.375 C 342.011719 134.519531 341.476562 133.671875 340.929688 132.824219 L 338.410156 134.449219 M 341.523438 139.484375 C 342.023438 140.332031 342.519531 141.1875 343.007812 142.046875 L 345.613281 140.566406 C 345.121094 139.691406 344.613281 138.820312 344.101562 137.957031 L 341.523438 139.484375 M 344.441406 144.632812 C 344.910156 145.496094 345.371094 146.371094 345.824219 147.246094 L 348.488281 145.867188 C 348.027344 144.972656 347.554688 144.085938 347.078125 143.203125 L 344.441406 144.632812 M 347.160156 149.882812 C 347.597656 150.765625 348.023438 151.65625 348.441406 152.546875 L 351.15625 151.269531 C 350.730469 150.359375 350.292969 149.457031 349.851562 148.554688 L 347.160156 149.882812 M 349.675781 155.234375 C 350.078125 156.132812 350.472656 157.035156 350.855469 157.941406 L 353.617188 156.769531 C 353.226562 155.84375 352.824219 154.925781 352.414062 154.007812 L 349.675781 155.234375 M 351.984375 160.671875 C 352.351562 161.589844 352.714844 162.511719 353.0625 163.433594 L 355.867188 162.367188 C 355.511719 161.425781 355.144531 160.488281 354.769531 159.554688 L 351.984375 160.671875 M 354.089844 166.21875 C 354.425781 167.148438 354.75 168.078125 355.066406 169.019531 L 357.90625 168.0625 C 357.585938 167.105469 357.253906 166.152344 356.914062 165.203125 L 354.089844 166.21875 M 355.984375 171.839844 C 356.28125 172.777344 356.570312 173.726562 356.851562 174.675781 L 359.726562 173.828125 C 359.441406 172.859375 359.148438 171.894531 358.84375 170.933594 L 355.984375 171.839844 M 357.660156 177.527344 C 357.921875 178.480469 358.171875 179.433594 358.414062 180.394531 L 361.324219 179.65625 C 361.074219 178.679688 360.820312 177.703125 360.554688 176.734375 L 357.660156 177.527344 M 359.117188 183.277344 C 359.339844 184.238281 359.554688 185.203125 359.761719 186.171875 L 362.695312 185.546875 C 362.484375 184.558594 362.265625 183.574219 362.039062 182.59375 L 359.117188 183.277344 M 360.351562 189.078125 C 360.539062 190.046875 360.714844 191.019531 360.886719 191.992188 L 363.839844 191.480469 C 363.667969 190.488281 363.488281 189.496094 363.296875 188.507812 L 360.351562 189.078125 M 361.363281 194.921875 C 361.515625 195.894531 361.652344 196.875 361.785156 197.855469 L 364.757812 197.457031 C 364.625 196.457031 364.480469 195.460938 364.328125 194.464844 L 361.363281 194.921875 M 362.152344 200.800781 C 362.265625 201.777344 362.367188 202.761719 362.464844 203.75 L 365.449219 203.464844 C 365.351562 202.457031 365.246094 201.457031 365.132812 200.457031 L 362.152344 200.800781 M 362.71875 206.703125 C 362.792969 207.6875 362.859375 208.675781 362.914062 209.664062 L 365.910156 209.488281 C 365.851562 208.480469 365.785156 207.476562 365.707031 206.472656 L 362.71875 206.703125 M 363.058594 212.625 C 363.097656 213.609375 363.125 214.597656 363.144531 215.585938 L 366.144531 215.523438 C 366.125 214.515625 366.09375 213.511719 366.054688 212.507812 L 363.058594 212.625 M 363.175781 218.550781 L 363.175781 218.769531 C 363.175781 219.761719 363.167969 220.75 363.148438 221.734375 L 366.148438 221.792969 C 366.167969 220.785156 366.175781 219.78125 366.179688 218.769531 L 366.175781 218.546875 L 363.175781 218.550781" fill="#fff"/></g><g><path d="M 66.945312 196.453125 C 61.945312 188.351562 56.765625 180.339844 51.679688 172.289062 C 46.597656 180.339844 41.417969 188.351562 36.417969 196.453125 C 32.472656 202.84375 29.234375 209.894531 30.207031 217.597656 C 31.273438 226.058594 37.882812 234.105469 46.148438 236.027344 C 47.945312 236.445312 49.808594 236.644531 51.679688 236.632812 C 53.550781 236.644531 55.414062 236.445312 57.214844 236.027344 C 65.476562 234.105469 72.089844 226.058594 73.15625 217.597656 C 74.128906 209.894531 70.886719 202.84375 66.945312 196.453125" fill="#57b4af"/></g><g><path d="M 51.882812 172.605469 C 51.828125 172.519531 51.773438 172.429688 51.71875 172.34375 C 51.773438 172.429688 51.828125 172.519531 51.882812 172.605469" fill="#6ba095"/></g><g><path d="M 51.824219 236.632812 C 51.777344 236.632812 51.730469 236.632812 51.679688 236.632812 C 51.632812 236.632812 51.585938 236.632812 51.539062 236.632812 C 49.714844 236.632812 47.898438 236.433594 46.148438 236.027344 C 37.882812 234.105469 31.273438 226.058594 30.207031 217.597656 C 30.089844 216.664062 30.03125 215.742188 30.03125 214.828125 C 30.03125 208.195312 32.953125 202.070312 36.417969 196.453125 C 41.417969 188.351562 46.597656 180.339844 51.679688 172.289062 C 51.695312 172.304688 51.707031 172.324219 51.71875 172.34375 C 51.773438 172.429688 51.828125 172.519531 51.882812 172.605469 C 51.894531 172.625 51.90625 172.640625 51.914062 172.660156 C 49.082031 183.503906 43.515625 193.472656 41.425781 204.535156 C 39.71875 213.59375 40.320312 226.164062 50.449219 230.042969 C 52.046875 230.65625 53.621094 230.933594 55.148438 230.933594 C 62.640625 230.933594 68.941406 224.199219 71.117188 217.074219 C 72.089844 213.894531 72.371094 210.597656 72.140625 207.308594 C 73.152344 210.597656 73.605469 214.027344 73.15625 217.597656 C 72.089844 226.058594 65.476562 234.105469 57.214844 236.027344 C 55.460938 236.433594 53.644531 236.632812 51.824219 236.632812" fill="#408381"/></g><g><path d="M 55.570312 220.910156 C 54.707031 220.910156 53.808594 220.765625 52.878906 220.457031 C 45.234375 217.921875 46.304688 207.320312 47.777344 201.28125 C 49.402344 194.601562 52.5625 188.421875 54.539062 181.855469 C 57.648438 186.75 60.777344 191.636719 63.828125 196.5625 C 65.441406 200.375 66.328125 204.472656 66.039062 208.582031 C 65.648438 214.183594 61.492188 220.910156 55.570312 220.910156" fill="#92cfcd"/></g><g><path d="M 373.617188 328.003906 C 373.617188 348.527344 356.980469 365.164062 336.453125 365.164062 C 315.933594 365.164062 299.292969 348.527344 299.292969 328.003906 C 299.292969 307.480469 315.933594 290.839844 336.453125 290.839844 C 356.980469 290.839844 373.617188 307.480469 373.617188 328.003906" fill="#f46f3f"/></g><g><path d="M 340.515625 343.042969 C 340.515625 345.285156 338.699219 347.105469 336.453125 347.105469 C 334.214844 347.105469 332.394531 345.285156 332.394531 343.042969 C 332.394531 340.800781 334.214844 338.980469 336.453125 338.980469 C 338.699219 338.980469 340.515625 340.800781 340.515625 343.042969" fill="#fff"/></g><g><path d="M 355.765625 323.421875 C 355.015625 323.421875 354.261719 323.136719 353.6875 322.5625 C 349.085938 317.957031 342.964844 315.425781 336.453125 315.425781 C 329.945312 315.425781 323.824219 317.957031 319.222656 322.5625 C 318.074219 323.710938 316.214844 323.710938 315.066406 322.5625 C 313.914062 321.414062 313.914062 319.554688 315.066406 318.402344 C 320.777344 312.6875 328.375 309.542969 336.453125 309.542969 C 344.535156 309.542969 352.132812 312.6875 357.847656 318.402344 C 358.992188 319.554688 358.992188 321.414062 357.847656 322.5625 C 357.269531 323.136719 356.519531 323.421875 355.765625 323.421875" fill="#fff"/></g><g><path d="M 349.390625 330.691406 C 348.640625 330.691406 347.886719 330.40625 347.3125 329.832031 C 341.324219 323.84375 331.585938 323.847656 325.601562 329.832031 C 324.449219 330.980469 322.589844 330.980469 321.4375 329.832031 C 320.289062 328.683594 320.289062 326.824219 321.4375 325.671875 C 329.71875 317.394531 343.191406 317.394531 351.472656 325.671875 C 352.617188 326.824219 352.617188 328.683594 351.472656 329.832031 C 350.894531 330.40625 350.144531 330.691406 349.390625 330.691406" fill="#fff"/></g><g><path d="M 344.523438 338.082031 C 343.773438 338.082031 343.019531 337.792969 342.445312 337.21875 C 340.847656 335.617188 338.71875 334.734375 336.453125 334.734375 C 334.191406 334.734375 332.0625 335.617188 330.464844 337.21875 C 329.3125 338.367188 327.453125 338.367188 326.308594 337.21875 C 325.15625 336.070312 325.15625 334.207031 326.308594 333.0625 C 329.015625 330.347656 332.621094 328.855469 336.453125 328.855469 C 340.289062 328.855469 343.894531 330.347656 346.605469 333.0625 C 347.753906 334.207031 347.753906 336.070312 346.605469 337.21875 C 346.03125 337.792969 345.277344 338.082031 344.523438 338.082031" fill="#fff"/></g><g><path d="M 362.605469 96.246094 C 362.605469 116.769531 345.96875 133.410156 325.441406 133.410156 C 304.921875 133.410156 288.28125 116.769531 288.28125 96.246094 C 288.28125 75.722656 304.921875 59.085938 325.441406 59.085938 C 345.96875 59.085938 362.605469 75.722656 362.605469 96.246094" fill="#3bbec5"/></g><g><path d="M 336.90625 110.472656 C 336.90625 110.652344 336.761719 110.796875 336.578125 110.796875 L 314.304688 110.796875 C 314.125 110.796875 313.980469 110.652344 313.980469 110.472656 L 313.980469 77.511719 C 313.980469 77.332031 314.125 77.1875 314.304688 77.1875 L 336.578125 77.1875 C 336.761719 77.1875 336.90625 77.332031 336.90625 77.511719 Z M 328.742188 114.058594 L 322.144531 114.058594 C 321.703125 114.058594 321.34375 113.699219 321.34375 113.257812 C 321.34375 112.8125 321.703125 112.453125 322.144531 112.453125 L 328.742188 112.453125 C 329.183594 112.453125 329.542969 112.8125 329.542969 113.257812 C 329.542969 113.699219 329.183594 114.058594 328.742188 114.058594 Z M 336.578125 73.621094 L 314.304688 73.621094 C 312.160156 73.621094 310.414062 75.367188 310.414062 77.511719 L 310.414062 112.496094 C 310.414062 114.640625 312.160156 116.386719 314.304688 116.386719 L 336.578125 116.386719 C 338.726562 116.386719 340.472656 114.640625 340.472656 112.496094 L 340.472656 77.511719 C 340.472656 75.367188 338.726562 73.621094 336.578125 73.621094" fill="#fff"/></g><g><path d="M 133.8125 328.003906 C 133.8125 348.527344 117.171875 365.164062 96.648438 365.164062 C 76.121094 365.164062 59.484375 348.527344 59.484375 328.003906 C 59.484375 307.480469 76.121094 290.839844 96.648438 290.839844 C 117.171875 290.839844 133.8125 307.480469 133.8125 328.003906" fill="#80cc28"/></g><g><path d="M 90.878906 335.816406 L 102.421875 335.816406 C 102.6875 331.277344 105.214844 328.109375 105.335938 327.964844 L 105.390625 327.898438 C 107.429688 325.691406 108.550781 322.828125 108.550781 319.828125 C 108.550781 313.265625 103.210938 307.929688 96.648438 307.929688 C 90.085938 307.929688 84.746094 313.265625 84.746094 319.828125 C 84.746094 322.828125 85.867188 325.691406 87.90625 327.898438 L 87.949219 327.945312 C 87.976562 327.980469 90.601562 331.171875 90.878906 335.816406 Z M 105.273438 338.605469 L 88.023438 338.605469 L 88.097656 337.140625 C 88.308594 333.109375 86.050781 330.054688 85.820312 329.746094 C 83.332031 327.03125 81.960938 323.511719 81.960938 319.828125 C 81.960938 311.730469 88.546875 305.136719 96.648438 305.136719 C 104.746094 305.136719 111.335938 311.730469 111.335938 319.828125 C 111.335938 323.511719 109.96875 327.03125 107.480469 329.746094 C 107.238281 330.058594 104.988281 333.109375 105.199219 337.140625 L 105.273438 338.605469" fill="#fff"/></g><g><path d="M 96.648438 350.867188 C 94.226562 350.867188 92.101562 349.464844 91.359375 347.375 L 90.703125 345.515625 L 102.597656 345.515625 L 101.9375 347.375 C 101.191406 349.464844 99.070312 350.867188 96.648438 350.867188" fill="#fff"/></g><g><path d="M 91.859375 344.636719 L 101.433594 344.636719 L 101.433594 342.972656 L 91.859375 342.972656 Z M 104.222656 347.421875 L 89.074219 347.421875 L 89.074219 340.183594 L 104.222656 340.183594 L 104.222656 347.421875" fill="#fff"/></g><g><path d="M 139.757812 98.28125 C 139.757812 118.804688 123.117188 135.441406 102.597656 135.441406 C 82.074219 135.441406 65.433594 118.804688 65.433594 98.28125 C 65.433594 77.757812 82.074219 61.117188 102.597656 61.117188 C 123.117188 61.117188 139.757812 77.757812 139.757812 98.28125" fill="#183651"/></g><g><path d="M 99.535156 93.519531 C 99.535156 94.03125 99.117188 94.449219 98.605469 94.449219 L 86.441406 94.449219 C 85.921875 94.449219 85.507812 94.03125 85.507812 93.519531 L 85.507812 85.578125 C 85.507812 85.0625 85.921875 84.648438 86.441406 84.648438 L 98.605469 84.648438 C 99.117188 84.648438 99.535156 85.0625 99.535156 85.578125 L 99.535156 93.519531" fill="#fff"/></g><g><path d="M 90.496094 83.890625 L 90.496094 75.480469 C 90.496094 74.953125 90.070312 74.527344 89.542969 74.527344 C 89.015625 74.527344 88.589844 74.953125 88.589844 75.480469 L 88.589844 83.890625 L 90.496094 83.890625" fill="#fff"/></g><g><path d="M 96.21875 83.890625 L 96.21875 75.480469 C 96.21875 74.953125 95.789062 74.527344 95.261719 74.527344 C 94.734375 74.527344 94.308594 74.953125 94.308594 75.480469 L 94.308594 83.890625 L 96.21875 83.890625" fill="#fff"/></g><g><path d="M 86.285156 95.007812 C 86.476562 98.285156 89.195312 100.886719 92.523438 100.886719 C 95.847656 100.886719 98.566406 98.285156 98.757812 95.007812 L 86.285156 95.007812" fill="#fff"/></g><g><path d="M 100.171875 119.546875 C 99.84375 119.546875 99.59375 119.527344 99.449219 119.515625 C 96.585938 119.507812 94.371094 118.65625 92.867188 116.976562 C 90.757812 114.617188 90.894531 111.460938 90.949219 110.828125 L 90.949219 100.28125 L 94.097656 100.28125 L 94.085938 111.078125 C 94.085938 111.09375 93.863281 113.386719 95.230469 114.890625 C 96.125 115.878906 97.578125 116.375 99.527344 116.363281 L 99.640625 116.363281 L 99.757812 116.378906 C 99.765625 116.382812 101.71875 116.613281 103.113281 115.460938 C 104.050781 114.691406 104.589844 113.410156 104.710938 111.660156 L 104.710938 89.644531 C 104.636719 88.972656 104.445312 86.164062 106.238281 83.960938 C 107.550781 82.34375 109.542969 81.460938 112.15625 81.328125 L 112.195312 81.328125 C 112.332031 81.324219 115.652344 81.261719 117.851562 83.585938 C 119.242188 85.066406 119.847656 87.089844 119.644531 89.613281 L 119.644531 104.363281 L 116.496094 104.363281 L 116.503906 89.414062 C 116.640625 87.800781 116.324219 86.574219 115.570312 85.761719 C 114.410156 84.519531 112.472656 84.476562 112.285156 84.476562 C 110.613281 84.566406 109.402344 85.058594 108.683594 85.945312 C 107.566406 87.316406 107.839844 89.28125 107.84375 89.300781 L 107.859375 89.425781 L 107.855469 111.816406 C 107.683594 114.515625 106.746094 116.570312 105.078125 117.921875 C 103.355469 119.324219 101.308594 119.546875 100.171875 119.546875" fill="#fff"/></g><g><path d="M 226.496094 81.214844 L 198.703125 81.214844 L 198.828125 78.851562 C 199.171875 72.367188 195.539062 67.445312 195.15625 66.949219 C 191.148438 62.574219 188.941406 56.90625 188.941406 50.972656 C 188.941406 37.925781 199.558594 27.3125 212.601562 27.3125 C 225.644531 27.3125 236.257812 37.925781 236.257812 50.972656 C 236.257812 56.90625 234.054688 62.574219 230.046875 66.949219 C 229.660156 67.449219 226.03125 72.367188 226.371094 78.851562 L 226.496094 81.214844" fill="#f9a72b"/></g><g><path d="M 212.675781 81.214844 L 198.703125 81.214844 L 198.828125 78.851562 C 198.84375 78.5625 198.851562 78.273438 198.851562 77.988281 C 198.851562 71.933594 195.523438 67.425781 195.15625 66.949219 C 194.214844 65.921875 193.375 64.824219 192.636719 63.667969 C 192.050781 62.75 191.53125 61.792969 191.082031 60.808594 C 189.683594 57.75 188.941406 54.402344 188.941406 50.972656 C 188.941406 37.925781 199.558594 27.3125 212.601562 27.3125 C 212.617188 27.3125 212.628906 27.3125 212.644531 27.3125 C 212.648438 27.3125 212.652344 27.3125 212.65625 27.3125 C 212.667969 27.3125 212.679688 27.3125 212.6875 27.3125 C 212.691406 27.3125 212.695312 27.3125 212.703125 27.3125 C 212.714844 27.3125 212.722656 27.3125 212.734375 27.3125 C 212.738281 27.3125 212.742188 27.3125 212.746094 27.3125 C 216.65625 27.335938 220.347656 28.320312 223.597656 30.03125 C 211.890625 31.445312 202.78125 41.433594 202.78125 53.511719 C 202.78125 59.445312 204.988281 65.117188 208.996094 69.488281 C 209.375 69.984375 212.9375 74.820312 212.675781 81.214844" fill="#b87a1f"/></g><g><path d="M 204.894531 88.246094 L 220.308594 88.246094 L 220.308594 90.933594 L 204.894531 90.933594 Z M 224.800781 83.757812 L 200.402344 83.757812 L 200.402344 95.421875 L 204.117188 95.421875 C 205.335938 98.742188 208.730469 100.964844 212.601562 100.964844 C 216.472656 100.964844 219.863281 98.742188 221.085938 95.421875 L 224.800781 95.421875 L 224.800781 83.757812" fill="#393536"/></g><g><path d="M 221.894531 60.070312 C 216.046875 60.070312 211.304688 55.140625 211.304688 49.054688 C 211.304688 42.972656 216.046875 38.039062 221.894531 38.039062 C 227.742188 38.039062 232.484375 42.972656 232.484375 49.054688 C 232.484375 55.140625 227.742188 60.070312 221.894531 60.070312" fill="#fbcb5e"/></g><g><path d="M 355.585938 205.695312 L 377.003906 205.695312 L 377.003906 181.164062 C 377.003906 180.402344 376.386719 179.785156 375.625 179.785156 L 356.964844 179.785156 C 356.203125 179.785156 355.585938 180.402344 355.585938 181.164062 L 355.585938 205.695312 M 379.503906 210.769531 L 350.769531 210.769531 L 350.558594 208.464844 C 350.53125 208.261719 350.515625 208.074219 350.515625 207.882812 L 350.515625 181.164062 C 350.515625 177.605469 353.40625 174.710938 356.964844 174.710938 L 375.625 174.710938 C 379.183594 174.710938 382.074219 177.605469 382.074219 181.164062 L 382.074219 207.882812 C 382.074219 208.074219 382.058594 208.261719 382.03125 208.449219 L 381.820312 210.753906 L 379.503906 210.769531" fill="#bdbcbc"/></g><g><path d="M 374.972656 203.238281 L 357.613281 203.238281 L 357.613281 183.359375 C 357.613281 182.742188 358.113281 182.238281 358.730469 182.238281 L 373.855469 182.238281 C 374.472656 182.238281 374.972656 182.742188 374.972656 183.359375 L 374.972656 203.238281 M 377.003906 181.164062 C 377.003906 180.402344 376.386719 179.785156 375.621094 179.785156 L 356.964844 179.785156 C 356.203125 179.785156 355.585938 180.402344 355.585938 181.164062 L 355.585938 205.695312 L 377.003906 205.695312 L 377.003906 181.164062" fill="#918f8f"/></g><g><path d="M 381.09375 236.632812 L 351.492188 236.632812 C 347.554688 236.632812 344.347656 233.425781 344.347656 229.488281 L 344.347656 199.886719 C 344.347656 195.945312 347.554688 192.738281 351.492188 192.738281 L 381.09375 192.738281 C 385.035156 192.738281 388.238281 195.945312 388.238281 199.886719 L 388.238281 229.488281 C 388.238281 233.425781 385.035156 236.632812 381.09375 236.632812" fill="#f9a72b"/></g><g><path d="M 369.386719 233.363281 C 364.285156 233.363281 359.445312 231.40625 356.511719 226.441406 C 352.59375 219.824219 352.445312 210.644531 355.359375 203.605469 C 357.222656 199.113281 360.652344 194.972656 365.085938 192.8125 L 365.238281 192.738281 L 351.492188 192.738281 C 347.554688 192.738281 344.347656 195.945312 344.347656 199.886719 L 344.347656 229.488281 L 344.347656 199.886719 C 344.347656 195.945312 347.554688 192.738281 351.492188 192.738281 L 367.132812 192.738281 C 365.558594 193.851562 364.070312 195.074219 362.84375 196.601562 C 360.371094 199.675781 359.515625 203.714844 359.226562 207.558594 C 358.683594 214.746094 360.765625 222.769531 368.230469 225.257812 C 369.929688 225.820312 371.734375 226.09375 373.546875 226.09375 C 378.820312 226.09375 384.179688 223.777344 387.257812 219.554688 C 387.609375 219.074219 387.9375 218.578125 388.238281 218.074219 L 388.238281 224.03125 C 386.371094 226.507812 384.050781 228.640625 381.109375 230.234375 C 377.578125 232.148438 373.402344 233.363281 369.386719 233.363281" fill="#cd8923"/></g><g><path d="M 381.09375 236.632812 L 351.492188 236.632812 C 347.554688 236.632812 344.347656 233.425781 344.347656 229.488281 L 344.347656 199.886719 C 344.347656 195.945312 347.554688 192.738281 351.492188 192.738281 L 365.238281 192.738281 L 365.085938 192.8125 C 360.652344 194.972656 357.222656 199.113281 355.359375 203.605469 C 352.445312 210.644531 352.59375 219.824219 356.511719 226.441406 C 359.445312 231.40625 364.285156 233.363281 369.386719 233.363281 C 373.402344 233.363281 377.578125 232.148438 381.109375 230.234375 C 384.050781 228.640625 386.371094 226.507812 388.238281 224.03125 L 388.238281 229.488281 C 388.238281 233.425781 385.035156 236.632812 381.09375 236.632812" fill="#aa711c"/></g><g><path d="M 373.023438 217.832031 C 370.394531 217.832031 367.902344 216.785156 366.382812 214.210938 C 364.3125 210.710938 364.554688 205.925781 365.902344 202.226562 C 366.863281 199.597656 368.996094 197.480469 371.480469 196.269531 C 373.105469 195.476562 375.269531 194.941406 377.363281 194.941406 C 378.53125 194.941406 379.675781 195.109375 380.691406 195.488281 C 385.683594 197.359375 386.472656 206.398438 384.28125 210.578125 C 383.285156 212.472656 381.964844 214.164062 380.109375 215.476562 C 378.074219 216.914062 375.484375 217.832031 373.023438 217.832031" fill="#fbcb5e"/></g><g><path d="M 368.066406 219.238281 C 368.066406 220.21875 367.273438 221.011719 366.296875 221.011719 C 365.3125 221.011719 364.519531 220.21875 364.519531 219.238281 L 364.519531 208.21875 C 364.519531 207.238281 365.3125 206.445312 366.296875 206.445312 C 367.273438 206.445312 368.066406 207.238281 368.066406 208.21875 L 368.066406 219.238281" fill="#24272f"/></g><g><path d="M 370.804688 222.28125 C 370.804688 224.773438 368.785156 226.789062 366.296875 226.789062 C 363.804688 226.789062 361.785156 224.773438 361.785156 222.28125 C 361.785156 219.792969 363.804688 217.773438 366.296875 217.773438 C 368.785156 217.773438 370.804688 219.792969 370.804688 222.28125" fill="#24272f"/></g><g><path d="M 308.96875 297.207031 C 308.96875 301.550781 305.445312 305.070312 301.105469 305.070312 L 139.460938 305.070312 C 135.117188 305.070312 131.597656 301.550781 131.597656 297.207031 L 131.597656 194.976562 C 131.597656 190.636719 135.117188 187.113281 139.460938 187.113281 L 301.105469 187.113281 C 305.445312 187.113281 308.96875 190.636719 308.96875 194.976562 L 308.96875 297.207031" fill="#29242c"/></g><g><path d="M 299.113281 291.730469 C 299.113281 295.480469 295.984375 298.515625 292.125 298.515625 L 148.4375 298.515625 C 144.578125 298.515625 141.449219 295.480469 141.449219 291.730469 L 141.449219 203.511719 C 141.449219 199.765625 144.578125 196.726562 148.4375 196.726562 L 292.125 196.726562 C 295.984375 196.726562 299.113281 199.765625 299.113281 203.511719 L 299.113281 291.730469" fill="#1c181c"/></g><g><path d="M 296.296875 289.15625 C 296.296875 292.6875 293.28125 295.546875 289.558594 295.546875 L 151.007812 295.546875 C 147.28125 295.546875 144.265625 292.6875 144.265625 289.15625 L 144.265625 206.085938 C 144.265625 202.554688 147.28125 199.695312 151.007812 199.695312 L 289.558594 199.695312 C 293.28125 199.695312 296.296875 202.554688 296.296875 206.085938 L 296.296875 289.15625" fill="#fff"/></g><g><path d="M 225.632812 191.484375 C 225.632812 192.207031 225.050781 192.796875 224.320312 192.796875 L 211.21875 192.796875 C 210.492188 192.796875 209.90625 192.207031 209.90625 191.484375 C 209.90625 190.761719 210.492188 190.175781 211.21875 190.175781 L 224.320312 190.175781 C 225.050781 190.175781 225.632812 190.761719 225.632812 191.484375" fill="#141012"/></g><g><path d="M 230.65625 191.484375 C 230.65625 192.207031 230.070312 192.796875 229.347656 192.796875 C 228.621094 192.796875 228.035156 192.207031 228.035156 191.484375 C 228.035156 190.761719 228.621094 190.175781 229.347656 190.175781 C 230.070312 190.175781 230.65625 190.761719 230.65625 191.484375" fill="#141012"/></g><g><path d="M 251.863281 277.609375 L 155.6875 277.609375 L 155.6875 274.5 L 251.863281 274.5 L 251.863281 277.609375" fill="#d3d2d2"/></g><g><path d="M 250.207031 272.207031 L 218.484375 272.207031 L 218.484375 274.5 L 250.207031 274.5 L 250.207031 272.207031" fill="#aeacac"/></g><g><path d="M 250.207031 229.050781 L 234.347656 216.238281 L 218.484375 230.011719 L 218.484375 272.207031 L 250.207031 272.207031 L 250.207031 229.050781" fill="#dea678"/></g><g><path d="M 218.484375 230.972656 L 157.34375 230.972656 L 157.34375 274.5 L 218.484375 274.5 L 218.484375 230.972656" fill="#dea678"/></g><g><path d="M 218.484375 230.972656 L 154.484375 230.972656 L 154.484375 229.050781 L 218.484375 229.050781 L 218.484375 230.972656" fill="#1f2021"/></g><g><path d="M 234.347656 215.300781 L 220.558594 221.105469 L 162.847656 221.105469 L 154.484375 229.050781 L 218.484375 229.050781 L 234.347656 215.300781" fill="#2c2d30"/></g><g><path d="M 234.347656 215.300781 L 220.558594 221.105469 L 218.484375 229.050781 Z M 234.347656 215.300781" fill="#3c3f45"/></g><g><path d="M 212.273438 274.5 L 191.753906 274.5 L 191.753906 235.53125 L 212.273438 235.53125 L 212.273438 274.5" fill="#311b19"/></g><g><path d="M 211.238281 274.5 L 192.789062 274.5 L 192.789062 236.980469 L 211.238281 236.980469 L 211.238281 274.5" fill="#45291d"/></g><g><path d="M 208.792969 249.058594 L 195.234375 249.058594 L 195.234375 239.054688 L 208.792969 239.054688 L 208.792969 249.058594" fill="#27150d"/></g><g><path d="M 208.179688 248.832031 L 195.847656 248.832031 L 195.847656 239.28125 L 208.179688 239.28125 L 208.179688 248.832031" fill="#54c5bb"/></g><g><path d="M 201.894531 248.644531 L 196.730469 248.644531 L 196.730469 239.46875 L 201.894531 239.46875 L 201.894531 248.644531" fill="#76d0ba"/></g><g><path d="M 210.59375 258.925781 C 210.59375 259.257812 210.324219 259.523438 209.996094 259.523438 C 209.660156 259.523438 209.394531 259.257812 209.394531 258.925781 L 209.394531 252.558594 C 209.394531 252.226562 209.660156 251.960938 209.996094 251.960938 C 210.324219 251.960938 210.59375 252.226562 210.59375 252.558594 L 210.59375 258.925781" fill="#fbc513"/></g><g><path d="M 186.222656 266.058594 L 162.179688 266.058594 L 162.179688 240.976562 L 186.222656 240.976562 L 186.222656 266.058594" fill="#c68657"/></g><g><path d="M 185.195312 264.984375 L 163.207031 264.984375 L 163.207031 242.050781 L 185.195312 242.050781 L 185.195312 264.984375" fill="#311b19"/></g><g><path d="M 183.191406 262.894531 L 165.210938 262.894531 L 165.210938 244.136719 L 183.191406 244.136719 L 183.191406 262.894531" fill="#54c5bb"/></g><g><path d="M 171.335938 260.253906 L 166.066406 260.253906 L 166.066406 244.808594 L 171.335938 244.808594 L 171.335938 260.253906" fill="#76d0ba"/></g><g><path d="M 182.4375 260.253906 L 177.164062 260.253906 L 177.164062 244.808594 L 182.4375 244.808594 L 182.4375 260.253906" fill="#76d0ba"/></g><g><path d="M 175.046875 263.882812 L 173.355469 263.882812 L 173.355469 243.152344 L 175.046875 243.152344 L 175.046875 263.882812" fill="#311b19"/></g><g><path d="M 164.671875 250.039062 L 164.671875 249.222656 L 174.191406 249.222656 L 174.191406 250.039062 L 164.671875 250.039062" fill="#311b19"/></g><g><path d="M 174.714844 250.039062 L 174.714844 249.222656 L 184.234375 249.222656 L 184.234375 250.039062 L 174.714844 250.039062" fill="#311b19"/></g><g><path d="M 171.335938 250.042969 C 171.335938 250.273438 171.152344 250.460938 170.933594 250.460938 L 167.777344 250.460938 C 167.558594 250.460938 167.375 250.273438 167.375 250.042969 C 167.375 249.816406 167.558594 249.628906 167.777344 249.628906 L 170.933594 249.628906 C 171.152344 249.628906 171.335938 249.816406 171.335938 250.042969" fill="#fddd10"/></g><g><path d="M 181.128906 250.042969 C 181.128906 250.273438 180.945312 250.460938 180.726562 250.460938 L 177.570312 250.460938 C 177.351562 250.460938 177.164062 250.273438 177.164062 250.042969 C 177.164062 249.816406 177.351562 249.628906 177.570312 249.628906 L 180.726562 249.628906 C 180.945312 249.628906 181.128906 249.816406 181.128906 250.042969" fill="#fddd10"/></g><g><path d="M 246.53125 264.5 L 222.484375 264.5 L 222.484375 239.417969 L 246.53125 239.417969 L 246.53125 264.5" fill="#c68657"/></g><g><path d="M 245.503906 263.425781 L 223.515625 263.425781 L 223.515625 240.492188 L 245.503906 240.492188 L 245.503906 263.425781" fill="#311b19"/></g><g><path d="M 243.5 261.339844 L 225.519531 261.339844 L 225.519531 242.578125 L 243.5 242.578125 L 243.5 261.339844" fill="#54c5bb"/></g><g><path d="M 231.644531 258.695312 L 226.371094 258.695312 L 226.371094 243.253906 L 231.644531 243.253906 L 231.644531 258.695312" fill="#76d0ba"/></g><g><path d="M 242.746094 258.695312 L 237.476562 258.695312 L 237.476562 243.253906 L 242.746094 243.253906 L 242.746094 258.695312" fill="#76d0ba"/></g><g><path d="M 235.355469 262.324219 L 233.664062 262.324219 L 233.664062 241.597656 L 235.355469 241.597656 L 235.355469 262.324219" fill="#311b19"/></g><g><path d="M 224.980469 248.480469 L 224.980469 247.664062 L 234.503906 247.664062 L 234.503906 248.480469 L 224.980469 248.480469" fill="#311b19"/></g><g><path d="M 235.019531 248.480469 L 235.019531 247.664062 L 244.542969 247.664062 L 244.542969 248.480469 L 235.019531 248.480469" fill="#311b19"/></g><g><path d="M 231.644531 248.488281 C 231.644531 248.714844 231.464844 248.902344 231.238281 248.902344 L 228.089844 248.902344 C 227.863281 248.902344 227.683594 248.714844 227.683594 248.488281 C 227.683594 248.257812 227.863281 248.074219 228.089844 248.074219 L 231.238281 248.074219 C 231.464844 248.074219 231.644531 248.257812 231.644531 248.488281" fill="#fddd10"/></g><g><path d="M 241.433594 248.488281 C 241.433594 248.714844 241.257812 248.902344 241.03125 248.902344 L 237.882812 248.902344 C 237.65625 248.902344 237.476562 248.714844 237.476562 248.488281 C 237.476562 248.257812 237.65625 248.074219 237.882812 248.074219 L 241.03125 248.074219 C 241.257812 248.074219 241.433594 248.257812 241.433594 248.488281" fill="#fddd10"/></g><g><path d="M 234.347656 215.300781 L 218.484375 229.050781 L 218.484375 230.972656 L 234.347656 218.742188 L 251.027344 231.730469 L 251.027344 229.351562 L 234.347656 215.300781" fill="#1f2021"/></g><g><path d="M 251.097656 274.5 L 251.097656 260.335938 C 251.097656 259.613281 250.507812 259.023438 249.78125 259.023438 C 249.0625 259.023438 248.472656 259.613281 248.472656 260.335938 L 248.472656 274.5 L 251.097656 274.5" fill="#4e3c28"/></g><g><path d="M 244.8125 274.5 L 244.8125 260.335938 C 244.8125 259.613281 244.226562 259.023438 243.5 259.023438 C 242.777344 259.023438 242.1875 259.613281 242.1875 260.335938 L 242.1875 274.5 L 244.8125 274.5" fill="#4e3c28"/></g><g><path d="M 238.53125 274.5 L 238.53125 260.335938 C 238.53125 259.613281 237.941406 259.023438 237.21875 259.023438 C 236.492188 259.023438 235.90625 259.613281 235.90625 260.335938 L 235.90625 274.5 L 238.53125 274.5" fill="#4e3c28"/></g><g><path d="M 232.246094 274.5 L 232.246094 260.335938 C 232.246094 259.613281 231.660156 259.023438 230.9375 259.023438 C 230.210938 259.023438 229.621094 259.613281 229.621094 260.335938 L 229.621094 274.5 L 232.246094 274.5" fill="#4e3c28"/></g><g><path d="M 225.964844 274.5 L 225.964844 260.335938 C 225.964844 259.613281 225.375 259.023438 224.648438 259.023438 C 223.925781 259.023438 223.339844 259.613281 223.339844 260.335938 L 223.339844 274.5 L 225.964844 274.5" fill="#4e3c28"/></g><g><path d="M 219.679688 274.5 L 219.679688 260.335938 C 219.679688 259.613281 219.09375 259.023438 218.367188 259.023438 C 217.644531 259.023438 217.054688 259.613281 217.054688 260.335938 L 217.054688 274.5 L 219.679688 274.5" fill="#4e3c28"/></g><g><path d="M 217.855469 265.203125 L 249.78125 265.203125 L 249.78125 263.425781 L 217.855469 263.425781 L 217.855469 265.203125" fill="#4e3c28"/></g><g><path d="M 217.855469 271.316406 L 249.78125 271.316406 L 249.78125 269.542969 L 217.855469 269.542969 L 217.855469 271.316406" fill="#4e3c28"/></g><g clip-path="url(#b)"><path d="M 165.34375 271.039062 C 165.34375 264.601562 158.816406 249.691406 155.792969 242.519531 C 155.058594 240.773438 153.589844 236.652344 153.285156 235.9375 C 152.285156 233.558594 145.21875 235.53125 145.621094 241.207031 C 145.972656 246.132812 146.730469 248.703125 147.476562 255.21875 C 148.09375 260.609375 144.988281 266.652344 144.203125 266.894531 C 142.097656 267.546875 130.535156 255.03125 130.660156 252.984375 C 130.6875 252.550781 131.050781 251.828125 131.601562 250.929688 L 131.601562 233.308594 C 127.53125 237.839844 121.617188 244.347656 120.332031 247.402344 C 118.6875 251.308594 119.875 262.09375 119.875 262.09375 L 122.90625 267.6875 C 122.90625 267.6875 119.9375 265.566406 118.667969 262.015625 C 118.101562 260.429688 117.976562 253.820312 118.4375 249.261719 C 115.804688 250.351562 110.714844 254.289062 110.160156 261.269531 C 109.855469 265.023438 113.136719 271.78125 116.425781 274.480469 C 116.425781 274.480469 110.4375 272.714844 109.226562 263.78125 C 108.777344 260.449219 105.035156 269.589844 106.34375 274.574219 C 107.363281 278.484375 111.183594 283.136719 111.183594 283.136719 C 111.183594 283.136719 107.554688 280.566406 105.785156 276.847656 C 104.777344 274.730469 101.589844 282.152344 103.546875 286.523438 C 104.644531 288.996094 110.066406 295.140625 110.066406 295.140625 L 124.800781 316.640625 L 118.765625 425.199219 L 167.917969 425.199219 C 167.917969 425.199219 153.34375 315.410156 153.273438 314.683594 C 152.6875 308.261719 165.34375 279.042969 165.34375 271.039062" fill="#f9aa78"/></g><g><path d="M 158.105469 247.988281 C 157.753906 248.027344 157.28125 248.09375 156.773438 248.207031 C 155.730469 248.445312 154.921875 248.789062 154.921875 248.789062 C 154.921875 248.789062 155.800781 248.757812 156.84375 248.519531 C 157.378906 248.402344 157.851562 248.25 158.1875 248.132812 L 158.105469 247.988281" fill="#fbc18e"/></g><g><path d="M 158.460938 248.800781 C 158.109375 248.828125 157.519531 248.898438 156.863281 249.046875 C 155.820312 249.28125 155.007812 249.628906 155.007812 249.628906 C 155.007812 249.628906 155.890625 249.597656 156.9375 249.359375 C 157.597656 249.210938 158.164062 249.015625 158.488281 248.894531 L 158.460938 248.800781" fill="#fbc18e"/></g><g><path d="M 155.269531 241.207031 C 154.957031 240.402344 154.609375 239.472656 154.292969 238.613281 C 154.628906 239.503906 154.988281 240.457031 155.277344 241.207031 C 155.273438 241.207031 155.273438 241.207031 155.269531 241.207031" fill="#fff"/></g><g><path d="M 151.21875 243.882812 C 151.21875 243.882812 149.253906 238.375 150.261719 236.945312 C 150.929688 235.996094 151.765625 235.78125 152.386719 235.78125 C 152.910156 235.78125 153.285156 235.9375 153.285156 235.9375 C 153.285156 235.9375 153.753906 237.191406 154.292969 238.613281 C 154.609375 239.472656 154.957031 240.402344 155.269531 241.207031 C 153.0625 241.566406 152.316406 243.230469 152.285156 243.296875 C 151.601562 243.601562 151.21875 243.882812 151.21875 243.882812 M 155.398438 242.53125 C 155.527344 242.523438 155.660156 242.519531 155.792969 242.519531 C 155.660156 242.519531 155.527344 242.523438 155.398438 242.53125" fill="#fab586"/></g><g><path d="M 155.746094 242.40625 C 155.621094 242.105469 155.476562 241.742188 155.320312 241.34375 C 155.308594 241.300781 155.292969 241.253906 155.277344 241.210938 C 155.484375 241.742188 155.652344 242.175781 155.746094 242.40625" fill="#fff"/></g><g><path d="M 155.792969 242.519531 C 155.628906 242.164062 155.457031 241.753906 155.320312 241.34375 C 155.476562 241.742188 155.621094 242.105469 155.746094 242.40625 C 155.765625 242.453125 155.78125 242.488281 155.792969 242.519531" fill="#fab586"/></g><g><path d="M 152.285156 243.296875 C 153.015625 242.96875 154.085938 242.613281 155.398438 242.53125 C 153.695312 242.644531 152.285156 243.296875 152.285156 243.296875" fill="#fab586"/></g><g><path d="M 155.320312 241.34375 C 155.304688 241.300781 155.285156 241.253906 155.269531 241.207031 C 155.273438 241.207031 155.273438 241.207031 155.277344 241.207031 C 155.277344 241.207031 155.277344 241.207031 155.277344 241.210938 C 155.292969 241.253906 155.308594 241.300781 155.320312 241.34375" fill="#fff"/></g><g><path d="M 152.285156 243.296875 C 152.316406 243.230469 153.0625 241.566406 155.269531 241.207031 C 155.285156 241.253906 155.304688 241.300781 155.320312 241.34375 C 155.457031 241.753906 155.628906 242.164062 155.792969 242.519531 C 155.660156 242.519531 155.527344 242.523438 155.398438 242.53125 C 154.085938 242.613281 153.015625 242.96875 152.285156 243.296875" fill="#fabe94"/></g><g><path d="M 125.023438 246.953125 C 125.023438 246.953125 124.144531 246.882812 123.113281 246.605469 C 122.078125 246.328125 121.285156 245.945312 121.285156 245.945312 C 121.285156 245.945312 122.164062 246.015625 123.195312 246.296875 C 124.230469 246.574219 125.023438 246.953125 125.023438 246.953125" fill="#fbc18e"/></g><g><path d="M 124.710938 247.738281 C 124.710938 247.738281 123.835938 247.664062 122.800781 247.386719 C 121.769531 247.109375 120.972656 246.730469 120.972656 246.730469 C 120.972656 246.730469 121.851562 246.800781 122.886719 247.078125 C 123.914062 247.355469 124.710938 247.738281 124.710938 247.738281" fill="#fbc18e"/></g><g><path d="M 291.21875 217.652344 C 291.21875 219.515625 289.707031 221.027344 287.84375 221.027344 L 264.609375 221.027344 C 262.75 221.027344 261.238281 219.515625 261.238281 217.652344 L 261.238281 208.371094 C 261.238281 206.511719 262.75 205 264.609375 205 L 287.84375 205 C 289.707031 205 291.21875 206.511719 291.21875 208.371094 L 291.21875 217.652344" fill="#58b59f"/></g><g><path d="M 291.21875 240.4375 C 291.21875 242.300781 289.707031 243.808594 287.84375 243.808594 L 264.609375 243.808594 C 262.75 243.808594 261.238281 242.300781 261.238281 240.4375 L 261.238281 231.15625 C 261.238281 229.292969 262.75 227.785156 264.609375 227.785156 L 287.84375 227.785156 C 289.707031 227.785156 291.21875 229.292969 291.21875 231.15625 L 291.21875 240.4375" fill="#3a89af"/></g><g><path d="M 291.21875 263.222656 C 291.21875 265.085938 289.707031 266.597656 287.84375 266.597656 L 264.609375 266.597656 C 262.75 266.597656 261.238281 265.085938 261.238281 263.222656 L 261.238281 253.941406 C 261.238281 252.078125 262.75 250.570312 264.609375 250.570312 L 287.84375 250.570312 C 289.707031 250.570312 291.21875 252.078125 291.21875 253.941406 L 291.21875 263.222656" fill="#f7911c"/></g><g><path d="M 291.21875 286.007812 C 291.21875 287.871094 289.707031 289.378906 287.84375 289.378906 L 264.609375 289.378906 C 262.75 289.378906 261.238281 287.871094 261.238281 286.007812 L 261.238281 276.726562 C 261.238281 274.863281 262.75 273.355469 264.609375 273.355469 L 287.84375 273.355469 C 289.707031 273.355469 291.21875 274.863281 291.21875 276.726562 L 291.21875 286.007812" fill="#c0253b"/></g><g clip-path="url(#c)"><path d="M 280.460938 326.191406 C 280.460938 326.191406 264.515625 307.210938 261.273438 301.421875 C 258.03125 295.632812 257.035156 284.730469 254.664062 275.023438 C 253.449219 270.046875 263.570312 270.285156 265.902344 274.636719 C 268.238281 278.984375 272.589844 287.082031 272.589844 287.082031 C 272.589844 287.082031 274.171875 245.789062 274.632812 236.761719 C 274.863281 232.246094 277.046875 231.039062 279.269531 230.972656 C 281.5 230.910156 283.773438 231.988281 284.191406 236.359375 C 285.078125 245.539062 286.738281 275.5 286.738281 275.5 C 286.738281 275.5 286.832031 272.152344 286.945312 267.152344 C 287.152344 258.246094 298.257812 258.285156 298.425781 267.890625 C 298.503906 272.433594 298.550781 275.5 298.550781 275.5 C 298.550781 275.5 298.796875 272.398438 299.191406 267.738281 C 299.820312 260.363281 311.1875 260.421875 311.234375 268.484375 C 311.257812 272.632812 311.285156 275.5 311.285156 275.5 C 311.285156 275.5 311.6875 273.007812 312.21875 269.175781 C 312.796875 264.988281 321.050781 266.425781 321.648438 273.625 C 322.882812 288.320312 321.914062 298.746094 321.914062 306.28125 C 321.914062 315.710938 314.851562 326.683594 314.851562 326.683594 L 317.796875 425.199219 L 273.414062 425.199219 L 280.460938 326.191406" fill="#f9aa78"/></g><g><path d="M 256.484375 283.570312 C 256.640625 283.472656 256.796875 283.378906 256.953125 283.292969 C 256.796875 283.378906 256.640625 283.472656 256.484375 283.570312 M 256.484375 283.570312 C 256.445312 283.328125 256.3125 282.691406 256.140625 281.867188 C 256.296875 282.4375 256.40625 283.039062 256.484375 283.570312" fill="#fab586"/></g><g><path d="M 256.039062 281.398438 C 255.496094 278.835938 254.664062 275.023438 254.664062 275.023438 C 255.175781 277.113281 255.621094 279.261719 256.039062 281.398438" fill="#fff"/></g><g><path d="M 260.660156 282.019531 C 260.605469 281.980469 259.683594 281.386719 258.285156 281.386719 C 257.65625 281.386719 256.925781 281.507812 256.136719 281.855469 C 256.105469 281.710938 256.074219 281.554688 256.039062 281.398438 C 255.621094 279.261719 255.175781 277.113281 254.664062 275.023438 C 254.664062 275.023438 255.539062 273.761719 257.148438 273.761719 C 257.550781 273.761719 258 273.839844 258.492188 274.039062 C 260.511719 274.847656 262.167969 281.910156 262.167969 281.910156 C 262.167969 281.910156 262.109375 281.90625 262 281.90625 C 261.761719 281.90625 261.289062 281.921875 260.660156 282.019531" fill="#fab586"/></g><g><path d="M 256.953125 283.292969 C 258.355469 282.511719 259.691406 282.167969 260.660156 282.019531 C 260.664062 282.019531 260.664062 282.019531 260.664062 282.019531 C 260.664062 282.019531 258.78125 282.28125 256.953125 283.292969 M 256.140625 281.867188 C 256.140625 281.863281 256.136719 281.859375 256.136719 281.855469 C 256.136719 281.859375 256.140625 281.863281 256.140625 281.867188" fill="#fab586"/></g><g><path d="M 256.484375 283.570312 C 256.40625 283.039062 256.296875 282.4375 256.140625 281.867188 C 256.140625 281.863281 256.136719 281.859375 256.136719 281.855469 C 256.925781 281.507812 257.65625 281.386719 258.285156 281.386719 C 259.683594 281.386719 260.605469 281.980469 260.660156 282.019531 C 259.691406 282.167969 258.355469 282.511719 256.953125 283.292969 C 256.796875 283.378906 256.640625 283.472656 256.484375 283.570312" fill="#fabe94"/></g><g><path d="M 283.136719 239.886719 C 283.136719 239.886719 282.878906 239.761719 282.355469 239.621094 C 282.378906 239.628906 282.394531 239.632812 282.410156 239.632812 C 282.714844 239.632812 280.953125 238.265625 278.914062 238.265625 C 276.867188 238.265625 275.84375 239.667969 276.136719 239.667969 C 276.148438 239.667969 276.164062 239.667969 276.179688 239.660156 C 275.761719 239.785156 275.550781 239.886719 275.550781 239.886719 C 275.511719 239.441406 275.480469 238.984375 275.480469 238.515625 C 275.480469 234.351562 277.210938 232.050781 279.34375 232.050781 C 281.472656 232.050781 283.199219 234.351562 283.199219 238.515625 C 283.199219 238.984375 283.179688 239.441406 283.136719 239.886719" fill="#fab586"/></g><g><path d="M 276.136719 239.667969 C 275.84375 239.667969 276.867188 238.265625 278.914062 238.265625 C 280.953125 238.265625 282.714844 239.632812 282.410156 239.632812 C 282.394531 239.632812 282.378906 239.628906 282.355469 239.621094 C 281.734375 239.453125 280.730469 239.269531 279.34375 239.269531 C 277.839844 239.269531 276.789062 239.484375 276.179688 239.660156 C 276.164062 239.667969 276.148438 239.667969 276.136719 239.667969" fill="#fabe94"/></g><g><path d="M 282.632812 254.183594 C 282.632812 254.183594 281.191406 254.449219 279.421875 254.449219 C 277.644531 254.449219 276.210938 254.183594 276.210938 254.183594 C 276.210938 254.183594 277.644531 253.914062 279.421875 253.914062 C 281.191406 253.914062 282.632812 254.183594 282.632812 254.183594" fill="#fbc18e"/></g><g><path d="M 282.472656 255.570312 C 282.472656 255.570312 281.03125 255.835938 279.261719 255.835938 C 277.484375 255.835938 276.050781 255.570312 276.050781 255.570312 C 276.050781 255.570312 277.484375 255.304688 279.261719 255.304688 C 281.03125 255.304688 282.472656 255.570312 282.472656 255.570312" fill="#fbc18e"/></g></g></svg>