<?xml version="1.0" encoding="UTF-8"?><svg xmlns="http://www.w3.org/2000/svg" xmlns:xlink="http://www.w3.org/1999/xlink" height="446.5" preserveAspectRatio="xMidYMid meet" version="1.0" viewBox="-1.1 23.2 465.5 446.5" width="465.5" zoomAndPan="magnify"><g id="change1_1"><path d="M57.4953079,178.201004c7.8223267-22.9427643,22.6046524-70.1083984,74.5116196-111.2064285 s174.9767456-43.757309,249.4883728,0s82.883728,152.9865112,79.5348816,203.8971558 c-3.3488159,50.910614-61.9534912,188.7098694-221.8604584,193.7866821S-1.1093446,350.0874329,57.4953079,178.201004z" fill="#4375BA"/></g><g id="change2_1"><path d="M68.9320908,238.2345276c-10.265152-14.8274536,298.0465088-130.6046448,300.558136-128.0930176 s-69.4883728,315.6278992-94.6046448,327.3488464c-25.1162872,11.7209167-64.5348969-168.2790833-64.5348969-168.2790833 s103.046524-101.3023224,95.5116425-97.116272c-7.5348816,4.1860352-128.9302368,91.2557983-128.9302368,91.2557983 S76.46698,249.1182556,68.9320908,238.2345276z" fill="#FFF"/></g></svg>