<?xml version="1.0" encoding="UTF-8"?><svg xmlns="http://www.w3.org/2000/svg" xmlns:xlink="http://www.w3.org/1999/xlink" height="256.0" preserveAspectRatio="xMidYMid" version="1.1" viewBox="0.0 0.0 256.0 256.0" width="256.0" zoomAndPan="magnify">
 <g>
  <rect fill="#12100E" height="256" width="256" x="0" y="0"/>
  <path d="m61.091 85.617c0.214-2.112-0.592-4.198-2.168-5.619l-16.058-19.344v-2.89h49.86l38.535 84.516 33.89-84.516h47.53v2.89l-13.73 13.163c-1.19 0.903-1.77 2.386-1.53 3.853v96.72c-0.24 1.47 0.34 2.95 1.53 3.85l13.41 13.17v2.89h-67.45v-2.89l13.89-13.49c1.37-1.36 1.37-1.76 1.37-3.85v-78.179l-38.62 98.089h-5.22l-44.962-98.089v65.739c-0.375 2.76 0.543 5.55 2.489 7.54l18.065 21.92v2.89h-51.225v-2.89l18.066-21.92c1.931-2 2.796-4.8 2.328-7.54v-76.013z" fill="#fff"/>
 </g>
</svg>